<?xml version="1.0" encoding="utf-8" standalone="no"?>
<!DOCTYPE svg PUBLIC "-//W3C//DTD SVG 1.1//EN"
  "http://www.w3.org/Graphics/SVG/1.1/DTD/svg11.dtd">
<!-- Created with matplotlib (https://matplotlib.org/) -->
<svg height="345.6pt" version="1.1" viewBox="0 0 460.8 345.6" width="460.8pt" xmlns="http://www.w3.org/2000/svg" xmlns:xlink="http://www.w3.org/1999/xlink">
 <defs>
  <style type="text/css">
*{stroke-linecap:butt;stroke-linejoin:round;}
  </style>
 </defs>
 <g id="figure_1">
  <g id="patch_1">
   <path d="M 0 345.6 
L 460.8 345.6 
L 460.8 0 
L 0 0 
z
" style="fill:#ffffff;"/>
  </g>
  <g id="axes_1">
   <g id="patch_2">
    <path d="M 57.6 307.584 
L 219.927273 307.584 
L 219.927273 41.472 
L 57.6 41.472 
z
" style="fill:#ffffff;"/>
   </g>
   <g id="matplotlib.axis_1">
    <g id="xtick_1">
     <g id="line2d_1">
      <defs>
       <path d="M 0 0 
L 0 6 
" id="mb1dd20dd23" style="stroke:#000000;stroke-width:0.8;"/>
      </defs>
      <g>
       <use style="stroke:#000000;stroke-width:0.8;" x="64.978512" xlink:href="#mb1dd20dd23" y="307.584"/>
      </g>
     </g>
     <g id="text_1">
      <!-- 0 -->
      <defs>
       <path d="M 31.78125 66.40625 
Q 24.171875 66.40625 20.328125 58.90625 
Q 16.5 51.421875 16.5 36.375 
Q 16.5 21.390625 20.328125 13.890625 
Q 24.171875 6.390625 31.78125 6.390625 
Q 39.453125 6.390625 43.28125 13.890625 
Q 47.125 21.390625 47.125 36.375 
Q 47.125 51.421875 43.28125 58.90625 
Q 39.453125 66.40625 31.78125 66.40625 
z
M 31.78125 74.21875 
Q 44.046875 74.21875 50.515625 64.515625 
Q 56.984375 54.828125 56.984375 36.375 
Q 56.984375 17.96875 50.515625 8.265625 
Q 44.046875 -1.421875 31.78125 -1.421875 
Q 19.53125 -1.421875 13.0625 8.265625 
Q 6.59375 17.96875 6.59375 36.375 
Q 6.59375 54.828125 13.0625 64.515625 
Q 19.53125 74.21875 31.78125 74.21875 
z
" id="DejaVuSans-48"/>
      </defs>
      <g transform="translate(61.161012 326.202125)scale(0.12 -0.12)">
       <use xlink:href="#DejaVuSans-48"/>
      </g>
     </g>
    </g>
    <g id="xtick_2">
     <g id="line2d_2">
      <g>
       <use style="stroke:#000000;stroke-width:0.8;" x="138.948561" xlink:href="#mb1dd20dd23" y="307.584"/>
      </g>
     </g>
     <g id="text_2">
      <!-- 10 -->
      <defs>
       <path d="M 12.40625 8.296875 
L 28.515625 8.296875 
L 28.515625 63.921875 
L 10.984375 60.40625 
L 10.984375 69.390625 
L 28.421875 72.90625 
L 38.28125 72.90625 
L 38.28125 8.296875 
L 54.390625 8.296875 
L 54.390625 0 
L 12.40625 0 
z
" id="DejaVuSans-49"/>
      </defs>
      <g transform="translate(131.313561 326.202125)scale(0.12 -0.12)">
       <use xlink:href="#DejaVuSans-49"/>
       <use x="63.623047" xlink:href="#DejaVuSans-48"/>
      </g>
     </g>
    </g>
    <g id="xtick_3">
     <g id="line2d_3">
      <g>
       <use style="stroke:#000000;stroke-width:0.8;" x="212.918611" xlink:href="#mb1dd20dd23" y="307.584"/>
      </g>
     </g>
     <g id="text_3">
      <!-- 20 -->
      <defs>
       <path d="M 19.1875 8.296875 
L 53.609375 8.296875 
L 53.609375 0 
L 7.328125 0 
L 7.328125 8.296875 
Q 12.9375 14.109375 22.625 23.890625 
Q 32.328125 33.6875 34.8125 36.53125 
Q 39.546875 41.84375 41.421875 45.53125 
Q 43.3125 49.21875 43.3125 52.78125 
Q 43.3125 58.59375 39.234375 62.25 
Q 35.15625 65.921875 28.609375 65.921875 
Q 23.96875 65.921875 18.8125 64.3125 
Q 13.671875 62.703125 7.8125 59.421875 
L 7.8125 69.390625 
Q 13.765625 71.78125 18.9375 73 
Q 24.125 74.21875 28.421875 74.21875 
Q 39.75 74.21875 46.484375 68.546875 
Q 53.21875 62.890625 53.21875 53.421875 
Q 53.21875 48.921875 51.53125 44.890625 
Q 49.859375 40.875 45.40625 35.40625 
Q 44.1875 33.984375 37.640625 27.21875 
Q 31.109375 20.453125 19.1875 8.296875 
z
" id="DejaVuSans-50"/>
      </defs>
      <g transform="translate(205.283611 326.202125)scale(0.12 -0.12)">
       <use xlink:href="#DejaVuSans-50"/>
       <use x="63.623047" xlink:href="#DejaVuSans-48"/>
      </g>
     </g>
    </g>
   </g>
   <g id="matplotlib.axis_2">
    <g id="ytick_1">
     <g id="line2d_4">
      <defs>
       <path d="M 0 0 
L -6 0 
" id="m7dc1902b89" style="stroke:#000000;stroke-width:0.8;"/>
      </defs>
      <g>
       <use style="stroke:#000000;stroke-width:0.8;" x="57.6" xlink:href="#m7dc1902b89" y="306.976608"/>
      </g>
     </g>
     <g id="text_4">
      <!-- −1.5 -->
      <defs>
       <path d="M 10.59375 35.5 
L 73.1875 35.5 
L 73.1875 27.203125 
L 10.59375 27.203125 
z
" id="DejaVuSans-8722"/>
       <path d="M 10.6875 12.40625 
L 21 12.40625 
L 21 0 
L 10.6875 0 
z
" id="DejaVuSans-46"/>
       <path d="M 10.796875 72.90625 
L 49.515625 72.90625 
L 49.515625 64.59375 
L 19.828125 64.59375 
L 19.828125 46.734375 
Q 21.96875 47.46875 24.109375 47.828125 
Q 26.265625 48.1875 28.421875 48.1875 
Q 40.625 48.1875 47.75 41.5 
Q 54.890625 34.8125 54.890625 23.390625 
Q 54.890625 11.625 47.5625 5.09375 
Q 40.234375 -1.421875 26.90625 -1.421875 
Q 22.3125 -1.421875 17.546875 -0.640625 
Q 12.796875 0.140625 7.71875 1.703125 
L 7.71875 11.625 
Q 12.109375 9.234375 16.796875 8.0625 
Q 21.484375 6.890625 26.703125 6.890625 
Q 35.15625 6.890625 40.078125 11.328125 
Q 45.015625 15.765625 45.015625 23.390625 
Q 45.015625 31 40.078125 35.4375 
Q 35.15625 39.890625 26.703125 39.890625 
Q 22.75 39.890625 18.8125 39.015625 
Q 14.890625 38.140625 10.796875 36.28125 
z
" id="DejaVuSans-53"/>
      </defs>
      <g transform="translate(18.960625 311.53567)scale(0.12 -0.12)">
       <use xlink:href="#DejaVuSans-8722"/>
       <use x="83.789062" xlink:href="#DejaVuSans-49"/>
       <use x="147.412109" xlink:href="#DejaVuSans-46"/>
       <use x="179.199219" xlink:href="#DejaVuSans-53"/>
      </g>
     </g>
    </g>
    <g id="ytick_2">
     <g id="line2d_5">
      <g>
       <use style="stroke:#000000;stroke-width:0.8;" x="57.6" xlink:href="#m7dc1902b89" y="274.820542"/>
      </g>
     </g>
     <g id="text_5">
      <!-- −1.0 -->
      <g transform="translate(18.960625 279.379605)scale(0.12 -0.12)">
       <use xlink:href="#DejaVuSans-8722"/>
       <use x="83.789062" xlink:href="#DejaVuSans-49"/>
       <use x="147.412109" xlink:href="#DejaVuSans-46"/>
       <use x="179.199219" xlink:href="#DejaVuSans-48"/>
      </g>
     </g>
    </g>
    <g id="ytick_3">
     <g id="line2d_6">
      <g>
       <use style="stroke:#000000;stroke-width:0.8;" x="57.6" xlink:href="#m7dc1902b89" y="242.664477"/>
      </g>
     </g>
     <g id="text_6">
      <!-- −0.5 -->
      <g transform="translate(18.960625 247.223539)scale(0.12 -0.12)">
       <use xlink:href="#DejaVuSans-8722"/>
       <use x="83.789062" xlink:href="#DejaVuSans-48"/>
       <use x="147.412109" xlink:href="#DejaVuSans-46"/>
       <use x="179.199219" xlink:href="#DejaVuSans-53"/>
      </g>
     </g>
    </g>
    <g id="ytick_4">
     <g id="line2d_7">
      <g>
       <use style="stroke:#000000;stroke-width:0.8;" x="57.6" xlink:href="#m7dc1902b89" y="210.508411"/>
      </g>
     </g>
     <g id="text_7">
      <!-- 0.0 -->
      <g transform="translate(29.01625 215.067474)scale(0.12 -0.12)">
       <use xlink:href="#DejaVuSans-48"/>
       <use x="63.623047" xlink:href="#DejaVuSans-46"/>
       <use x="95.410156" xlink:href="#DejaVuSans-48"/>
      </g>
     </g>
    </g>
    <g id="ytick_5">
     <g id="line2d_8">
      <g>
       <use style="stroke:#000000;stroke-width:0.8;" x="57.6" xlink:href="#m7dc1902b89" y="178.352346"/>
      </g>
     </g>
     <g id="text_8">
      <!-- 0.5 -->
      <g transform="translate(29.01625 182.911408)scale(0.12 -0.12)">
       <use xlink:href="#DejaVuSans-48"/>
       <use x="63.623047" xlink:href="#DejaVuSans-46"/>
       <use x="95.410156" xlink:href="#DejaVuSans-53"/>
      </g>
     </g>
    </g>
    <g id="ytick_6">
     <g id="line2d_9">
      <g>
       <use style="stroke:#000000;stroke-width:0.8;" x="57.6" xlink:href="#m7dc1902b89" y="146.19628"/>
      </g>
     </g>
     <g id="text_9">
      <!-- 1.0 -->
      <g transform="translate(29.01625 150.755343)scale(0.12 -0.12)">
       <use xlink:href="#DejaVuSans-49"/>
       <use x="63.623047" xlink:href="#DejaVuSans-46"/>
       <use x="95.410156" xlink:href="#DejaVuSans-48"/>
      </g>
     </g>
    </g>
    <g id="ytick_7">
     <g id="line2d_10">
      <g>
       <use style="stroke:#000000;stroke-width:0.8;" x="57.6" xlink:href="#m7dc1902b89" y="114.040215"/>
      </g>
     </g>
     <g id="text_10">
      <!-- 1.5 -->
      <g transform="translate(29.01625 118.599277)scale(0.12 -0.12)">
       <use xlink:href="#DejaVuSans-49"/>
       <use x="63.623047" xlink:href="#DejaVuSans-46"/>
       <use x="95.410156" xlink:href="#DejaVuSans-53"/>
      </g>
     </g>
    </g>
    <g id="ytick_8">
     <g id="line2d_11">
      <g>
       <use style="stroke:#000000;stroke-width:0.8;" x="57.6" xlink:href="#m7dc1902b89" y="81.884149"/>
      </g>
     </g>
     <g id="text_11">
      <!-- 2.0 -->
      <g transform="translate(29.01625 86.443212)scale(0.12 -0.12)">
       <use xlink:href="#DejaVuSans-50"/>
       <use x="63.623047" xlink:href="#DejaVuSans-46"/>
       <use x="95.410156" xlink:href="#DejaVuSans-48"/>
      </g>
     </g>
    </g>
    <g id="ytick_9">
     <g id="line2d_12">
      <g>
       <use style="stroke:#000000;stroke-width:0.8;" x="57.6" xlink:href="#m7dc1902b89" y="49.728084"/>
      </g>
     </g>
     <g id="text_12">
      <!-- 2.5 -->
      <g transform="translate(29.01625 54.287146)scale(0.12 -0.12)">
       <use xlink:href="#DejaVuSans-50"/>
       <use x="63.623047" xlink:href="#DejaVuSans-46"/>
       <use x="95.410156" xlink:href="#DejaVuSans-53"/>
      </g>
     </g>
    </g>
   </g>
   <g id="line2d_13">
    <path clip-path="url(#p5aac569c1e)" d="M 64.978512 215.241941 
L 65.348363 226.529408 
L 65.718213 200.899552 
L 66.088063 197.785103 
L 66.457913 193.287918 
L 66.827764 181.259504 
L 67.197614 222.301269 
L 67.567464 169.555831 
L 67.937314 183.469029 
L 68.307165 176.047376 
L 68.677015 206.224199 
L 69.046865 173.602696 
L 69.416715 161.957971 
L 69.786566 157.979166 
L 70.156416 176.415131 
L 70.526266 152.118547 
L 70.896116 168.683729 
L 71.265967 146.280606 
L 71.635817 177.210099 
L 72.005667 153.191652 
L 72.375517 180.630339 
L 72.745368 133.768424 
L 73.115218 165.348329 
L 73.485068 156.26748 
L 73.854918 170.527206 
L 74.224769 129.905085 
L 74.594619 138.804372 
L 74.964469 173.977725 
L 75.334319 116.593747 
L 75.70417 120.715419 
L 76.07402 121.535522 
L 76.44387 158.188512 
L 76.81372 139.602743 
L 77.18357 150.351632 
L 77.553421 137.444041 
L 77.923271 165.524495 
L 78.293121 103.290899 
L 79.032822 177.527298 
L 79.772522 115.223089 
L 80.512223 162.324487 
L 80.882073 154.522331 
L 81.251923 160.456648 
L 81.621773 131.363718 
L 81.991624 157.132443 
L 82.361474 147.155265 
L 82.731324 179.894074 
L 83.101174 182.802549 
L 83.471025 177.650227 
L 83.840875 165.194844 
L 84.210725 167.520732 
L 84.580575 183.562541 
L 85.320276 145.788078 
L 85.690126 185.059444 
L 86.059976 194.819388 
L 86.429827 208.908786 
L 86.799677 175.421703 
L 87.169527 205.505647 
L 87.539377 196.760905 
L 87.909228 203.659283 
L 88.279078 156.887039 
L 88.648928 205.815615 
L 89.018778 174.381882 
L 89.388629 212.35881 
L 89.758479 210.875035 
L 90.128329 189.686542 
L 90.498179 233.697432 
L 90.86803 222.511518 
L 91.23788 235.514132 
L 91.60773 210.735104 
L 91.97758 221.223751 
L 92.347431 268.120684 
L 93.087131 228.051151 
L 93.456981 257.598947 
L 93.826832 220.197056 
L 94.196682 244.278739 
L 94.566532 257.030938 
L 94.936382 221.784025 
L 95.306233 251.14474 
L 95.676083 241.375794 
L 96.045933 222.325306 
L 96.415783 254.995653 
L 96.785634 256.420068 
L 97.155484 233.269461 
L 97.525334 252.859014 
L 98.265034 205.065435 
L 98.634885 295.488 
L 99.374585 252.987191 
L 99.744435 260.935274 
L 100.114286 225.077199 
L 100.484136 279.508548 
L 100.853986 248.804468 
L 101.223836 230.082497 
L 101.593687 260.242764 
L 102.333387 274.825047 
L 102.703237 246.778845 
L 103.073088 244.972374 
L 103.442938 191.573184 
L 103.812788 293.104962 
L 104.552489 217.324531 
L 104.922339 231.788393 
L 105.292189 218.700703 
L 105.662039 234.754657 
L 106.03189 238.4123 
L 106.40174 267.415736 
L 106.77159 244.132211 
L 107.14144 230.147136 
L 107.511291 206.04941 
L 107.881141 217.137342 
L 108.250991 212.328721 
L 108.620841 200.116523 
L 108.990692 213.87231 
L 109.360542 190.553029 
L 109.730392 155.569915 
L 110.100242 214.686357 
L 110.470093 203.728571 
L 110.839943 214.882795 
L 111.209793 162.591586 
L 111.579643 176.607627 
L 111.949494 171.926573 
L 112.319344 183.857775 
L 112.689194 176.635828 
L 113.059044 164.205215 
L 113.428895 169.727135 
L 113.798745 233.293926 
L 114.168595 165.329891 
L 114.538445 170.220445 
L 114.908296 142.020403 
L 115.278146 145.438649 
L 115.647996 143.213671 
L 116.017846 161.642718 
L 116.387697 153.70992 
L 116.757547 140.307225 
L 117.497247 158.687135 
L 118.236948 117.446223 
L 118.606798 118.117798 
L 118.976648 162.728955 
L 119.346498 137.276708 
L 119.716349 134.311212 
L 120.086199 125.916302 
L 120.456049 91.407462 
L 120.825899 126.044797 
L 121.19575 111.129062 
L 121.5656 134.104758 
L 121.93545 124.072424 
L 122.3053 145.120267 
L 122.675151 107.819147 
L 123.045001 114.683772 
L 123.414851 124.516903 
L 123.784701 105.180999 
L 124.154552 96.850429 
L 124.524402 136.689546 
L 124.894252 114.738275 
L 125.264102 121.01921 
L 125.633953 103.47194 
L 126.003803 59.771411 
L 126.373653 153.530588 
L 126.743503 147.174972 
L 127.113354 113.28243 
L 127.483204 112.708115 
L 127.853054 93.243686 
L 128.222904 122.652154 
L 128.592755 129.811941 
L 128.962605 134.103337 
L 129.332455 143.20645 
L 129.702305 131.459713 
L 130.072156 112.195355 
L 130.442006 140.957933 
L 130.811856 142.750336 
L 131.181706 98.981474 
L 131.551557 166.000533 
L 131.921407 176.867499 
L 132.291257 172.258318 
L 132.661107 129.320794 
L 133.400808 184.433727 
L 134.140508 146.568488 
L 134.510359 147.787745 
L 134.880209 226.836877 
L 135.250059 187.902905 
L 135.619909 206.580816 
L 135.98976 190.871297 
L 136.35961 218.140751 
L 136.72946 166.2166 
L 137.09931 209.58451 
L 137.469161 184.891127 
L 137.839011 211.366935 
L 138.208861 202.66139 
L 138.578711 183.180667 
L 138.948561 176.936613 
L 139.318412 238.618172 
L 139.688262 207.708122 
L 140.058112 193.777564 
L 140.427962 237.579018 
L 140.797813 235.095886 
L 141.167663 240.354678 
L 141.537513 182.617881 
L 141.907363 195.961517 
L 143.016914 220.662651 
L 143.386764 185.252979 
L 143.756615 218.773043 
L 144.126465 220.084209 
L 144.496315 201.558497 
L 145.236016 256.46045 
L 145.605866 213.611903 
L 145.975716 220.003578 
L 146.345566 243.864392 
L 146.715417 276.795713 
L 147.085267 220.244316 
L 147.455117 250.141144 
L 147.824967 198.627736 
L 148.194818 228.734797 
L 148.934518 209.44186 
L 149.304368 232.886022 
L 149.674219 218.681967 
L 150.044069 223.570229 
L 150.783769 211.481964 
L 151.15362 223.407804 
L 151.52347 219.899612 
L 151.89332 212.905494 
L 152.26317 199.404496 
L 152.633021 191.186979 
L 153.002871 194.999104 
L 153.372721 196.367197 
L 153.742571 191.461434 
L 154.112422 203.030907 
L 154.482272 159.012236 
L 154.852122 157.72242 
L 155.221972 169.066472 
L 155.591823 217.601992 
L 155.961673 201.464552 
L 156.331523 179.669757 
L 156.701373 204.668283 
L 157.071224 194.789159 
L 157.441074 146.544476 
L 157.810924 180.933564 
L 158.180774 158.306211 
L 158.550624 160.483704 
L 159.290325 147.317564 
L 159.660175 145.046263 
L 160.030025 136.514416 
L 160.399876 119.290302 
L 160.769726 149.189856 
L 161.139576 112.158516 
L 161.509426 112.95682 
L 161.879277 124.249156 
L 162.249127 130.008062 
L 162.618977 145.344877 
L 162.988827 104.716214 
L 163.358678 119.566357 
L 163.728528 105.867074 
L 164.098378 67.836692 
L 164.468228 134.246307 
L 164.838079 106.970087 
L 165.207929 121.575839 
L 165.577779 81.789429 
L 165.947629 114.247295 
L 166.31748 93.235834 
L 166.68733 110.286816 
L 167.05718 94.101125 
L 167.42703 103.231707 
L 167.796881 62.049105 
L 168.166731 146.896891 
L 168.536581 91.289035 
L 168.906431 73.538552 
L 169.276282 121.267315 
L 169.646132 85.88884 
L 170.015982 86.617776 
L 170.385832 83.674464 
L 170.755683 100.353458 
L 171.125533 101.149888 
L 171.495383 111.015868 
L 171.865233 82.062634 
L 172.235084 76.236924 
L 172.604934 113.47162 
L 172.974784 109.506726 
L 173.344634 122.016325 
L 173.714485 98.212979 
L 174.084335 107.498983 
L 174.454185 113.93177 
L 174.824035 88.449759 
L 175.193886 137.768993 
L 175.563736 67.998209 
L 175.933586 107.056607 
L 176.303436 124.688423 
L 176.673287 128.36432 
L 177.043137 128.427472 
L 177.412987 115.736979 
L 177.782837 111.26684 
L 178.152688 141.013033 
L 178.522538 111.802284 
L 178.892388 179.510482 
L 179.632088 133.507696 
L 180.001939 141.648512 
L 180.371789 125.941948 
L 180.741639 123.636921 
L 181.111489 155.082194 
L 181.48134 159.45036 
L 181.85119 144.864812 
L 182.22104 167.890492 
L 182.59089 178.511165 
L 182.960741 158.005576 
L 183.330591 170.551845 
L 183.700441 164.531476 
L 184.070291 148.023744 
L 184.440142 147.653318 
L 184.809992 185.485136 
L 185.179842 174.739905 
L 185.549692 142.598273 
L 185.919543 191.548193 
L 186.289393 177.957446 
L 186.659243 205.159693 
L 187.029093 200.526936 
L 187.398944 208.714421 
L 187.768794 212.670243 
L 188.138644 193.114906 
L 188.508494 191.471575 
L 188.878345 209.336733 
L 189.248195 195.616349 
L 189.618045 210.19977 
L 189.987895 193.387949 
L 190.357746 227.112596 
L 190.727596 227.132289 
L 191.097446 220.791486 
L 191.467296 223.205596 
L 192.206997 181.220163 
L 192.576847 207.802888 
L 192.946697 207.509298 
L 193.316548 190.649909 
L 193.686398 193.725206 
L 194.056248 222.328721 
L 194.426098 213.818145 
L 194.795949 224.517269 
L 195.165799 195.837919 
L 195.535649 183.342288 
L 195.905499 176.348588 
L 196.27535 246.128599 
L 197.01505 183.567791 
L 197.3849 178.598285 
L 197.754751 178.330682 
L 198.124601 207.941777 
L 198.494451 200.735905 
L 198.864301 182.753561 
L 199.234151 174.00731 
L 199.604002 192.48641 
L 199.973852 162.860624 
L 200.713552 185.172089 
L 201.083403 189.515275 
L 201.453253 127.26505 
L 201.823103 179.723079 
L 202.192953 145.822502 
L 202.562804 162.441098 
L 202.932654 127.938608 
L 203.302504 143.307146 
L 203.672354 139.073546 
L 204.042205 145.553912 
L 204.412055 144.719998 
L 204.781905 139.563455 
L 205.151755 116.396307 
L 205.521606 130.715915 
L 205.891456 124.050968 
L 206.261306 145.364663 
L 206.631156 116.731965 
L 207.001007 124.412713 
L 207.370857 129.719637 
L 207.740707 118.849723 
L 208.110557 87.004652 
L 208.480408 111.371794 
L 208.850258 118.34588 
L 209.220108 136.396047 
L 209.589958 97.583945 
L 209.959809 124.511081 
L 210.329659 86.594274 
L 210.699509 112.5324 
L 211.069359 53.568 
L 211.43921 82.822596 
L 211.80906 62.972183 
L 212.17891 73.681398 
L 212.54876 60.859311 
L 212.54876 60.859311 
" style="fill:none;stroke:#1f77b4;stroke-linecap:square;stroke-width:1.5;"/>
   </g>
   <g id="patch_3">
    <path d="M 57.6 307.584 
L 57.6 41.472 
" style="fill:none;stroke:#000000;stroke-linecap:square;stroke-linejoin:miter;stroke-width:0.8;"/>
   </g>
   <g id="patch_4">
    <path d="M 219.927273 307.584 
L 219.927273 41.472 
" style="fill:none;stroke:#000000;stroke-linecap:square;stroke-linejoin:miter;stroke-width:0.8;"/>
   </g>
   <g id="patch_5">
    <path d="M 57.6 307.584 
L 219.927273 307.584 
" style="fill:none;stroke:#000000;stroke-linecap:square;stroke-linejoin:miter;stroke-width:0.8;"/>
   </g>
   <g id="patch_6">
    <path d="M 57.6 41.472 
L 219.927273 41.472 
" style="fill:none;stroke:#000000;stroke-linecap:square;stroke-linejoin:miter;stroke-width:0.8;"/>
   </g>
  </g>
  <g id="axes_2">
   <g id="patch_7">
    <path d="M 252.392727 307.584 
L 414.72 307.584 
L 414.72 41.472 
L 252.392727 41.472 
z
" style="fill:#ffffff;"/>
   </g>
   <g id="matplotlib.axis_3">
    <g id="xtick_4">
     <g id="line2d_14">
      <g>
       <use style="stroke:#000000;stroke-width:0.8;" x="259.77124" xlink:href="#mb1dd20dd23" y="307.584"/>
      </g>
     </g>
     <g id="text_13">
      <!-- 0 -->
      <g transform="translate(255.95374 326.202125)scale(0.12 -0.12)">
       <use xlink:href="#DejaVuSans-48"/>
      </g>
     </g>
    </g>
    <g id="xtick_5">
     <g id="line2d_15">
      <g>
       <use style="stroke:#000000;stroke-width:0.8;" x="333.741289" xlink:href="#mb1dd20dd23" y="307.584"/>
      </g>
     </g>
     <g id="text_14">
      <!-- 10 -->
      <g transform="translate(326.106289 326.202125)scale(0.12 -0.12)">
       <use xlink:href="#DejaVuSans-49"/>
       <use x="63.623047" xlink:href="#DejaVuSans-48"/>
      </g>
     </g>
    </g>
    <g id="xtick_6">
     <g id="line2d_16">
      <g>
       <use style="stroke:#000000;stroke-width:0.8;" x="407.711338" xlink:href="#mb1dd20dd23" y="307.584"/>
      </g>
     </g>
     <g id="text_15">
      <!-- 20 -->
      <g transform="translate(400.076338 326.202125)scale(0.12 -0.12)">
       <use xlink:href="#DejaVuSans-50"/>
       <use x="63.623047" xlink:href="#DejaVuSans-48"/>
      </g>
     </g>
    </g>
   </g>
   <g id="matplotlib.axis_4">
    <g id="ytick_10">
     <g id="line2d_17">
      <g>
       <use style="stroke:#000000;stroke-width:0.8;" x="252.392727" xlink:href="#m7dc1902b89" y="295.489185"/>
      </g>
     </g>
     <g id="text_16">
      <!-- −1.00 -->
      <g transform="translate(206.118352 300.048247)scale(0.12 -0.12)">
       <use xlink:href="#DejaVuSans-8722"/>
       <use x="83.789062" xlink:href="#DejaVuSans-49"/>
       <use x="147.412109" xlink:href="#DejaVuSans-46"/>
       <use x="179.199219" xlink:href="#DejaVuSans-48"/>
       <use x="242.822266" xlink:href="#DejaVuSans-48"/>
      </g>
     </g>
    </g>
    <g id="ytick_11">
     <g id="line2d_18">
      <g>
       <use style="stroke:#000000;stroke-width:0.8;" x="252.392727" xlink:href="#m7dc1902b89" y="265.248917"/>
      </g>
     </g>
     <g id="text_17">
      <!-- −0.75 -->
      <defs>
       <path d="M 8.203125 72.90625 
L 55.078125 72.90625 
L 55.078125 68.703125 
L 28.609375 0 
L 18.3125 0 
L 43.21875 64.59375 
L 8.203125 64.59375 
z
" id="DejaVuSans-55"/>
      </defs>
      <g transform="translate(206.118352 269.807979)scale(0.12 -0.12)">
       <use xlink:href="#DejaVuSans-8722"/>
       <use x="83.789062" xlink:href="#DejaVuSans-48"/>
       <use x="147.412109" xlink:href="#DejaVuSans-46"/>
       <use x="179.199219" xlink:href="#DejaVuSans-55"/>
       <use x="242.822266" xlink:href="#DejaVuSans-53"/>
      </g>
     </g>
    </g>
    <g id="ytick_12">
     <g id="line2d_19">
      <g>
       <use style="stroke:#000000;stroke-width:0.8;" x="252.392727" xlink:href="#m7dc1902b89" y="235.008649"/>
      </g>
     </g>
     <g id="text_18">
      <!-- −0.50 -->
      <g transform="translate(206.118352 239.567711)scale(0.12 -0.12)">
       <use xlink:href="#DejaVuSans-8722"/>
       <use x="83.789062" xlink:href="#DejaVuSans-48"/>
       <use x="147.412109" xlink:href="#DejaVuSans-46"/>
       <use x="179.199219" xlink:href="#DejaVuSans-53"/>
       <use x="242.822266" xlink:href="#DejaVuSans-48"/>
      </g>
     </g>
    </g>
    <g id="ytick_13">
     <g id="line2d_20">
      <g>
       <use style="stroke:#000000;stroke-width:0.8;" x="252.392727" xlink:href="#m7dc1902b89" y="204.768381"/>
      </g>
     </g>
     <g id="text_19">
      <!-- −0.25 -->
      <g transform="translate(206.118352 209.327443)scale(0.12 -0.12)">
       <use xlink:href="#DejaVuSans-8722"/>
       <use x="83.789062" xlink:href="#DejaVuSans-48"/>
       <use x="147.412109" xlink:href="#DejaVuSans-46"/>
       <use x="179.199219" xlink:href="#DejaVuSans-50"/>
       <use x="242.822266" xlink:href="#DejaVuSans-53"/>
      </g>
     </g>
    </g>
    <g id="ytick_14">
     <g id="line2d_21">
      <g>
       <use style="stroke:#000000;stroke-width:0.8;" x="252.392727" xlink:href="#m7dc1902b89" y="174.528113"/>
      </g>
     </g>
     <g id="text_20">
      <!-- 0.00 -->
      <g transform="translate(216.173977 179.087175)scale(0.12 -0.12)">
       <use xlink:href="#DejaVuSans-48"/>
       <use x="63.623047" xlink:href="#DejaVuSans-46"/>
       <use x="95.410156" xlink:href="#DejaVuSans-48"/>
       <use x="159.033203" xlink:href="#DejaVuSans-48"/>
      </g>
     </g>
    </g>
    <g id="ytick_15">
     <g id="line2d_22">
      <g>
       <use style="stroke:#000000;stroke-width:0.8;" x="252.392727" xlink:href="#m7dc1902b89" y="144.287845"/>
      </g>
     </g>
     <g id="text_21">
      <!-- 0.25 -->
      <g transform="translate(216.173977 148.846907)scale(0.12 -0.12)">
       <use xlink:href="#DejaVuSans-48"/>
       <use x="63.623047" xlink:href="#DejaVuSans-46"/>
       <use x="95.410156" xlink:href="#DejaVuSans-50"/>
       <use x="159.033203" xlink:href="#DejaVuSans-53"/>
      </g>
     </g>
    </g>
    <g id="ytick_16">
     <g id="line2d_23">
      <g>
       <use style="stroke:#000000;stroke-width:0.8;" x="252.392727" xlink:href="#m7dc1902b89" y="114.047577"/>
      </g>
     </g>
     <g id="text_22">
      <!-- 0.50 -->
      <g transform="translate(216.173977 118.60664)scale(0.12 -0.12)">
       <use xlink:href="#DejaVuSans-48"/>
       <use x="63.623047" xlink:href="#DejaVuSans-46"/>
       <use x="95.410156" xlink:href="#DejaVuSans-53"/>
       <use x="159.033203" xlink:href="#DejaVuSans-48"/>
      </g>
     </g>
    </g>
    <g id="ytick_17">
     <g id="line2d_24">
      <g>
       <use style="stroke:#000000;stroke-width:0.8;" x="252.392727" xlink:href="#m7dc1902b89" y="83.807309"/>
      </g>
     </g>
     <g id="text_23">
      <!-- 0.75 -->
      <g transform="translate(216.173977 88.366372)scale(0.12 -0.12)">
       <use xlink:href="#DejaVuSans-48"/>
       <use x="63.623047" xlink:href="#DejaVuSans-46"/>
       <use x="95.410156" xlink:href="#DejaVuSans-55"/>
       <use x="159.033203" xlink:href="#DejaVuSans-53"/>
      </g>
     </g>
    </g>
    <g id="ytick_18">
     <g id="line2d_25">
      <g>
       <use style="stroke:#000000;stroke-width:0.8;" x="252.392727" xlink:href="#m7dc1902b89" y="53.567041"/>
      </g>
     </g>
     <g id="text_24">
      <!-- 1.00 -->
      <g transform="translate(216.173977 58.126104)scale(0.12 -0.12)">
       <use xlink:href="#DejaVuSans-49"/>
       <use x="63.623047" xlink:href="#DejaVuSans-46"/>
       <use x="95.410156" xlink:href="#DejaVuSans-48"/>
       <use x="159.033203" xlink:href="#DejaVuSans-48"/>
      </g>
     </g>
    </g>
   </g>
   <g id="line2d_26">
    <path clip-path="url(#pd8f14b1f7e)" d="M 259.77124 174.528113 
L 263.099892 121.914216 
L 264.949143 96.602851 
L 266.428544 79.77605 
L 267.538095 69.60367 
L 268.647646 61.787666 
L 269.387346 57.975082 
L 270.127047 55.327057 
L 270.496897 54.448486 
L 270.866747 53.87005 
L 271.236597 53.593197 
L 271.606448 53.618619 
L 271.976298 53.946251 
L 272.346148 54.575275 
L 273.085849 56.73046 
L 273.825549 60.06264 
L 274.565249 64.538522 
L 275.6748 73.295938 
L 276.784351 84.326811 
L 278.263752 102.136281 
L 279.743153 122.831785 
L 281.962254 157.458085 
L 286.400457 228.05586 
L 288.249709 253.228427 
L 289.72911 269.908973 
L 290.83866 279.954852 
L 291.948211 287.633075 
L 292.687912 291.349057 
L 293.427612 293.897804 
L 293.797462 294.726042 
L 294.167312 295.253847 
L 294.537163 295.479902 
L 294.907013 295.40364 
L 295.276863 295.025252 
L 295.646713 294.345683 
L 296.386414 292.09055 
L 297.126114 288.660771 
L 297.865815 284.090617 
L 298.975366 275.200075 
L 300.084916 264.048658 
L 301.564317 246.102664 
L 303.043718 225.303218 
L 305.26282 190.590765 
L 309.701023 120.090299 
L 311.180424 99.715368 
L 312.659825 82.322985 
L 313.769376 71.658388 
L 314.878926 63.304023 
L 315.618627 59.112832 
L 316.358327 56.074832 
L 317.098028 54.220379 
L 317.467878 53.74324 
L 317.837728 53.568 
L 318.207578 53.695098 
L 318.577429 54.124215 
L 318.947279 54.854279 
L 319.686979 57.209202 
L 320.42668 60.736337 
L 321.16638 65.400441 
L 322.275931 74.42348 
L 323.385482 85.694653 
L 324.864883 103.775902 
L 326.344284 124.677819 
L 328.563385 159.473972 
L 333.001588 229.872145 
L 334.480989 250.137328 
L 335.96039 267.388211 
L 337.069941 277.929197 
L 338.179492 286.148017 
L 338.919192 290.24371 
L 339.658893 293.183211 
L 340.398593 294.937149 
L 340.768443 295.363587 
L 341.138294 295.488 
L 341.508144 295.310076 
L 341.877994 294.83026 
L 342.247844 294.049751 
L 342.987545 291.595206 
L 343.727245 287.970964 
L 344.466946 283.21324 
L 345.576497 274.058342 
L 346.686047 262.668209 
L 348.165448 244.452982 
L 350.0147 217.859911 
L 352.603651 176.508232 
L 355.932303 123.704258 
L 357.781555 98.127771 
L 359.260956 81.019608 
L 360.370506 70.602979 
L 361.480057 62.520284 
L 362.219758 58.520379 
L 362.959458 55.679585 
L 363.699159 54.026286 
L 364.069009 53.650578 
L 364.438859 53.577001 
L 364.808709 53.805739 
L 365.17856 54.33622 
L 365.54841 55.167119 
L 366.28811 57.721113 
L 367.027811 61.442205 
L 367.767511 66.293214 
L 368.877062 75.579324 
L 369.986613 87.08761 
L 371.466014 105.435527 
L 373.315265 132.147305 
L 375.904217 173.564878 
L 379.232869 226.272999 
L 381.08212 251.714181 
L 382.561521 268.678415 
L 383.671072 278.969951 
L 384.780623 286.915949 
L 385.520323 290.819784 
L 386.260024 293.561671 
L 386.629874 294.48786 
L 386.999724 295.114213 
L 387.369574 295.439164 
L 387.739425 295.4619 
L 388.109275 295.182364 
L 388.479125 294.601255 
L 388.848975 293.720027 
L 389.588676 291.066763 
L 390.328376 287.249084 
L 391.068077 282.305134 
L 392.177628 272.888469 
L 393.287178 261.262841 
L 394.766579 242.783531 
L 396.61583 215.954936 
L 399.574632 168.428931 
L 402.533434 121.865852 
L 404.382686 96.561774 
L 405.862087 79.742669 
L 406.971637 69.576953 
L 407.341488 66.702361 
L 407.341488 66.702361 
" style="fill:none;stroke:#1f77b4;stroke-linecap:square;stroke-width:1.5;"/>
   </g>
   <g id="patch_8">
    <path d="M 252.392727 307.584 
L 252.392727 41.472 
" style="fill:none;stroke:#000000;stroke-linecap:square;stroke-linejoin:miter;stroke-width:0.8;"/>
   </g>
   <g id="patch_9">
    <path d="M 414.72 307.584 
L 414.72 41.472 
" style="fill:none;stroke:#000000;stroke-linecap:square;stroke-linejoin:miter;stroke-width:0.8;"/>
   </g>
   <g id="patch_10">
    <path d="M 252.392727 307.584 
L 414.72 307.584 
" style="fill:none;stroke:#000000;stroke-linecap:square;stroke-linejoin:miter;stroke-width:0.8;"/>
   </g>
   <g id="patch_11">
    <path d="M 252.392727 41.472 
L 414.72 41.472 
" style="fill:none;stroke:#000000;stroke-linecap:square;stroke-linejoin:miter;stroke-width:0.8;"/>
   </g>
  </g>
 </g>
 <defs>
  <clipPath id="p5aac569c1e">
   <rect height="266.112" width="162.327273" x="57.6" y="41.472"/>
  </clipPath>
  <clipPath id="pd8f14b1f7e">
   <rect height="266.112" width="162.327273" x="252.392727" y="41.472"/>
  </clipPath>
 </defs>
</svg>
