<?xml version="1.0" encoding="utf-8" standalone="no"?>
<!DOCTYPE svg PUBLIC "-//W3C//DTD SVG 1.1//EN"
  "http://www.w3.org/Graphics/SVG/1.1/DTD/svg11.dtd">
<!-- Created with matplotlib (https://matplotlib.org/) -->
<svg height="345.6pt" version="1.1" viewBox="0 0 460.8 345.6" width="460.8pt" xmlns="http://www.w3.org/2000/svg" xmlns:xlink="http://www.w3.org/1999/xlink">
 <defs>
  <style type="text/css">
*{stroke-linecap:butt;stroke-linejoin:round;}
  </style>
 </defs>
 <g id="figure_1">
  <g id="patch_1">
   <path d="M 0 345.6 
L 460.8 345.6 
L 460.8 0 
L 0 0 
z
" style="fill:#ffffff;"/>
  </g>
  <g id="axes_1">
   <g id="patch_2">
    <path d="M 53.759375 309.36625 
L 218.396162 309.36625 
L 218.396162 16.994062 
L 53.759375 16.994062 
z
" style="fill:#ffffff;"/>
   </g>
   <g id="matplotlib.axis_1">
    <g id="xtick_1">
     <g id="line2d_1">
      <defs>
       <path d="M 0 0 
L 0 6 
" id="mfb93e0570d" style="stroke:#000000;stroke-width:0.8;"/>
      </defs>
      <g>
       <use style="stroke:#000000;stroke-width:0.8;" x="61.242865" xlink:href="#mfb93e0570d" y="309.36625"/>
      </g>
     </g>
     <g id="text_1">
      <!-- 0 -->
      <defs>
       <path d="M 31.78125 66.40625 
Q 24.171875 66.40625 20.328125 58.90625 
Q 16.5 51.421875 16.5 36.375 
Q 16.5 21.390625 20.328125 13.890625 
Q 24.171875 6.390625 31.78125 6.390625 
Q 39.453125 6.390625 43.28125 13.890625 
Q 47.125 21.390625 47.125 36.375 
Q 47.125 51.421875 43.28125 58.90625 
Q 39.453125 66.40625 31.78125 66.40625 
z
M 31.78125 74.21875 
Q 44.046875 74.21875 50.515625 64.515625 
Q 56.984375 54.828125 56.984375 36.375 
Q 56.984375 17.96875 50.515625 8.265625 
Q 44.046875 -1.421875 31.78125 -1.421875 
Q 19.53125 -1.421875 13.0625 8.265625 
Q 6.59375 17.96875 6.59375 36.375 
Q 6.59375 54.828125 13.0625 64.515625 
Q 19.53125 74.21875 31.78125 74.21875 
z
" id="DejaVuSans-48"/>
      </defs>
      <g transform="translate(57.425365 327.984375)scale(0.12 -0.12)">
       <use xlink:href="#DejaVuSans-48"/>
      </g>
     </g>
    </g>
    <g id="xtick_2">
     <g id="line2d_2">
      <g>
       <use style="stroke:#000000;stroke-width:0.8;" x="136.265325" xlink:href="#mfb93e0570d" y="309.36625"/>
      </g>
     </g>
     <g id="text_2">
      <!-- 10 -->
      <defs>
       <path d="M 12.40625 8.296875 
L 28.515625 8.296875 
L 28.515625 63.921875 
L 10.984375 60.40625 
L 10.984375 69.390625 
L 28.421875 72.90625 
L 38.28125 72.90625 
L 38.28125 8.296875 
L 54.390625 8.296875 
L 54.390625 0 
L 12.40625 0 
z
" id="DejaVuSans-49"/>
      </defs>
      <g transform="translate(128.630325 327.984375)scale(0.12 -0.12)">
       <use xlink:href="#DejaVuSans-49"/>
       <use x="63.623047" xlink:href="#DejaVuSans-48"/>
      </g>
     </g>
    </g>
    <g id="xtick_3">
     <g id="line2d_3">
      <g>
       <use style="stroke:#000000;stroke-width:0.8;" x="211.287784" xlink:href="#mfb93e0570d" y="309.36625"/>
      </g>
     </g>
     <g id="text_3">
      <!-- 20 -->
      <defs>
       <path d="M 19.1875 8.296875 
L 53.609375 8.296875 
L 53.609375 0 
L 7.328125 0 
L 7.328125 8.296875 
Q 12.9375 14.109375 22.625 23.890625 
Q 32.328125 33.6875 34.8125 36.53125 
Q 39.546875 41.84375 41.421875 45.53125 
Q 43.3125 49.21875 43.3125 52.78125 
Q 43.3125 58.59375 39.234375 62.25 
Q 35.15625 65.921875 28.609375 65.921875 
Q 23.96875 65.921875 18.8125 64.3125 
Q 13.671875 62.703125 7.8125 59.421875 
L 7.8125 69.390625 
Q 13.765625 71.78125 18.9375 73 
Q 24.125 74.21875 28.421875 74.21875 
Q 39.75 74.21875 46.484375 68.546875 
Q 53.21875 62.890625 53.21875 53.421875 
Q 53.21875 48.921875 51.53125 44.890625 
Q 49.859375 40.875 45.40625 35.40625 
Q 44.1875 33.984375 37.640625 27.21875 
Q 31.109375 20.453125 19.1875 8.296875 
z
" id="DejaVuSans-50"/>
      </defs>
      <g transform="translate(203.652784 327.984375)scale(0.12 -0.12)">
       <use xlink:href="#DejaVuSans-50"/>
       <use x="63.623047" xlink:href="#DejaVuSans-48"/>
      </g>
     </g>
    </g>
   </g>
   <g id="matplotlib.axis_2">
    <g id="ytick_1">
     <g id="line2d_4">
      <defs>
       <path d="M 0 0 
L -6 0 
" id="m56cbc31a7e" style="stroke:#000000;stroke-width:0.8;"/>
      </defs>
      <g>
       <use style="stroke:#000000;stroke-width:0.8;" x="53.759375" xlink:href="#m56cbc31a7e" y="282.640034"/>
      </g>
     </g>
     <g id="text_4">
      <!-- −1.0 -->
      <defs>
       <path d="M 10.59375 35.5 
L 73.1875 35.5 
L 73.1875 27.203125 
L 10.59375 27.203125 
z
" id="DejaVuSans-8722"/>
       <path d="M 10.6875 12.40625 
L 21 12.40625 
L 21 0 
L 10.6875 0 
z
" id="DejaVuSans-46"/>
      </defs>
      <g transform="translate(15.12 287.199097)scale(0.12 -0.12)">
       <use xlink:href="#DejaVuSans-8722"/>
       <use x="83.789062" xlink:href="#DejaVuSans-49"/>
       <use x="147.412109" xlink:href="#DejaVuSans-46"/>
       <use x="179.199219" xlink:href="#DejaVuSans-48"/>
      </g>
     </g>
    </g>
    <g id="ytick_2">
     <g id="line2d_5">
      <g>
       <use style="stroke:#000000;stroke-width:0.8;" x="53.759375" xlink:href="#m56cbc31a7e" y="245.112032"/>
      </g>
     </g>
     <g id="text_5">
      <!-- −0.5 -->
      <defs>
       <path d="M 10.796875 72.90625 
L 49.515625 72.90625 
L 49.515625 64.59375 
L 19.828125 64.59375 
L 19.828125 46.734375 
Q 21.96875 47.46875 24.109375 47.828125 
Q 26.265625 48.1875 28.421875 48.1875 
Q 40.625 48.1875 47.75 41.5 
Q 54.890625 34.8125 54.890625 23.390625 
Q 54.890625 11.625 47.5625 5.09375 
Q 40.234375 -1.421875 26.90625 -1.421875 
Q 22.3125 -1.421875 17.546875 -0.640625 
Q 12.796875 0.140625 7.71875 1.703125 
L 7.71875 11.625 
Q 12.109375 9.234375 16.796875 8.0625 
Q 21.484375 6.890625 26.703125 6.890625 
Q 35.15625 6.890625 40.078125 11.328125 
Q 45.015625 15.765625 45.015625 23.390625 
Q 45.015625 31 40.078125 35.4375 
Q 35.15625 39.890625 26.703125 39.890625 
Q 22.75 39.890625 18.8125 39.015625 
Q 14.890625 38.140625 10.796875 36.28125 
z
" id="DejaVuSans-53"/>
      </defs>
      <g transform="translate(15.12 249.671095)scale(0.12 -0.12)">
       <use xlink:href="#DejaVuSans-8722"/>
       <use x="83.789062" xlink:href="#DejaVuSans-48"/>
       <use x="147.412109" xlink:href="#DejaVuSans-46"/>
       <use x="179.199219" xlink:href="#DejaVuSans-53"/>
      </g>
     </g>
    </g>
    <g id="ytick_3">
     <g id="line2d_6">
      <g>
       <use style="stroke:#000000;stroke-width:0.8;" x="53.759375" xlink:href="#m56cbc31a7e" y="207.58403"/>
      </g>
     </g>
     <g id="text_6">
      <!-- 0.0 -->
      <g transform="translate(25.175625 212.143093)scale(0.12 -0.12)">
       <use xlink:href="#DejaVuSans-48"/>
       <use x="63.623047" xlink:href="#DejaVuSans-46"/>
       <use x="95.410156" xlink:href="#DejaVuSans-48"/>
      </g>
     </g>
    </g>
    <g id="ytick_4">
     <g id="line2d_7">
      <g>
       <use style="stroke:#000000;stroke-width:0.8;" x="53.759375" xlink:href="#m56cbc31a7e" y="170.056029"/>
      </g>
     </g>
     <g id="text_7">
      <!-- 0.5 -->
      <g transform="translate(25.175625 174.615091)scale(0.12 -0.12)">
       <use xlink:href="#DejaVuSans-48"/>
       <use x="63.623047" xlink:href="#DejaVuSans-46"/>
       <use x="95.410156" xlink:href="#DejaVuSans-53"/>
      </g>
     </g>
    </g>
    <g id="ytick_5">
     <g id="line2d_8">
      <g>
       <use style="stroke:#000000;stroke-width:0.8;" x="53.759375" xlink:href="#m56cbc31a7e" y="132.528027"/>
      </g>
     </g>
     <g id="text_8">
      <!-- 1.0 -->
      <g transform="translate(25.175625 137.087089)scale(0.12 -0.12)">
       <use xlink:href="#DejaVuSans-49"/>
       <use x="63.623047" xlink:href="#DejaVuSans-46"/>
       <use x="95.410156" xlink:href="#DejaVuSans-48"/>
      </g>
     </g>
    </g>
    <g id="ytick_6">
     <g id="line2d_9">
      <g>
       <use style="stroke:#000000;stroke-width:0.8;" x="53.759375" xlink:href="#m56cbc31a7e" y="95.000025"/>
      </g>
     </g>
     <g id="text_9">
      <!-- 1.5 -->
      <g transform="translate(25.175625 99.559087)scale(0.12 -0.12)">
       <use xlink:href="#DejaVuSans-49"/>
       <use x="63.623047" xlink:href="#DejaVuSans-46"/>
       <use x="95.410156" xlink:href="#DejaVuSans-53"/>
      </g>
     </g>
    </g>
    <g id="ytick_7">
     <g id="line2d_10">
      <g>
       <use style="stroke:#000000;stroke-width:0.8;" x="53.759375" xlink:href="#m56cbc31a7e" y="57.472023"/>
      </g>
     </g>
     <g id="text_10">
      <!-- 2.0 -->
      <g transform="translate(25.175625 62.031085)scale(0.12 -0.12)">
       <use xlink:href="#DejaVuSans-50"/>
       <use x="63.623047" xlink:href="#DejaVuSans-46"/>
       <use x="95.410156" xlink:href="#DejaVuSans-48"/>
      </g>
     </g>
    </g>
    <g id="ytick_8">
     <g id="line2d_11">
      <g>
       <use style="stroke:#000000;stroke-width:0.8;" x="53.759375" xlink:href="#m56cbc31a7e" y="19.944021"/>
      </g>
     </g>
     <g id="text_11">
      <!-- 2.5 -->
      <g transform="translate(25.175625 24.503083)scale(0.12 -0.12)">
       <use xlink:href="#DejaVuSans-50"/>
       <use x="63.623047" xlink:href="#DejaVuSans-46"/>
       <use x="95.410156" xlink:href="#DejaVuSans-53"/>
      </g>
     </g>
    </g>
   </g>
   <g id="line2d_12">
    <path clip-path="url(#p8410624a43)" d="M 61.242865 185.176285 
L 61.617978 221.605394 
L 61.99309 179.861176 
L 62.368202 157.872091 
L 62.743315 199.006918 
L 63.118427 174.279314 
L 63.868651 135.574403 
L 64.243764 156.711956 
L 64.618876 151.627932 
L 64.993988 169.080836 
L 65.369101 147.697088 
L 65.744213 160.634686 
L 66.119325 158.630483 
L 66.494437 112.394486 
L 66.86955 133.416092 
L 67.244662 142.983851 
L 67.619774 148.974309 
L 67.994887 170.476718 
L 68.369999 139.13253 
L 68.745111 152.850662 
L 69.120224 129.374698 
L 69.495336 153.377433 
L 69.870448 111.325699 
L 70.24556 90.166867 
L 70.620673 108.547686 
L 70.995785 158.905786 
L 71.370897 119.794453 
L 72.121122 173.580241 
L 72.496234 150.001765 
L 72.871347 144.108976 
L 73.246459 133.457315 
L 73.621571 142.53251 
L 73.996683 128.006161 
L 74.371796 103.594349 
L 74.746908 142.505587 
L 75.12202 116.128268 
L 75.497133 115.877221 
L 75.872245 119.555096 
L 76.247357 93.368991 
L 76.62247 110.149375 
L 76.997582 150.826025 
L 77.372694 138.019273 
L 77.747806 119.158554 
L 78.122919 144.396868 
L 78.498031 134.487862 
L 78.873143 121.310098 
L 79.248256 120.027482 
L 79.623368 124.870917 
L 79.99848 182.473671 
L 80.373592 138.418341 
L 80.748705 151.587758 
L 81.123817 135.63616 
L 81.498929 169.932693 
L 81.874042 160.254205 
L 82.249154 144.518373 
L 82.624266 174.188371 
L 82.999379 145.256009 
L 83.374491 181.816741 
L 83.749603 136.975368 
L 84.124715 171.160958 
L 84.499828 186.002662 
L 84.87494 179.478247 
L 85.250052 198.692537 
L 85.625165 181.916101 
L 86.000277 219.684518 
L 86.375389 180.06043 
L 86.750502 197.816237 
L 87.125614 257.915797 
L 87.500726 234.135314 
L 87.875838 235.742884 
L 88.250951 194.953684 
L 88.626063 225.879714 
L 89.001175 246.065568 
L 89.376288 239.565362 
L 89.7514 262.856524 
L 90.126512 215.424993 
L 90.501624 241.392369 
L 90.876737 236.922828 
L 91.251849 255.017897 
L 91.626961 224.764295 
L 92.002074 267.313079 
L 92.377186 296.076605 
L 92.752298 240.989094 
L 93.127411 249.376716 
L 93.502523 293.114172 
L 93.877635 256.755398 
L 94.252747 245.650562 
L 94.62786 201.253654 
L 95.002972 238.8471 
L 95.378084 214.029841 
L 95.753197 281.047736 
L 96.128309 248.228453 
L 96.503421 258.04664 
L 96.878534 272.958325 
L 97.253646 244.351317 
L 97.628758 274.352956 
L 98.378983 284.765098 
L 98.754095 266.647974 
L 99.129207 234.025212 
L 99.50432 284.356195 
L 99.879432 261.196086 
L 100.254544 276.043729 
L 100.629657 222.349445 
L 101.004769 253.675446 
L 101.379881 245.015088 
L 101.754993 269.976284 
L 102.130106 189.75965 
L 102.505218 204.803558 
L 102.88033 238.916964 
L 103.255443 233.145539 
L 103.630555 231.072599 
L 104.005667 233.08699 
L 104.380779 212.725506 
L 104.755892 200.35837 
L 105.131004 215.127076 
L 105.506116 196.064939 
L 105.881229 266.678255 
L 106.256341 227.17306 
L 106.631453 229.755509 
L 107.381678 188.686898 
L 107.75679 152.27139 
L 108.131902 158.726121 
L 108.507015 177.450854 
L 108.882127 178.565732 
L 109.257239 157.640332 
L 109.632352 171.524501 
L 110.007464 168.348857 
L 110.382576 139.564659 
L 110.757689 127.148708 
L 111.132801 148.425387 
L 111.507913 155.858031 
L 111.883025 135.679832 
L 112.258138 150.136327 
L 112.63325 174.817606 
L 113.008362 130.352157 
L 113.383475 134.703213 
L 113.758587 133.639788 
L 114.133699 144.702669 
L 114.508811 105.787311 
L 114.883924 104.172367 
L 115.259036 133.080821 
L 115.634148 113.321411 
L 116.009261 138.860858 
L 116.384373 94.791547 
L 116.759485 124.383675 
L 117.134598 64.896027 
L 117.50971 117.916507 
L 117.884822 76.736058 
L 118.259934 63.916474 
L 118.635047 106.32784 
L 119.010159 116.752717 
L 119.385271 136.366649 
L 119.760384 93.644396 
L 120.135496 86.324271 
L 120.885721 120.45846 
L 121.260833 118.013707 
L 121.635945 84.475881 
L 122.011057 133.75589 
L 122.38617 47.525532 
L 122.761282 109.383929 
L 123.136394 56.387602 
L 123.886619 105.207997 
L 124.261731 81.621304 
L 125.011956 107.243358 
L 125.387068 97.093928 
L 125.76218 106.733787 
L 126.137293 107.6201 
L 126.512405 77.820548 
L 126.887517 130.499293 
L 127.26263 117.241755 
L 127.637742 149.657368 
L 128.012854 141.690752 
L 128.387966 136.306324 
L 128.763079 157.221931 
L 129.138191 143.201279 
L 129.513303 138.900061 
L 130.263528 194.696681 
L 130.63864 158.353391 
L 131.013753 194.080505 
L 131.388865 210.717148 
L 131.763977 201.076324 
L 132.139089 146.193205 
L 132.514202 204.324527 
L 132.889314 138.680108 
L 133.264426 149.749428 
L 133.639539 199.415868 
L 134.014651 233.669437 
L 134.389763 217.852991 
L 135.139988 162.043125 
L 135.5151 187.168136 
L 135.890212 250.744574 
L 136.265325 178.315094 
L 137.015549 250.122042 
L 137.390662 192.263376 
L 137.765774 255.13571 
L 138.140886 237.871869 
L 138.515999 202.760178 
L 138.891111 221.566384 
L 139.266223 222.360244 
L 140.016448 198.203022 
L 140.39156 194.669914 
L 141.141785 222.098699 
L 141.516897 216.536994 
L 141.892009 231.88559 
L 142.267121 269.40989 
L 142.642234 259.591982 
L 143.017346 218.834424 
L 143.767571 247.019726 
L 144.142683 245.997623 
L 144.517795 227.042683 
L 144.892908 225.211971 
L 145.26802 174.757787 
L 145.643132 168.541387 
L 146.018244 204.834138 
L 146.393357 255.222549 
L 146.768469 212.275804 
L 147.143581 229.461696 
L 147.893806 219.723561 
L 148.268918 242.928942 
L 148.644031 199.829897 
L 149.019143 200.463947 
L 149.394255 202.187324 
L 149.769367 213.69529 
L 150.14448 183.524166 
L 150.519592 172.132408 
L 151.269817 223.267218 
L 151.644929 206.569752 
L 152.020041 148.448622 
L 152.395153 154.458307 
L 152.770266 196.031365 
L 153.145378 191.201039 
L 153.52049 136.414402 
L 153.895603 137.320841 
L 154.645827 159.927471 
L 155.02094 123.643201 
L 155.396052 140.710791 
L 155.771164 163.95175 
L 156.146276 145.715684 
L 156.521389 134.257805 
L 156.896501 173.501015 
L 157.271613 127.149212 
L 157.646726 170.498438 
L 158.021838 133.183567 
L 158.39695 80.058016 
L 159.147175 117.613003 
L 159.522287 86.644037 
L 159.897399 83.938433 
L 160.272512 88.327312 
L 160.647624 139.740296 
L 161.022736 68.230506 
L 161.397849 108.035393 
L 161.772961 69.31646 
L 162.148073 87.191347 
L 162.523186 78.080156 
L 162.898298 85.808906 
L 163.27341 108.983276 
L 163.648522 72.097891 
L 164.023635 69.894236 
L 164.398747 53.796969 
L 165.148972 83.994685 
L 165.524084 90.964337 
L 165.899196 41.511234 
L 166.274308 69.08347 
L 166.649421 57.38779 
L 167.024533 101.134811 
L 167.399645 73.256093 
L 167.774758 120.083546 
L 168.14987 54.511548 
L 168.524982 79.6222 
L 168.900095 62.239958 
L 169.275207 50.136911 
L 169.650319 96.210171 
L 170.025431 76.742686 
L 170.400544 73.410755 
L 170.775656 94.291341 
L 171.150768 35.005381 
L 171.525881 65.047838 
L 171.900993 46.65337 
L 172.276105 54.33332 
L 172.651218 82.38815 
L 173.02633 75.841669 
L 173.776554 121.007493 
L 174.151667 118.444901 
L 174.526779 87.607941 
L 174.901891 91.805908 
L 175.277004 141.351142 
L 175.652116 90.647963 
L 176.027228 69.249558 
L 176.402341 124.81761 
L 176.777453 109.254569 
L 177.152565 131.401566 
L 177.527677 62.680356 
L 177.90279 118.867884 
L 178.277902 142.554977 
L 178.653014 150.222394 
L 179.028127 142.277504 
L 179.403239 155.244031 
L 180.153463 110.038793 
L 180.528576 152.474752 
L 180.903688 129.082053 
L 181.2788 121.234578 
L 181.653913 219.826731 
L 182.029025 136.935389 
L 182.404137 137.418649 
L 182.77925 135.55571 
L 183.154362 168.167614 
L 183.529474 160.029269 
L 183.904586 190.425693 
L 184.279699 202.165864 
L 184.654811 231.254328 
L 185.029923 195.672487 
L 185.405036 187.228691 
L 185.780148 196.842829 
L 186.15526 192.611274 
L 186.530373 207.254872 
L 186.905485 200.951889 
L 187.280597 189.259253 
L 187.655709 191.332471 
L 188.030822 194.115808 
L 188.405934 172.843022 
L 188.781046 226.009667 
L 189.156159 208.089463 
L 189.531271 169.92231 
L 190.281495 203.923714 
L 190.656608 188.748618 
L 191.03172 227.763576 
L 191.406832 210.363763 
L 191.781945 247.109066 
L 192.157057 204.322259 
L 192.532169 207.086081 
L 192.907282 198.49305 
L 193.282394 171.11143 
L 193.657506 214.2856 
L 194.407731 148.457653 
L 194.782843 205.932668 
L 195.157955 209.815109 
L 195.533068 152.778007 
L 195.90818 172.81028 
L 196.283292 199.385437 
L 196.658405 188.560663 
L 197.408629 142.407242 
L 197.783741 162.31749 
L 198.158854 192.820428 
L 198.533966 124.745402 
L 198.909078 175.429537 
L 199.284191 184.088245 
L 199.659303 147.363515 
L 200.034415 141.07111 
L 200.409528 167.371427 
L 200.78464 139.299596 
L 201.159752 142.079866 
L 201.534864 137.925689 
L 201.909977 115.276122 
L 202.285089 145.734073 
L 202.660201 101.315295 
L 203.035314 134.617191 
L 203.410426 124.348261 
L 203.785538 144.008135 
L 204.16065 107.142971 
L 204.535763 94.355513 
L 204.910875 86.545001 
L 205.285987 124.499018 
L 205.6611 77.625858 
L 206.036212 97.133818 
L 206.411324 36.070533 
L 206.786437 61.079501 
L 207.536661 35.382848 
L 207.911773 66.719308 
L 208.661998 43.445886 
L 209.03711 78.065959 
L 209.412223 54.235139 
L 209.787335 50.836997 
L 210.162447 67.46103 
L 210.53756 30.283707 
L 210.912672 39.439416 
L 210.912672 39.439416 
" style="fill:none;stroke:#1f77b4;stroke-linecap:square;stroke-width:1.5;"/>
   </g>
   <g id="patch_3">
    <path d="M 53.759375 309.36625 
L 53.759375 16.994062 
" style="fill:none;stroke:#000000;stroke-linecap:square;stroke-linejoin:miter;stroke-width:0.8;"/>
   </g>
   <g id="patch_4">
    <path d="M 218.396162 309.36625 
L 218.396162 16.994062 
" style="fill:none;stroke:#000000;stroke-linecap:square;stroke-linejoin:miter;stroke-width:0.8;"/>
   </g>
   <g id="patch_5">
    <path d="M 53.759375 309.36625 
L 218.396162 309.36625 
" style="fill:none;stroke:#000000;stroke-linecap:square;stroke-linejoin:miter;stroke-width:0.8;"/>
   </g>
   <g id="patch_6">
    <path d="M 53.759375 16.994062 
L 218.396162 16.994062 
" style="fill:none;stroke:#000000;stroke-linecap:square;stroke-linejoin:miter;stroke-width:0.8;"/>
   </g>
  </g>
  <g id="axes_2">
   <g id="patch_7">
    <path d="M 280.416875 309.36625 
L 445.053662 309.36625 
L 445.053662 16.994062 
L 280.416875 16.994062 
z
" style="fill:#ffffff;"/>
   </g>
   <g id="matplotlib.axis_3">
    <g id="xtick_4">
     <g id="line2d_13">
      <g>
       <use style="stroke:#000000;stroke-width:0.8;" x="287.900365" xlink:href="#mfb93e0570d" y="309.36625"/>
      </g>
     </g>
     <g id="text_12">
      <!-- 0 -->
      <g transform="translate(284.082865 327.984375)scale(0.12 -0.12)">
       <use xlink:href="#DejaVuSans-48"/>
      </g>
     </g>
    </g>
    <g id="xtick_5">
     <g id="line2d_14">
      <g>
       <use style="stroke:#000000;stroke-width:0.8;" x="362.922825" xlink:href="#mfb93e0570d" y="309.36625"/>
      </g>
     </g>
     <g id="text_13">
      <!-- 10 -->
      <g transform="translate(355.287825 327.984375)scale(0.12 -0.12)">
       <use xlink:href="#DejaVuSans-49"/>
       <use x="63.623047" xlink:href="#DejaVuSans-48"/>
      </g>
     </g>
    </g>
    <g id="xtick_6">
     <g id="line2d_15">
      <g>
       <use style="stroke:#000000;stroke-width:0.8;" x="437.945284" xlink:href="#mfb93e0570d" y="309.36625"/>
      </g>
     </g>
     <g id="text_14">
      <!-- 20 -->
      <g transform="translate(430.310284 327.984375)scale(0.12 -0.12)">
       <use xlink:href="#DejaVuSans-50"/>
       <use x="63.623047" xlink:href="#DejaVuSans-48"/>
      </g>
     </g>
    </g>
   </g>
   <g id="matplotlib.axis_4">
    <g id="ytick_9">
     <g id="line2d_16">
      <g>
       <use style="stroke:#000000;stroke-width:0.8;" x="280.416875" xlink:href="#m56cbc31a7e" y="296.077907"/>
      </g>
     </g>
     <g id="text_15">
      <!-- −1.00 -->
      <g transform="translate(234.1425 300.636969)scale(0.12 -0.12)">
       <use xlink:href="#DejaVuSans-8722"/>
       <use x="83.789062" xlink:href="#DejaVuSans-49"/>
       <use x="147.412109" xlink:href="#DejaVuSans-46"/>
       <use x="179.199219" xlink:href="#DejaVuSans-48"/>
       <use x="242.822266" xlink:href="#DejaVuSans-48"/>
      </g>
     </g>
    </g>
    <g id="ytick_10">
     <g id="line2d_17">
      <g>
       <use style="stroke:#000000;stroke-width:0.8;" x="280.416875" xlink:href="#m56cbc31a7e" y="262.8535"/>
      </g>
     </g>
     <g id="text_16">
      <!-- −0.75 -->
      <defs>
       <path d="M 8.203125 72.90625 
L 55.078125 72.90625 
L 55.078125 68.703125 
L 28.609375 0 
L 18.3125 0 
L 43.21875 64.59375 
L 8.203125 64.59375 
z
" id="DejaVuSans-55"/>
      </defs>
      <g transform="translate(234.1425 267.412562)scale(0.12 -0.12)">
       <use xlink:href="#DejaVuSans-8722"/>
       <use x="83.789062" xlink:href="#DejaVuSans-48"/>
       <use x="147.412109" xlink:href="#DejaVuSans-46"/>
       <use x="179.199219" xlink:href="#DejaVuSans-55"/>
       <use x="242.822266" xlink:href="#DejaVuSans-53"/>
      </g>
     </g>
    </g>
    <g id="ytick_11">
     <g id="line2d_18">
      <g>
       <use style="stroke:#000000;stroke-width:0.8;" x="280.416875" xlink:href="#m56cbc31a7e" y="229.629093"/>
      </g>
     </g>
     <g id="text_17">
      <!-- −0.50 -->
      <g transform="translate(234.1425 234.188156)scale(0.12 -0.12)">
       <use xlink:href="#DejaVuSans-8722"/>
       <use x="83.789062" xlink:href="#DejaVuSans-48"/>
       <use x="147.412109" xlink:href="#DejaVuSans-46"/>
       <use x="179.199219" xlink:href="#DejaVuSans-53"/>
       <use x="242.822266" xlink:href="#DejaVuSans-48"/>
      </g>
     </g>
    </g>
    <g id="ytick_12">
     <g id="line2d_19">
      <g>
       <use style="stroke:#000000;stroke-width:0.8;" x="280.416875" xlink:href="#m56cbc31a7e" y="196.404687"/>
      </g>
     </g>
     <g id="text_18">
      <!-- −0.25 -->
      <g transform="translate(234.1425 200.963749)scale(0.12 -0.12)">
       <use xlink:href="#DejaVuSans-8722"/>
       <use x="83.789062" xlink:href="#DejaVuSans-48"/>
       <use x="147.412109" xlink:href="#DejaVuSans-46"/>
       <use x="179.199219" xlink:href="#DejaVuSans-50"/>
       <use x="242.822266" xlink:href="#DejaVuSans-53"/>
      </g>
     </g>
    </g>
    <g id="ytick_13">
     <g id="line2d_20">
      <g>
       <use style="stroke:#000000;stroke-width:0.8;" x="280.416875" xlink:href="#m56cbc31a7e" y="163.18028"/>
      </g>
     </g>
     <g id="text_19">
      <!-- 0.00 -->
      <g transform="translate(244.198125 167.739342)scale(0.12 -0.12)">
       <use xlink:href="#DejaVuSans-48"/>
       <use x="63.623047" xlink:href="#DejaVuSans-46"/>
       <use x="95.410156" xlink:href="#DejaVuSans-48"/>
       <use x="159.033203" xlink:href="#DejaVuSans-48"/>
      </g>
     </g>
    </g>
    <g id="ytick_14">
     <g id="line2d_21">
      <g>
       <use style="stroke:#000000;stroke-width:0.8;" x="280.416875" xlink:href="#m56cbc31a7e" y="129.955873"/>
      </g>
     </g>
     <g id="text_20">
      <!-- 0.25 -->
      <g transform="translate(244.198125 134.514936)scale(0.12 -0.12)">
       <use xlink:href="#DejaVuSans-48"/>
       <use x="63.623047" xlink:href="#DejaVuSans-46"/>
       <use x="95.410156" xlink:href="#DejaVuSans-50"/>
       <use x="159.033203" xlink:href="#DejaVuSans-53"/>
      </g>
     </g>
    </g>
    <g id="ytick_15">
     <g id="line2d_22">
      <g>
       <use style="stroke:#000000;stroke-width:0.8;" x="280.416875" xlink:href="#m56cbc31a7e" y="96.731467"/>
      </g>
     </g>
     <g id="text_21">
      <!-- 0.50 -->
      <g transform="translate(244.198125 101.290529)scale(0.12 -0.12)">
       <use xlink:href="#DejaVuSans-48"/>
       <use x="63.623047" xlink:href="#DejaVuSans-46"/>
       <use x="95.410156" xlink:href="#DejaVuSans-53"/>
       <use x="159.033203" xlink:href="#DejaVuSans-48"/>
      </g>
     </g>
    </g>
    <g id="ytick_16">
     <g id="line2d_23">
      <g>
       <use style="stroke:#000000;stroke-width:0.8;" x="280.416875" xlink:href="#m56cbc31a7e" y="63.50706"/>
      </g>
     </g>
     <g id="text_22">
      <!-- 0.75 -->
      <g transform="translate(244.198125 68.066122)scale(0.12 -0.12)">
       <use xlink:href="#DejaVuSans-48"/>
       <use x="63.623047" xlink:href="#DejaVuSans-46"/>
       <use x="95.410156" xlink:href="#DejaVuSans-55"/>
       <use x="159.033203" xlink:href="#DejaVuSans-53"/>
      </g>
     </g>
    </g>
    <g id="ytick_17">
     <g id="line2d_24">
      <g>
       <use style="stroke:#000000;stroke-width:0.8;" x="280.416875" xlink:href="#m56cbc31a7e" y="30.282653"/>
      </g>
     </g>
     <g id="text_23">
      <!-- 1.00 -->
      <g transform="translate(244.198125 34.841716)scale(0.12 -0.12)">
       <use xlink:href="#DejaVuSans-49"/>
       <use x="63.623047" xlink:href="#DejaVuSans-46"/>
       <use x="95.410156" xlink:href="#DejaVuSans-48"/>
       <use x="159.033203" xlink:href="#DejaVuSans-48"/>
      </g>
     </g>
    </g>
   </g>
   <g id="line2d_25">
    <path clip-path="url(#p669c89893e)" d="M 287.900365 163.18028 
L 290.901264 111.427507 
L 292.776825 82.752443 
L 294.277274 63.336897 
L 295.402611 51.350783 
L 296.527948 41.876119 
L 297.278173 37.062476 
L 298.028397 33.508961 
L 298.778622 31.25108 
L 299.153734 30.615564 
L 299.528847 30.311391 
L 299.903959 30.33932 
L 300.279071 30.699284 
L 300.654183 31.39038 
L 301.029296 32.410883 
L 301.77952 35.429087 
L 302.529745 39.723739 
L 303.27997 45.251927 
L 304.405306 55.733027 
L 305.530643 68.62716 
L 307.031092 89.065438 
L 308.906654 118.66115 
L 311.907552 170.938065 
L 314.908451 221.990197 
L 316.4089 244.494742 
L 317.909349 263.757535 
L 319.034686 275.609506 
L 320.160023 284.936559 
L 320.910247 289.645937 
L 321.660472 293.091713 
L 322.410697 295.239456 
L 322.785809 295.819346 
L 323.160921 296.067708 
L 323.536034 295.98392 
L 323.911146 295.568192 
L 324.286258 294.821564 
L 325.036483 292.343891 
L 325.786707 288.575659 
L 326.536932 283.554517 
L 327.662269 273.786648 
L 328.787606 261.534798 
L 330.288055 241.817876 
L 331.788504 218.965922 
L 334.039178 180.828009 
L 338.540525 103.370491 
L 340.040975 80.984941 
L 341.541424 61.876261 
L 342.666761 50.159271 
L 343.792098 40.98049 
L 344.542322 36.375708 
L 345.292547 33.037916 
L 346.042771 31.000463 
L 346.417884 30.476239 
L 346.792996 30.283707 
L 347.168108 30.423346 
L 347.543221 30.894809 
L 347.918333 31.696917 
L 348.668557 34.284226 
L 349.418782 38.159422 
L 350.169007 43.283784 
L 351.294344 53.197225 
L 352.41968 65.580649 
L 353.92013 85.446173 
L 355.420579 108.410711 
L 357.671253 146.640582 
L 361.797488 218.003615 
L 363.673049 246.250686 
L 365.173499 265.203902 
L 366.298835 276.785082 
L 367.424172 285.814943 
L 368.174397 290.314803 
L 368.924621 293.544377 
L 369.674846 295.471396 
L 370.049958 295.939915 
L 370.425071 296.076605 
L 370.800183 295.881123 
L 371.175295 295.353959 
L 371.550408 294.496428 
L 372.300632 291.799666 
L 373.050857 287.817781 
L 373.801081 282.590559 
L 374.926418 272.532247 
L 376.051755 260.018126 
L 377.552204 240.005403 
L 379.052653 216.929904 
L 381.303327 178.610776 
L 385.429563 107.341078 
L 387.305124 79.240679 
L 388.805573 60.444266 
L 389.93091 48.999714 
L 391.056247 40.119411 
L 391.806472 35.724791 
L 392.556696 32.603665 
L 393.306921 30.787217 
L 393.682033 30.374434 
L 394.057145 30.293596 
L 394.432258 30.544906 
L 394.80737 31.127736 
L 395.182482 32.040628 
L 395.932707 34.846653 
L 396.682931 38.934946 
L 397.433156 44.264657 
L 398.558493 54.467129 
L 399.68383 67.111064 
L 401.184279 87.269572 
L 403.059841 116.617293 
L 405.685627 162.121992 
L 409.061637 220.031402 
L 410.937199 247.983144 
L 412.437648 266.621424 
L 413.562985 277.928539 
L 414.688322 286.658656 
L 415.438546 290.947725 
L 416.188771 293.960184 
L 416.563883 294.977771 
L 416.938995 295.665933 
L 417.314108 296.02295 
L 417.68922 296.047929 
L 418.064332 295.740809 
L 418.439445 295.102356 
L 418.814557 294.134166 
L 419.564782 291.219076 
L 420.315006 287.024665 
L 421.065231 281.592841 
L 422.190568 271.24693 
L 423.315905 258.474075 
L 424.816354 238.171208 
L 426.691915 208.695141 
L 429.692814 156.479224 
L 432.693712 105.321257 
L 434.569273 77.520148 
L 436.069723 59.041318 
L 437.19506 47.872438 
L 437.570172 44.714179 
L 437.570172 44.714179 
" style="fill:none;stroke:#1f77b4;stroke-linecap:square;stroke-width:1.5;"/>
   </g>
   <g id="patch_8">
    <path d="M 280.416875 309.36625 
L 280.416875 16.994062 
" style="fill:none;stroke:#000000;stroke-linecap:square;stroke-linejoin:miter;stroke-width:0.8;"/>
   </g>
   <g id="patch_9">
    <path d="M 445.053662 309.36625 
L 445.053662 16.994062 
" style="fill:none;stroke:#000000;stroke-linecap:square;stroke-linejoin:miter;stroke-width:0.8;"/>
   </g>
   <g id="patch_10">
    <path d="M 280.416875 309.36625 
L 445.053662 309.36625 
" style="fill:none;stroke:#000000;stroke-linecap:square;stroke-linejoin:miter;stroke-width:0.8;"/>
   </g>
   <g id="patch_11">
    <path d="M 280.416875 16.994062 
L 445.053662 16.994062 
" style="fill:none;stroke:#000000;stroke-linecap:square;stroke-linejoin:miter;stroke-width:0.8;"/>
   </g>
  </g>
 </g>
 <defs>
  <clipPath id="p8410624a43">
   <rect height="292.372188" width="164.636787" x="53.759375" y="16.994062"/>
  </clipPath>
  <clipPath id="p669c89893e">
   <rect height="292.372188" width="164.636787" x="280.416875" y="16.994062"/>
  </clipPath>
 </defs>
</svg>
