<?xml version="1.0" encoding="utf-8" standalone="no"?>
<!DOCTYPE svg PUBLIC "-//W3C//DTD SVG 1.1//EN"
  "http://www.w3.org/Graphics/SVG/1.1/DTD/svg11.dtd">
<!-- Created with matplotlib (https://matplotlib.org/) -->
<svg height="345.6pt" version="1.1" viewBox="0 0 460.8 345.6" width="460.8pt" xmlns="http://www.w3.org/2000/svg" xmlns:xlink="http://www.w3.org/1999/xlink">
 <defs>
  <style type="text/css">
*{stroke-linecap:butt;stroke-linejoin:round;}
  </style>
 </defs>
 <g id="figure_1">
  <g id="patch_1">
   <path d="M 0 345.6 
L 460.8 345.6 
L 460.8 0 
L 0 0 
z
" style="fill:#ffffff;"/>
  </g>
  <g id="axes_1">
   <g id="patch_2">
    <path d="M 57.6 307.584 
L 219.927273 307.584 
L 219.927273 41.472 
L 57.6 41.472 
z
" style="fill:#ffffff;"/>
   </g>
   <g id="matplotlib.axis_1">
    <g id="xtick_1">
     <g id="line2d_1">
      <defs>
       <path d="M 0 0 
L 0 6 
" id="m7919c57956" style="stroke:#000000;stroke-width:0.8;"/>
      </defs>
      <g>
       <use style="stroke:#000000;stroke-width:0.8;" x="64.978512" xlink:href="#m7919c57956" y="307.584"/>
      </g>
     </g>
     <g id="text_1">
      <!-- 0 -->
      <defs>
       <path d="M 31.78125 66.40625 
Q 24.171875 66.40625 20.328125 58.90625 
Q 16.5 51.421875 16.5 36.375 
Q 16.5 21.390625 20.328125 13.890625 
Q 24.171875 6.390625 31.78125 6.390625 
Q 39.453125 6.390625 43.28125 13.890625 
Q 47.125 21.390625 47.125 36.375 
Q 47.125 51.421875 43.28125 58.90625 
Q 39.453125 66.40625 31.78125 66.40625 
z
M 31.78125 74.21875 
Q 44.046875 74.21875 50.515625 64.515625 
Q 56.984375 54.828125 56.984375 36.375 
Q 56.984375 17.96875 50.515625 8.265625 
Q 44.046875 -1.421875 31.78125 -1.421875 
Q 19.53125 -1.421875 13.0625 8.265625 
Q 6.59375 17.96875 6.59375 36.375 
Q 6.59375 54.828125 13.0625 64.515625 
Q 19.53125 74.21875 31.78125 74.21875 
z
" id="DejaVuSans-48"/>
      </defs>
      <g transform="translate(61.161012 326.202125)scale(0.12 -0.12)">
       <use xlink:href="#DejaVuSans-48"/>
      </g>
     </g>
    </g>
    <g id="xtick_2">
     <g id="line2d_2">
      <g>
       <use style="stroke:#000000;stroke-width:0.8;" x="138.948561" xlink:href="#m7919c57956" y="307.584"/>
      </g>
     </g>
     <g id="text_2">
      <!-- 10 -->
      <defs>
       <path d="M 12.40625 8.296875 
L 28.515625 8.296875 
L 28.515625 63.921875 
L 10.984375 60.40625 
L 10.984375 69.390625 
L 28.421875 72.90625 
L 38.28125 72.90625 
L 38.28125 8.296875 
L 54.390625 8.296875 
L 54.390625 0 
L 12.40625 0 
z
" id="DejaVuSans-49"/>
      </defs>
      <g transform="translate(131.313561 326.202125)scale(0.12 -0.12)">
       <use xlink:href="#DejaVuSans-49"/>
       <use x="63.623047" xlink:href="#DejaVuSans-48"/>
      </g>
     </g>
    </g>
    <g id="xtick_3">
     <g id="line2d_3">
      <g>
       <use style="stroke:#000000;stroke-width:0.8;" x="212.918611" xlink:href="#m7919c57956" y="307.584"/>
      </g>
     </g>
     <g id="text_3">
      <!-- 20 -->
      <defs>
       <path d="M 19.1875 8.296875 
L 53.609375 8.296875 
L 53.609375 0 
L 7.328125 0 
L 7.328125 8.296875 
Q 12.9375 14.109375 22.625 23.890625 
Q 32.328125 33.6875 34.8125 36.53125 
Q 39.546875 41.84375 41.421875 45.53125 
Q 43.3125 49.21875 43.3125 52.78125 
Q 43.3125 58.59375 39.234375 62.25 
Q 35.15625 65.921875 28.609375 65.921875 
Q 23.96875 65.921875 18.8125 64.3125 
Q 13.671875 62.703125 7.8125 59.421875 
L 7.8125 69.390625 
Q 13.765625 71.78125 18.9375 73 
Q 24.125 74.21875 28.421875 74.21875 
Q 39.75 74.21875 46.484375 68.546875 
Q 53.21875 62.890625 53.21875 53.421875 
Q 53.21875 48.921875 51.53125 44.890625 
Q 49.859375 40.875 45.40625 35.40625 
Q 44.1875 33.984375 37.640625 27.21875 
Q 31.109375 20.453125 19.1875 8.296875 
z
" id="DejaVuSans-50"/>
      </defs>
      <g transform="translate(205.283611 326.202125)scale(0.12 -0.12)">
       <use xlink:href="#DejaVuSans-50"/>
       <use x="63.623047" xlink:href="#DejaVuSans-48"/>
      </g>
     </g>
    </g>
   </g>
   <g id="matplotlib.axis_2">
    <g id="ytick_1">
     <g id="line2d_4">
      <defs>
       <path d="M 0 0 
L -6 0 
" id="m524bb9f63b" style="stroke:#000000;stroke-width:0.8;"/>
      </defs>
      <g>
       <use style="stroke:#000000;stroke-width:0.8;" x="57.6" xlink:href="#m524bb9f63b" y="295.204823"/>
      </g>
     </g>
     <g id="text_4">
      <!-- −1.0 -->
      <defs>
       <path d="M 10.59375 35.5 
L 73.1875 35.5 
L 73.1875 27.203125 
L 10.59375 27.203125 
z
" id="DejaVuSans-8722"/>
       <path d="M 10.6875 12.40625 
L 21 12.40625 
L 21 0 
L 10.6875 0 
z
" id="DejaVuSans-46"/>
      </defs>
      <g transform="translate(18.960625 299.763885)scale(0.12 -0.12)">
       <use xlink:href="#DejaVuSans-8722"/>
       <use x="83.789062" xlink:href="#DejaVuSans-49"/>
       <use x="147.412109" xlink:href="#DejaVuSans-46"/>
       <use x="179.199219" xlink:href="#DejaVuSans-48"/>
      </g>
     </g>
    </g>
    <g id="ytick_2">
     <g id="line2d_5">
      <g>
       <use style="stroke:#000000;stroke-width:0.8;" x="57.6" xlink:href="#m524bb9f63b" y="260.378045"/>
      </g>
     </g>
     <g id="text_5">
      <!-- −0.5 -->
      <defs>
       <path d="M 10.796875 72.90625 
L 49.515625 72.90625 
L 49.515625 64.59375 
L 19.828125 64.59375 
L 19.828125 46.734375 
Q 21.96875 47.46875 24.109375 47.828125 
Q 26.265625 48.1875 28.421875 48.1875 
Q 40.625 48.1875 47.75 41.5 
Q 54.890625 34.8125 54.890625 23.390625 
Q 54.890625 11.625 47.5625 5.09375 
Q 40.234375 -1.421875 26.90625 -1.421875 
Q 22.3125 -1.421875 17.546875 -0.640625 
Q 12.796875 0.140625 7.71875 1.703125 
L 7.71875 11.625 
Q 12.109375 9.234375 16.796875 8.0625 
Q 21.484375 6.890625 26.703125 6.890625 
Q 35.15625 6.890625 40.078125 11.328125 
Q 45.015625 15.765625 45.015625 23.390625 
Q 45.015625 31 40.078125 35.4375 
Q 35.15625 39.890625 26.703125 39.890625 
Q 22.75 39.890625 18.8125 39.015625 
Q 14.890625 38.140625 10.796875 36.28125 
z
" id="DejaVuSans-53"/>
      </defs>
      <g transform="translate(18.960625 264.937108)scale(0.12 -0.12)">
       <use xlink:href="#DejaVuSans-8722"/>
       <use x="83.789062" xlink:href="#DejaVuSans-48"/>
       <use x="147.412109" xlink:href="#DejaVuSans-46"/>
       <use x="179.199219" xlink:href="#DejaVuSans-53"/>
      </g>
     </g>
    </g>
    <g id="ytick_3">
     <g id="line2d_6">
      <g>
       <use style="stroke:#000000;stroke-width:0.8;" x="57.6" xlink:href="#m524bb9f63b" y="225.551268"/>
      </g>
     </g>
     <g id="text_6">
      <!-- 0.0 -->
      <g transform="translate(29.01625 230.11033)scale(0.12 -0.12)">
       <use xlink:href="#DejaVuSans-48"/>
       <use x="63.623047" xlink:href="#DejaVuSans-46"/>
       <use x="95.410156" xlink:href="#DejaVuSans-48"/>
      </g>
     </g>
    </g>
    <g id="ytick_4">
     <g id="line2d_7">
      <g>
       <use style="stroke:#000000;stroke-width:0.8;" x="57.6" xlink:href="#m524bb9f63b" y="190.724491"/>
      </g>
     </g>
     <g id="text_7">
      <!-- 0.5 -->
      <g transform="translate(29.01625 195.283553)scale(0.12 -0.12)">
       <use xlink:href="#DejaVuSans-48"/>
       <use x="63.623047" xlink:href="#DejaVuSans-46"/>
       <use x="95.410156" xlink:href="#DejaVuSans-53"/>
      </g>
     </g>
    </g>
    <g id="ytick_5">
     <g id="line2d_8">
      <g>
       <use style="stroke:#000000;stroke-width:0.8;" x="57.6" xlink:href="#m524bb9f63b" y="155.897713"/>
      </g>
     </g>
     <g id="text_8">
      <!-- 1.0 -->
      <g transform="translate(29.01625 160.456776)scale(0.12 -0.12)">
       <use xlink:href="#DejaVuSans-49"/>
       <use x="63.623047" xlink:href="#DejaVuSans-46"/>
       <use x="95.410156" xlink:href="#DejaVuSans-48"/>
      </g>
     </g>
    </g>
    <g id="ytick_6">
     <g id="line2d_9">
      <g>
       <use style="stroke:#000000;stroke-width:0.8;" x="57.6" xlink:href="#m524bb9f63b" y="121.070936"/>
      </g>
     </g>
     <g id="text_9">
      <!-- 1.5 -->
      <g transform="translate(29.01625 125.629998)scale(0.12 -0.12)">
       <use xlink:href="#DejaVuSans-49"/>
       <use x="63.623047" xlink:href="#DejaVuSans-46"/>
       <use x="95.410156" xlink:href="#DejaVuSans-53"/>
      </g>
     </g>
    </g>
    <g id="ytick_7">
     <g id="line2d_10">
      <g>
       <use style="stroke:#000000;stroke-width:0.8;" x="57.6" xlink:href="#m524bb9f63b" y="86.244158"/>
      </g>
     </g>
     <g id="text_10">
      <!-- 2.0 -->
      <g transform="translate(29.01625 90.803221)scale(0.12 -0.12)">
       <use xlink:href="#DejaVuSans-50"/>
       <use x="63.623047" xlink:href="#DejaVuSans-46"/>
       <use x="95.410156" xlink:href="#DejaVuSans-48"/>
      </g>
     </g>
    </g>
    <g id="ytick_8">
     <g id="line2d_11">
      <g>
       <use style="stroke:#000000;stroke-width:0.8;" x="57.6" xlink:href="#m524bb9f63b" y="51.417381"/>
      </g>
     </g>
     <g id="text_11">
      <!-- 2.5 -->
      <g transform="translate(29.01625 55.976443)scale(0.12 -0.12)">
       <use xlink:href="#DejaVuSans-50"/>
       <use x="63.623047" xlink:href="#DejaVuSans-46"/>
       <use x="95.410156" xlink:href="#DejaVuSans-53"/>
      </g>
     </g>
    </g>
   </g>
   <g id="line2d_12">
    <path clip-path="url(#p84d3f895ef)" d="M 64.978512 218.476089 
L 65.348363 222.108291 
L 65.718213 168.188571 
L 66.088063 205.887249 
L 66.457913 190.425668 
L 66.827764 160.505507 
L 67.197614 230.754764 
L 67.567464 221.911079 
L 67.937314 160.318484 
L 68.307165 210.050098 
L 69.046865 164.50118 
L 69.416715 165.102125 
L 69.786566 144.011177 
L 70.156416 146.500687 
L 70.526266 152.592195 
L 70.896116 188.388068 
L 71.265967 153.060083 
L 71.635817 160.661424 
L 72.005667 192.637465 
L 72.375517 133.144634 
L 72.745368 143.875915 
L 73.115218 157.927809 
L 73.485068 162.038627 
L 73.854918 180.656157 
L 74.224769 150.057831 
L 74.594619 143.214503 
L 74.964469 169.314599 
L 75.334319 126.7748 
L 75.70417 173.272648 
L 76.07402 194.167822 
L 76.44387 127.708788 
L 76.81372 157.669435 
L 77.18357 151.853896 
L 77.923271 183.25783 
L 78.293121 123.967211 
L 78.662971 165.25814 
L 79.032822 116.990224 
L 79.402672 135.82689 
L 80.142372 177.867026 
L 80.512223 171.954893 
L 80.882073 183.609947 
L 81.251923 116.429891 
L 81.621773 158.516299 
L 81.991624 139.963287 
L 82.361474 192.656141 
L 82.731324 164.689822 
L 83.101174 146.276935 
L 83.471025 180.41793 
L 83.840875 154.503384 
L 84.210725 201.442013 
L 84.580575 210.08894 
L 84.950426 176.570884 
L 85.320276 195.397683 
L 85.690126 177.099938 
L 86.059976 234.946722 
L 86.429827 181.883454 
L 86.799677 145.664643 
L 87.169527 203.698704 
L 87.539377 205.720394 
L 87.909228 205.947588 
L 88.279078 251.880309 
L 88.648928 207.338963 
L 89.018778 253.051749 
L 89.388629 231.684234 
L 89.758479 199.991277 
L 90.128329 244.504431 
L 90.498179 221.801595 
L 90.86803 214.195058 
L 91.23788 232.553255 
L 91.60773 269.976652 
L 91.97758 251.150985 
L 92.347431 206.04916 
L 92.717281 292.005986 
L 93.087131 258.051177 
L 93.456981 266.316537 
L 94.566532 227.933085 
L 94.936382 269.195835 
L 95.306233 248.437665 
L 95.676083 256.690702 
L 96.045933 258.79493 
L 96.415783 281.912594 
L 96.785634 292.234961 
L 97.155484 295.488 
L 97.525334 289.251759 
L 97.895184 267.501312 
L 98.265034 258.932407 
L 98.634885 268.513804 
L 99.004735 287.012 
L 99.374585 237.898294 
L 99.744435 243.818858 
L 100.114286 282.70151 
L 100.484136 292.083928 
L 101.223836 247.022883 
L 101.593687 265.607187 
L 101.963537 259.818007 
L 102.333387 274.5994 
L 102.703237 259.189297 
L 103.073088 234.843282 
L 103.442938 270.363251 
L 103.812788 260.443671 
L 104.182638 256.068057 
L 104.552489 253.231768 
L 104.922339 286.312233 
L 105.292189 293.542743 
L 105.662039 273.015767 
L 106.03189 245.462236 
L 106.40174 234.544224 
L 106.77159 254.242817 
L 107.14144 211.307694 
L 107.511291 239.916051 
L 107.881141 233.2485 
L 108.250991 234.394008 
L 108.620841 224.135116 
L 108.990692 208.744742 
L 109.360542 206.028732 
L 109.730392 235.135922 
L 110.100242 180.907753 
L 110.470093 231.98028 
L 110.839943 203.772085 
L 111.209793 207.476044 
L 111.579643 219.970876 
L 111.949494 195.932569 
L 112.319344 206.16633 
L 112.689194 185.506445 
L 113.059044 174.979599 
L 113.428895 149.055018 
L 114.168595 185.550886 
L 114.538445 177.534616 
L 114.908296 163.069417 
L 115.278146 160.762902 
L 115.647996 129.023673 
L 116.017846 127.266923 
L 116.387697 160.926327 
L 116.757547 161.999785 
L 117.127397 201.19143 
L 117.497247 156.573846 
L 117.867097 163.01256 
L 118.606798 129.738892 
L 119.346498 134.466964 
L 119.716349 127.856395 
L 120.086199 133.004829 
L 120.456049 124.755215 
L 120.825899 195.054451 
L 121.19575 131.997376 
L 121.5656 127.687148 
L 121.93545 131.672923 
L 122.3053 128.439244 
L 122.675151 108.704896 
L 123.045001 135.58949 
L 123.414851 76.96965 
L 123.784701 108.611109 
L 124.154552 123.33704 
L 124.524402 127.907352 
L 124.894252 125.951343 
L 125.264102 143.992984 
L 125.633953 127.74585 
L 126.373653 115.914182 
L 126.743503 117.282379 
L 127.113354 136.663884 
L 127.483204 162.183766 
L 127.853054 148.392102 
L 128.222904 102.678283 
L 129.332455 158.922004 
L 129.702305 145.392738 
L 130.072156 174.271166 
L 130.442006 162.231493 
L 130.811856 158.582171 
L 131.181706 163.862667 
L 131.551557 139.243613 
L 131.921407 191.877387 
L 132.291257 183.378222 
L 132.661107 197.137713 
L 133.030958 197.433246 
L 133.400808 172.189244 
L 133.770658 211.458803 
L 134.140508 165.519034 
L 134.510359 189.698445 
L 134.880209 186.376915 
L 135.250059 184.342699 
L 135.619909 203.411537 
L 135.98976 175.998536 
L 136.35961 204.838085 
L 136.72946 191.528261 
L 137.09931 211.220252 
L 137.469161 204.043421 
L 138.208861 210.822669 
L 138.578711 239.251947 
L 138.948561 212.54405 
L 139.318412 230.981767 
L 139.688262 213.704887 
L 140.058112 274.312215 
L 140.427962 262.287218 
L 141.167663 197.049558 
L 141.537513 220.483049 
L 141.907363 254.009046 
L 142.277214 276.777637 
L 142.647064 227.424245 
L 143.016914 245.997252 
L 143.386764 233.182801 
L 143.756615 244.169068 
L 144.126465 246.847295 
L 144.496315 186.364891 
L 144.866165 248.869552 
L 145.236016 252.451215 
L 145.605866 251.871316 
L 145.975716 261.563736 
L 146.345566 228.542912 
L 146.715417 256.313453 
L 147.085267 235.147423 
L 147.455117 241.830635 
L 147.824967 221.475279 
L 148.194818 237.166285 
L 148.564668 270.131959 
L 148.934518 271.159878 
L 149.304368 212.513361 
L 149.674219 253.00358 
L 150.044069 266.06407 
L 150.413919 250.493405 
L 150.783769 207.959636 
L 151.15362 261.803264 
L 151.52347 247.835679 
L 151.89332 241.133272 
L 152.26317 250.687985 
L 152.633021 246.513501 
L 153.002871 250.596562 
L 153.372721 225.511822 
L 153.742571 220.191118 
L 154.112422 223.843967 
L 154.482272 240.858111 
L 154.852122 176.754985 
L 155.221972 227.289328 
L 155.591823 190.216663 
L 155.961673 214.940369 
L 156.331523 174.926453 
L 156.701373 165.290806 
L 157.071224 199.946079 
L 157.441074 218.128749 
L 157.810924 159.703144 
L 158.180774 131.354363 
L 158.550624 158.179543 
L 158.920475 159.840427 
L 159.290325 142.417848 
L 159.660175 139.945219 
L 160.030025 169.679002 
L 160.399876 162.603327 
L 160.769726 132.589853 
L 161.139576 144.96468 
L 161.509426 111.112076 
L 161.879277 150.091475 
L 162.249127 116.526798 
L 162.988827 128.824789 
L 163.358678 98.757907 
L 163.728528 106.382643 
L 164.098378 138.979858 
L 164.468228 102.117377 
L 164.838079 84.41355 
L 165.207929 113.661181 
L 165.577779 114.066222 
L 165.947629 120.947755 
L 166.68733 89.250221 
L 167.05718 119.232418 
L 167.42703 129.001489 
L 167.796881 107.608121 
L 168.166731 127.644988 
L 168.536581 87.109751 
L 168.906431 106.360353 
L 169.276282 133.699903 
L 169.646132 104.052106 
L 170.015982 100.715231 
L 170.385832 87.401676 
L 170.755683 100.093869 
L 171.125533 58.448604 
L 171.495383 108.94797 
L 171.865233 100.192566 
L 172.235084 101.984338 
L 172.604934 106.847726 
L 173.344634 92.323008 
L 173.714485 77.204768 
L 174.084335 139.721029 
L 174.454185 119.458511 
L 174.824035 120.152851 
L 175.193886 93.332352 
L 175.933586 157.169924 
L 176.303436 118.227279 
L 176.673287 123.363227 
L 177.043137 121.601352 
L 177.412987 149.883141 
L 177.782837 95.101822 
L 178.152688 140.742309 
L 178.522538 140.930677 
L 178.892388 158.884751 
L 179.262238 162.667263 
L 179.632088 171.942661 
L 180.001939 157.826148 
L 180.371789 172.859809 
L 180.741639 113.139415 
L 181.111489 198.845017 
L 181.85119 174.309319 
L 182.22104 155.09755 
L 182.59089 181.041647 
L 182.960741 161.462438 
L 183.330591 199.357664 
L 183.700441 180.598201 
L 184.070291 148.434968 
L 184.440142 208.075514 
L 184.809992 181.986569 
L 185.179842 189.248085 
L 185.549692 243.34864 
L 186.289393 177.821943 
L 186.659243 201.051833 
L 187.029093 231.504281 
L 187.398944 193.912383 
L 187.768794 220.403101 
L 188.138644 204.776569 
L 188.508494 206.192159 
L 188.878345 239.066994 
L 189.248195 200.658385 
L 189.618045 239.533159 
L 189.987895 246.925142 
L 190.357746 239.084414 
L 191.097446 219.848556 
L 191.467296 238.774307 
L 191.837147 207.390924 
L 192.206997 217.85182 
L 192.576847 237.603139 
L 192.946697 204.312266 
L 193.316548 198.257033 
L 193.686398 224.037333 
L 194.056248 225.751109 
L 194.426098 257.435699 
L 194.795949 227.828457 
L 195.165799 224.17885 
L 195.535649 211.56931 
L 195.905499 218.663254 
L 196.27535 208.332753 
L 196.6452 179.508533 
L 197.01505 220.620158 
L 197.3849 217.642023 
L 197.754751 232.433066 
L 198.494451 179.649766 
L 198.864301 233.953915 
L 199.234151 208.460728 
L 199.973852 170.820642 
L 200.343702 177.451833 
L 200.713552 175.428339 
L 201.083403 183.610039 
L 201.823103 150.895853 
L 202.192953 204.292548 
L 202.562804 149.79697 
L 202.932654 163.48034 
L 203.302504 168.852974 
L 203.672354 205.164667 
L 204.042205 179.276305 
L 204.412055 111.259412 
L 204.781905 157.439973 
L 205.151755 162.038048 
L 205.521606 145.244242 
L 205.891456 147.639562 
L 206.261306 125.867154 
L 206.631156 93.20697 
L 207.001007 133.655233 
L 207.370857 114.724498 
L 207.740707 138.54045 
L 208.110557 79.497157 
L 208.850258 127.516453 
L 209.220108 82.982161 
L 209.589958 73.876921 
L 209.959809 92.763694 
L 210.329659 127.698728 
L 210.699509 53.568 
L 211.069359 81.950739 
L 211.43921 61.669686 
L 211.80906 95.477233 
L 212.17891 90.2801 
L 212.54876 77.778142 
L 212.54876 77.778142 
" style="fill:none;stroke:#1f77b4;stroke-linecap:square;stroke-width:1.5;"/>
   </g>
   <g id="patch_3">
    <path d="M 57.6 307.584 
L 57.6 41.472 
" style="fill:none;stroke:#000000;stroke-linecap:square;stroke-linejoin:miter;stroke-width:0.8;"/>
   </g>
   <g id="patch_4">
    <path d="M 219.927273 307.584 
L 219.927273 41.472 
" style="fill:none;stroke:#000000;stroke-linecap:square;stroke-linejoin:miter;stroke-width:0.8;"/>
   </g>
   <g id="patch_5">
    <path d="M 57.6 307.584 
L 219.927273 307.584 
" style="fill:none;stroke:#000000;stroke-linecap:square;stroke-linejoin:miter;stroke-width:0.8;"/>
   </g>
   <g id="patch_6">
    <path d="M 57.6 41.472 
L 219.927273 41.472 
" style="fill:none;stroke:#000000;stroke-linecap:square;stroke-linejoin:miter;stroke-width:0.8;"/>
   </g>
  </g>
  <g id="axes_2">
   <g id="patch_7">
    <path d="M 252.392727 307.584 
L 414.72 307.584 
L 414.72 41.472 
L 252.392727 41.472 
z
" style="fill:#ffffff;"/>
   </g>
   <g id="matplotlib.axis_3">
    <g id="xtick_4">
     <g id="line2d_13">
      <g>
       <use style="stroke:#000000;stroke-width:0.8;" x="259.77124" xlink:href="#m7919c57956" y="307.584"/>
      </g>
     </g>
     <g id="text_12">
      <!-- 0 -->
      <g transform="translate(255.95374 326.202125)scale(0.12 -0.12)">
       <use xlink:href="#DejaVuSans-48"/>
      </g>
     </g>
    </g>
    <g id="xtick_5">
     <g id="line2d_14">
      <g>
       <use style="stroke:#000000;stroke-width:0.8;" x="333.741289" xlink:href="#m7919c57956" y="307.584"/>
      </g>
     </g>
     <g id="text_13">
      <!-- 10 -->
      <g transform="translate(326.106289 326.202125)scale(0.12 -0.12)">
       <use xlink:href="#DejaVuSans-49"/>
       <use x="63.623047" xlink:href="#DejaVuSans-48"/>
      </g>
     </g>
    </g>
    <g id="xtick_6">
     <g id="line2d_15">
      <g>
       <use style="stroke:#000000;stroke-width:0.8;" x="407.711338" xlink:href="#m7919c57956" y="307.584"/>
      </g>
     </g>
     <g id="text_14">
      <!-- 20 -->
      <g transform="translate(400.076338 326.202125)scale(0.12 -0.12)">
       <use xlink:href="#DejaVuSans-50"/>
       <use x="63.623047" xlink:href="#DejaVuSans-48"/>
      </g>
     </g>
    </g>
   </g>
   <g id="matplotlib.axis_4">
    <g id="ytick_9">
     <g id="line2d_16">
      <g>
       <use style="stroke:#000000;stroke-width:0.8;" x="252.392727" xlink:href="#m524bb9f63b" y="295.489185"/>
      </g>
     </g>
     <g id="text_15">
      <!-- −1.00 -->
      <g transform="translate(206.118352 300.048247)scale(0.12 -0.12)">
       <use xlink:href="#DejaVuSans-8722"/>
       <use x="83.789062" xlink:href="#DejaVuSans-49"/>
       <use x="147.412109" xlink:href="#DejaVuSans-46"/>
       <use x="179.199219" xlink:href="#DejaVuSans-48"/>
       <use x="242.822266" xlink:href="#DejaVuSans-48"/>
      </g>
     </g>
    </g>
    <g id="ytick_10">
     <g id="line2d_17">
      <g>
       <use style="stroke:#000000;stroke-width:0.8;" x="252.392727" xlink:href="#m524bb9f63b" y="265.248917"/>
      </g>
     </g>
     <g id="text_16">
      <!-- −0.75 -->
      <defs>
       <path d="M 8.203125 72.90625 
L 55.078125 72.90625 
L 55.078125 68.703125 
L 28.609375 0 
L 18.3125 0 
L 43.21875 64.59375 
L 8.203125 64.59375 
z
" id="DejaVuSans-55"/>
      </defs>
      <g transform="translate(206.118352 269.807979)scale(0.12 -0.12)">
       <use xlink:href="#DejaVuSans-8722"/>
       <use x="83.789062" xlink:href="#DejaVuSans-48"/>
       <use x="147.412109" xlink:href="#DejaVuSans-46"/>
       <use x="179.199219" xlink:href="#DejaVuSans-55"/>
       <use x="242.822266" xlink:href="#DejaVuSans-53"/>
      </g>
     </g>
    </g>
    <g id="ytick_11">
     <g id="line2d_18">
      <g>
       <use style="stroke:#000000;stroke-width:0.8;" x="252.392727" xlink:href="#m524bb9f63b" y="235.008649"/>
      </g>
     </g>
     <g id="text_17">
      <!-- −0.50 -->
      <g transform="translate(206.118352 239.567711)scale(0.12 -0.12)">
       <use xlink:href="#DejaVuSans-8722"/>
       <use x="83.789062" xlink:href="#DejaVuSans-48"/>
       <use x="147.412109" xlink:href="#DejaVuSans-46"/>
       <use x="179.199219" xlink:href="#DejaVuSans-53"/>
       <use x="242.822266" xlink:href="#DejaVuSans-48"/>
      </g>
     </g>
    </g>
    <g id="ytick_12">
     <g id="line2d_19">
      <g>
       <use style="stroke:#000000;stroke-width:0.8;" x="252.392727" xlink:href="#m524bb9f63b" y="204.768381"/>
      </g>
     </g>
     <g id="text_18">
      <!-- −0.25 -->
      <g transform="translate(206.118352 209.327443)scale(0.12 -0.12)">
       <use xlink:href="#DejaVuSans-8722"/>
       <use x="83.789062" xlink:href="#DejaVuSans-48"/>
       <use x="147.412109" xlink:href="#DejaVuSans-46"/>
       <use x="179.199219" xlink:href="#DejaVuSans-50"/>
       <use x="242.822266" xlink:href="#DejaVuSans-53"/>
      </g>
     </g>
    </g>
    <g id="ytick_13">
     <g id="line2d_20">
      <g>
       <use style="stroke:#000000;stroke-width:0.8;" x="252.392727" xlink:href="#m524bb9f63b" y="174.528113"/>
      </g>
     </g>
     <g id="text_19">
      <!-- 0.00 -->
      <g transform="translate(216.173977 179.087175)scale(0.12 -0.12)">
       <use xlink:href="#DejaVuSans-48"/>
       <use x="63.623047" xlink:href="#DejaVuSans-46"/>
       <use x="95.410156" xlink:href="#DejaVuSans-48"/>
       <use x="159.033203" xlink:href="#DejaVuSans-48"/>
      </g>
     </g>
    </g>
    <g id="ytick_14">
     <g id="line2d_21">
      <g>
       <use style="stroke:#000000;stroke-width:0.8;" x="252.392727" xlink:href="#m524bb9f63b" y="144.287845"/>
      </g>
     </g>
     <g id="text_20">
      <!-- 0.25 -->
      <g transform="translate(216.173977 148.846907)scale(0.12 -0.12)">
       <use xlink:href="#DejaVuSans-48"/>
       <use x="63.623047" xlink:href="#DejaVuSans-46"/>
       <use x="95.410156" xlink:href="#DejaVuSans-50"/>
       <use x="159.033203" xlink:href="#DejaVuSans-53"/>
      </g>
     </g>
    </g>
    <g id="ytick_15">
     <g id="line2d_22">
      <g>
       <use style="stroke:#000000;stroke-width:0.8;" x="252.392727" xlink:href="#m524bb9f63b" y="114.047577"/>
      </g>
     </g>
     <g id="text_21">
      <!-- 0.50 -->
      <g transform="translate(216.173977 118.60664)scale(0.12 -0.12)">
       <use xlink:href="#DejaVuSans-48"/>
       <use x="63.623047" xlink:href="#DejaVuSans-46"/>
       <use x="95.410156" xlink:href="#DejaVuSans-53"/>
       <use x="159.033203" xlink:href="#DejaVuSans-48"/>
      </g>
     </g>
    </g>
    <g id="ytick_16">
     <g id="line2d_23">
      <g>
       <use style="stroke:#000000;stroke-width:0.8;" x="252.392727" xlink:href="#m524bb9f63b" y="83.807309"/>
      </g>
     </g>
     <g id="text_22">
      <!-- 0.75 -->
      <g transform="translate(216.173977 88.366372)scale(0.12 -0.12)">
       <use xlink:href="#DejaVuSans-48"/>
       <use x="63.623047" xlink:href="#DejaVuSans-46"/>
       <use x="95.410156" xlink:href="#DejaVuSans-55"/>
       <use x="159.033203" xlink:href="#DejaVuSans-53"/>
      </g>
     </g>
    </g>
    <g id="ytick_17">
     <g id="line2d_24">
      <g>
       <use style="stroke:#000000;stroke-width:0.8;" x="252.392727" xlink:href="#m524bb9f63b" y="53.567041"/>
      </g>
     </g>
     <g id="text_23">
      <!-- 1.00 -->
      <g transform="translate(216.173977 58.126104)scale(0.12 -0.12)">
       <use xlink:href="#DejaVuSans-49"/>
       <use x="63.623047" xlink:href="#DejaVuSans-46"/>
       <use x="95.410156" xlink:href="#DejaVuSans-48"/>
       <use x="159.033203" xlink:href="#DejaVuSans-48"/>
      </g>
     </g>
    </g>
   </g>
   <g id="line2d_25">
    <path clip-path="url(#p74bf580e81)" d="M 259.77124 174.528113 
L 263.099892 121.914216 
L 264.949143 96.602851 
L 266.428544 79.77605 
L 267.538095 69.60367 
L 268.647646 61.787666 
L 269.387346 57.975082 
L 270.127047 55.327057 
L 270.496897 54.448486 
L 270.866747 53.87005 
L 271.236597 53.593197 
L 271.606448 53.618619 
L 271.976298 53.946251 
L 272.346148 54.575275 
L 273.085849 56.73046 
L 273.825549 60.06264 
L 274.565249 64.538522 
L 275.6748 73.295938 
L 276.784351 84.326811 
L 278.263752 102.136281 
L 279.743153 122.831785 
L 281.962254 157.458085 
L 286.400457 228.05586 
L 288.249709 253.228427 
L 289.72911 269.908973 
L 290.83866 279.954852 
L 291.948211 287.633075 
L 292.687912 291.349057 
L 293.427612 293.897804 
L 293.797462 294.726042 
L 294.167312 295.253847 
L 294.537163 295.479902 
L 294.907013 295.40364 
L 295.276863 295.025252 
L 295.646713 294.345683 
L 296.386414 292.09055 
L 297.126114 288.660771 
L 297.865815 284.090617 
L 298.975366 275.200075 
L 300.084916 264.048658 
L 301.564317 246.102664 
L 303.043718 225.303218 
L 305.26282 190.590765 
L 309.701023 120.090299 
L 311.180424 99.715368 
L 312.659825 82.322985 
L 313.769376 71.658388 
L 314.878926 63.304023 
L 315.618627 59.112832 
L 316.358327 56.074832 
L 317.098028 54.220379 
L 317.467878 53.74324 
L 317.837728 53.568 
L 318.207578 53.695098 
L 318.577429 54.124215 
L 318.947279 54.854279 
L 319.686979 57.209202 
L 320.42668 60.736337 
L 321.16638 65.400441 
L 322.275931 74.42348 
L 323.385482 85.694653 
L 324.864883 103.775902 
L 326.344284 124.677819 
L 328.563385 159.473972 
L 333.001588 229.872145 
L 334.480989 250.137328 
L 335.96039 267.388211 
L 337.069941 277.929197 
L 338.179492 286.148017 
L 338.919192 290.24371 
L 339.658893 293.183211 
L 340.398593 294.937149 
L 340.768443 295.363587 
L 341.138294 295.488 
L 341.508144 295.310076 
L 341.877994 294.83026 
L 342.247844 294.049751 
L 342.987545 291.595206 
L 343.727245 287.970964 
L 344.466946 283.21324 
L 345.576497 274.058342 
L 346.686047 262.668209 
L 348.165448 244.452982 
L 350.0147 217.859911 
L 352.603651 176.508232 
L 355.932303 123.704258 
L 357.781555 98.127771 
L 359.260956 81.019608 
L 360.370506 70.602979 
L 361.480057 62.520284 
L 362.219758 58.520379 
L 362.959458 55.679585 
L 363.699159 54.026286 
L 364.069009 53.650578 
L 364.438859 53.577001 
L 364.808709 53.805739 
L 365.17856 54.33622 
L 365.54841 55.167119 
L 366.28811 57.721113 
L 367.027811 61.442205 
L 367.767511 66.293214 
L 368.877062 75.579324 
L 369.986613 87.08761 
L 371.466014 105.435527 
L 373.315265 132.147305 
L 375.904217 173.564878 
L 379.232869 226.272999 
L 381.08212 251.714181 
L 382.561521 268.678415 
L 383.671072 278.969951 
L 384.780623 286.915949 
L 385.520323 290.819784 
L 386.260024 293.561671 
L 386.629874 294.48786 
L 386.999724 295.114213 
L 387.369574 295.439164 
L 387.739425 295.4619 
L 388.109275 295.182364 
L 388.479125 294.601255 
L 388.848975 293.720027 
L 389.588676 291.066763 
L 390.328376 287.249084 
L 391.068077 282.305134 
L 392.177628 272.888469 
L 393.287178 261.262841 
L 394.766579 242.783531 
L 396.61583 215.954936 
L 399.574632 168.428931 
L 402.533434 121.865852 
L 404.382686 96.561774 
L 405.862087 79.742669 
L 406.971637 69.576953 
L 407.341488 66.702361 
L 407.341488 66.702361 
" style="fill:none;stroke:#1f77b4;stroke-linecap:square;stroke-width:1.5;"/>
   </g>
   <g id="patch_8">
    <path d="M 252.392727 307.584 
L 252.392727 41.472 
" style="fill:none;stroke:#000000;stroke-linecap:square;stroke-linejoin:miter;stroke-width:0.8;"/>
   </g>
   <g id="patch_9">
    <path d="M 414.72 307.584 
L 414.72 41.472 
" style="fill:none;stroke:#000000;stroke-linecap:square;stroke-linejoin:miter;stroke-width:0.8;"/>
   </g>
   <g id="patch_10">
    <path d="M 252.392727 307.584 
L 414.72 307.584 
" style="fill:none;stroke:#000000;stroke-linecap:square;stroke-linejoin:miter;stroke-width:0.8;"/>
   </g>
   <g id="patch_11">
    <path d="M 252.392727 41.472 
L 414.72 41.472 
" style="fill:none;stroke:#000000;stroke-linecap:square;stroke-linejoin:miter;stroke-width:0.8;"/>
   </g>
  </g>
 </g>
 <defs>
  <clipPath id="p84d3f895ef">
   <rect height="266.112" width="162.327273" x="57.6" y="41.472"/>
  </clipPath>
  <clipPath id="p74bf580e81">
   <rect height="266.112" width="162.327273" x="252.392727" y="41.472"/>
  </clipPath>
 </defs>
</svg>
