<?xml version="1.0" encoding="utf-8" standalone="no"?>
<!DOCTYPE svg PUBLIC "-//W3C//DTD SVG 1.1//EN"
  "http://www.w3.org/Graphics/SVG/1.1/DTD/svg11.dtd">
<!-- Created with matplotlib (https://matplotlib.org/) -->
<svg height="345.6pt" version="1.1" viewBox="0 0 460.8 345.6" width="460.8pt" xmlns="http://www.w3.org/2000/svg" xmlns:xlink="http://www.w3.org/1999/xlink">
 <defs>
  <style type="text/css">
*{stroke-linecap:butt;stroke-linejoin:round;}
  </style>
 </defs>
 <g id="figure_1">
  <g id="patch_1">
   <path d="M 0 345.6 
L 460.8 345.6 
L 460.8 0 
L 0 0 
z
" style="fill:#ffffff;"/>
  </g>
  <g id="axes_1">
   <g id="patch_2">
    <path d="M 58.19475 300.39015 
L 236.898143 300.39015 
L 236.898143 26.8278 
L 58.19475 26.8278 
z
" style="fill:#ffffff;"/>
   </g>
   <g id="matplotlib.axis_1">
    <g id="xtick_1">
     <g id="line2d_1">
      <defs>
       <path d="M 0 0 
L 0 4.8 
" id="mea14188de1" style="stroke:#262626;"/>
      </defs>
      <g>
       <use style="fill:#262626;stroke:#262626;" x="66.317632" xlink:href="#mea14188de1" y="300.39015"/>
      </g>
     </g>
     <g id="text_1">
      <!-- 0 -->
      <defs>
       <path d="M 4.15625 35.296875 
Q 4.15625 48 6.765625 55.734375 
Q 9.375 63.484375 14.515625 67.671875 
Q 19.671875 71.875 27.484375 71.875 
Q 33.25 71.875 37.59375 69.546875 
Q 41.9375 67.234375 44.765625 62.859375 
Q 47.609375 58.5 49.21875 52.21875 
Q 50.828125 45.953125 50.828125 35.296875 
Q 50.828125 22.703125 48.234375 14.96875 
Q 45.65625 7.234375 40.5 3 
Q 35.359375 -1.21875 27.484375 -1.21875 
Q 17.140625 -1.21875 11.234375 6.203125 
Q 4.15625 15.140625 4.15625 35.296875 
z
M 13.1875 35.296875 
Q 13.1875 17.671875 17.3125 11.828125 
Q 21.4375 6 27.484375 6 
Q 33.546875 6 37.671875 11.859375 
Q 41.796875 17.71875 41.796875 35.296875 
Q 41.796875 52.984375 37.671875 58.78125 
Q 33.546875 64.59375 27.390625 64.59375 
Q 21.34375 64.59375 17.71875 59.46875 
Q 13.1875 52.9375 13.1875 35.296875 
z
" id="ArialMT-48"/>
      </defs>
      <g style="fill:#262626;" transform="translate(63.381457 316.2488)scale(0.1056 -0.1056)">
       <use xlink:href="#ArialMT-48"/>
      </g>
     </g>
    </g>
    <g id="xtick_2">
     <g id="line2d_2">
      <g>
       <use style="fill:#262626;stroke:#262626;" x="132.626868" xlink:href="#mea14188de1" y="300.39015"/>
      </g>
     </g>
     <g id="text_2">
      <!-- 20 -->
      <defs>
       <path d="M 50.34375 8.453125 
L 50.34375 0 
L 3.03125 0 
Q 2.9375 3.171875 4.046875 6.109375 
Q 5.859375 10.9375 9.828125 15.625 
Q 13.8125 20.3125 21.34375 26.46875 
Q 33.015625 36.03125 37.109375 41.625 
Q 41.21875 47.21875 41.21875 52.203125 
Q 41.21875 57.421875 37.46875 61 
Q 33.734375 64.59375 27.734375 64.59375 
Q 21.390625 64.59375 17.578125 60.78125 
Q 13.765625 56.984375 13.71875 50.25 
L 4.6875 51.171875 
Q 5.609375 61.28125 11.65625 66.578125 
Q 17.71875 71.875 27.9375 71.875 
Q 38.234375 71.875 44.234375 66.15625 
Q 50.25 60.453125 50.25 52 
Q 50.25 47.703125 48.484375 43.546875 
Q 46.734375 39.40625 42.65625 34.8125 
Q 38.578125 30.21875 29.109375 22.21875 
Q 21.1875 15.578125 18.9375 13.203125 
Q 16.703125 10.84375 15.234375 8.453125 
z
" id="ArialMT-50"/>
      </defs>
      <g style="fill:#262626;" transform="translate(126.754518 316.2488)scale(0.1056 -0.1056)">
       <use xlink:href="#ArialMT-50"/>
       <use x="55.615234" xlink:href="#ArialMT-48"/>
      </g>
     </g>
    </g>
    <g id="xtick_3">
     <g id="line2d_3">
      <g>
       <use style="fill:#262626;stroke:#262626;" x="198.936105" xlink:href="#mea14188de1" y="300.39015"/>
      </g>
     </g>
     <g id="text_3">
      <!-- 40 -->
      <defs>
       <path d="M 32.328125 0 
L 32.328125 17.140625 
L 1.265625 17.140625 
L 1.265625 25.203125 
L 33.9375 71.578125 
L 41.109375 71.578125 
L 41.109375 25.203125 
L 50.78125 25.203125 
L 50.78125 17.140625 
L 41.109375 17.140625 
L 41.109375 0 
z
M 32.328125 25.203125 
L 32.328125 57.46875 
L 9.90625 25.203125 
z
" id="ArialMT-52"/>
      </defs>
      <g style="fill:#262626;" transform="translate(193.063755 316.2488)scale(0.1056 -0.1056)">
       <use xlink:href="#ArialMT-52"/>
       <use x="55.615234" xlink:href="#ArialMT-48"/>
      </g>
     </g>
    </g>
    <g id="text_4">
     <!-- Subject-Nr -->
     <defs>
      <path d="M 4.5 23 
L 13.421875 23.78125 
Q 14.0625 18.40625 16.375 14.96875 
Q 18.703125 11.53125 23.578125 9.40625 
Q 28.46875 7.28125 34.578125 7.28125 
Q 39.984375 7.28125 44.140625 8.890625 
Q 48.296875 10.5 50.3125 13.296875 
Q 52.34375 16.109375 52.34375 19.4375 
Q 52.34375 22.796875 50.390625 25.3125 
Q 48.4375 27.828125 43.953125 29.546875 
Q 41.0625 30.671875 31.203125 33.03125 
Q 21.34375 35.40625 17.390625 37.5 
Q 12.25 40.1875 9.734375 44.15625 
Q 7.234375 48.140625 7.234375 53.078125 
Q 7.234375 58.5 10.296875 63.203125 
Q 13.375 67.921875 19.28125 70.359375 
Q 25.203125 72.796875 32.421875 72.796875 
Q 40.375 72.796875 46.453125 70.234375 
Q 52.546875 67.671875 55.8125 62.6875 
Q 59.078125 57.71875 59.328125 51.421875 
L 50.25 50.734375 
Q 49.515625 57.515625 45.28125 60.984375 
Q 41.0625 64.453125 32.8125 64.453125 
Q 24.21875 64.453125 20.28125 61.296875 
Q 16.359375 58.15625 16.359375 53.71875 
Q 16.359375 49.859375 19.140625 47.359375 
Q 21.875 44.875 33.421875 42.265625 
Q 44.96875 39.65625 49.265625 37.703125 
Q 55.515625 34.8125 58.484375 30.390625 
Q 61.46875 25.984375 61.46875 20.21875 
Q 61.46875 14.5 58.203125 9.4375 
Q 54.9375 4.390625 48.796875 1.578125 
Q 42.671875 -1.21875 35.015625 -1.21875 
Q 25.296875 -1.21875 18.71875 1.609375 
Q 12.15625 4.4375 8.421875 10.125 
Q 4.6875 15.828125 4.5 23 
z
" id="ArialMT-83"/>
      <path d="M 40.578125 0 
L 40.578125 7.625 
Q 34.515625 -1.171875 24.125 -1.171875 
Q 19.53125 -1.171875 15.546875 0.578125 
Q 11.578125 2.34375 9.640625 5 
Q 7.71875 7.671875 6.9375 11.53125 
Q 6.390625 14.109375 6.390625 19.734375 
L 6.390625 51.859375 
L 15.1875 51.859375 
L 15.1875 23.09375 
Q 15.1875 16.21875 15.71875 13.8125 
Q 16.546875 10.359375 19.234375 8.375 
Q 21.921875 6.390625 25.875 6.390625 
Q 29.828125 6.390625 33.296875 8.421875 
Q 36.765625 10.453125 38.203125 13.9375 
Q 39.65625 17.4375 39.65625 24.078125 
L 39.65625 51.859375 
L 48.4375 51.859375 
L 48.4375 0 
z
" id="ArialMT-117"/>
      <path d="M 14.703125 0 
L 6.546875 0 
L 6.546875 71.578125 
L 15.328125 71.578125 
L 15.328125 46.046875 
Q 20.90625 53.03125 29.546875 53.03125 
Q 34.328125 53.03125 38.59375 51.09375 
Q 42.875 49.171875 45.625 45.671875 
Q 48.390625 42.1875 49.953125 37.25 
Q 51.515625 32.328125 51.515625 26.703125 
Q 51.515625 13.375 44.921875 6.09375 
Q 38.328125 -1.171875 29.109375 -1.171875 
Q 19.921875 -1.171875 14.703125 6.5 
z
M 14.59375 26.3125 
Q 14.59375 17 17.140625 12.84375 
Q 21.296875 6.0625 28.375 6.0625 
Q 34.125 6.0625 38.328125 11.0625 
Q 42.53125 16.0625 42.53125 25.984375 
Q 42.53125 36.140625 38.5 40.96875 
Q 34.46875 45.796875 28.765625 45.796875 
Q 23 45.796875 18.796875 40.796875 
Q 14.59375 35.796875 14.59375 26.3125 
z
" id="ArialMT-98"/>
      <path d="M 6.546875 61.375 
L 6.546875 71.578125 
L 15.328125 71.578125 
L 15.328125 61.375 
z
M -4.59375 -20.125 
L -2.9375 -12.640625 
Q -0.296875 -13.328125 1.21875 -13.328125 
Q 3.90625 -13.328125 5.21875 -11.546875 
Q 6.546875 -9.765625 6.546875 -2.640625 
L 6.546875 51.859375 
L 15.328125 51.859375 
L 15.328125 -2.828125 
Q 15.328125 -12.40625 12.84375 -16.15625 
Q 9.671875 -21.046875 2.296875 -21.046875 
Q -1.265625 -21.046875 -4.59375 -20.125 
z
" id="ArialMT-106"/>
      <path d="M 42.09375 16.703125 
L 51.171875 15.578125 
Q 49.03125 7.625 43.21875 3.21875 
Q 37.40625 -1.171875 28.375 -1.171875 
Q 17 -1.171875 10.328125 5.828125 
Q 3.65625 12.84375 3.65625 25.484375 
Q 3.65625 38.578125 10.390625 45.796875 
Q 17.140625 53.03125 27.875 53.03125 
Q 38.28125 53.03125 44.875 45.953125 
Q 51.46875 38.875 51.46875 26.03125 
Q 51.46875 25.25 51.421875 23.6875 
L 12.75 23.6875 
Q 13.234375 15.140625 17.578125 10.59375 
Q 21.921875 6.0625 28.421875 6.0625 
Q 33.25 6.0625 36.671875 8.59375 
Q 40.09375 11.140625 42.09375 16.703125 
z
M 13.234375 30.90625 
L 42.1875 30.90625 
Q 41.609375 37.453125 38.875 40.71875 
Q 34.671875 45.796875 27.984375 45.796875 
Q 21.921875 45.796875 17.796875 41.75 
Q 13.671875 37.703125 13.234375 30.90625 
z
" id="ArialMT-101"/>
      <path d="M 40.4375 19 
L 49.078125 17.875 
Q 47.65625 8.9375 41.8125 3.875 
Q 35.984375 -1.171875 27.484375 -1.171875 
Q 16.84375 -1.171875 10.375 5.78125 
Q 3.90625 12.75 3.90625 25.734375 
Q 3.90625 34.125 6.6875 40.421875 
Q 9.46875 46.734375 15.15625 49.875 
Q 20.84375 53.03125 27.546875 53.03125 
Q 35.984375 53.03125 41.359375 48.75 
Q 46.734375 44.484375 48.25 36.625 
L 39.703125 35.296875 
Q 38.484375 40.53125 35.375 43.15625 
Q 32.28125 45.796875 27.875 45.796875 
Q 21.234375 45.796875 17.078125 41.03125 
Q 12.9375 36.28125 12.9375 25.984375 
Q 12.9375 15.53125 16.9375 10.796875 
Q 20.953125 6.0625 27.390625 6.0625 
Q 32.5625 6.0625 36.03125 9.234375 
Q 39.5 12.40625 40.4375 19 
z
" id="ArialMT-99"/>
      <path d="M 25.78125 7.859375 
L 27.046875 0.09375 
Q 23.34375 -0.6875 20.40625 -0.6875 
Q 15.625 -0.6875 12.984375 0.828125 
Q 10.359375 2.34375 9.28125 4.8125 
Q 8.203125 7.28125 8.203125 15.1875 
L 8.203125 45.015625 
L 1.765625 45.015625 
L 1.765625 51.859375 
L 8.203125 51.859375 
L 8.203125 64.703125 
L 16.9375 69.96875 
L 16.9375 51.859375 
L 25.78125 51.859375 
L 25.78125 45.015625 
L 16.9375 45.015625 
L 16.9375 14.703125 
Q 16.9375 10.9375 17.40625 9.859375 
Q 17.875 8.796875 18.921875 8.15625 
Q 19.96875 7.515625 21.921875 7.515625 
Q 23.390625 7.515625 25.78125 7.859375 
z
" id="ArialMT-116"/>
      <path d="M 3.171875 21.484375 
L 3.171875 30.328125 
L 30.171875 30.328125 
L 30.171875 21.484375 
z
" id="ArialMT-45"/>
      <path d="M 7.625 0 
L 7.625 71.578125 
L 17.328125 71.578125 
L 54.9375 15.375 
L 54.9375 71.578125 
L 64.015625 71.578125 
L 64.015625 0 
L 54.296875 0 
L 16.703125 56.25 
L 16.703125 0 
z
" id="ArialMT-78"/>
      <path d="M 6.5 0 
L 6.5 51.859375 
L 14.40625 51.859375 
L 14.40625 44 
Q 17.4375 49.515625 20 51.265625 
Q 22.5625 53.03125 25.640625 53.03125 
Q 30.078125 53.03125 34.671875 50.203125 
L 31.640625 42.046875 
Q 28.421875 43.953125 25.203125 43.953125 
Q 22.3125 43.953125 20.015625 42.21875 
Q 17.71875 40.484375 16.75 37.40625 
Q 15.28125 32.71875 15.28125 27.15625 
L 15.28125 0 
z
" id="ArialMT-114"/>
     </defs>
     <g style="fill:#262626;" transform="translate(120.339447 330.7338)scale(0.1152 -0.1152)">
      <use xlink:href="#ArialMT-83"/>
      <use x="66.699219" xlink:href="#ArialMT-117"/>
      <use x="122.314453" xlink:href="#ArialMT-98"/>
      <use x="177.929688" xlink:href="#ArialMT-106"/>
      <use x="200.146484" xlink:href="#ArialMT-101"/>
      <use x="255.761719" xlink:href="#ArialMT-99"/>
      <use x="305.761719" xlink:href="#ArialMT-116"/>
      <use x="333.544922" xlink:href="#ArialMT-45"/>
      <use x="366.845703" xlink:href="#ArialMT-78"/>
      <use x="439.0625" xlink:href="#ArialMT-114"/>
     </g>
    </g>
   </g>
   <g id="matplotlib.axis_2">
    <g id="ytick_1">
     <g id="line2d_4">
      <defs>
       <path d="M 0 0 
L -4.8 0 
" id="maa733346ba" style="stroke:#262626;"/>
      </defs>
      <g>
       <use style="fill:#262626;stroke:#262626;" x="58.19475" xlink:href="#maa733346ba" y="271.947453"/>
      </g>
     </g>
     <g id="text_5">
      <!-- 12.5 -->
      <defs>
       <path d="M 37.25 0 
L 28.46875 0 
L 28.46875 56 
Q 25.296875 52.984375 20.140625 49.953125 
Q 14.984375 46.921875 10.890625 45.40625 
L 10.890625 53.90625 
Q 18.265625 57.375 23.78125 62.296875 
Q 29.296875 67.234375 31.59375 71.875 
L 37.25 71.875 
z
" id="ArialMT-49"/>
       <path d="M 9.078125 0 
L 9.078125 10.015625 
L 19.09375 10.015625 
L 19.09375 0 
z
" id="ArialMT-46"/>
       <path d="M 4.15625 18.75 
L 13.375 19.53125 
Q 14.40625 12.796875 18.140625 9.390625 
Q 21.875 6 27.15625 6 
Q 33.5 6 37.890625 10.78125 
Q 42.28125 15.578125 42.28125 23.484375 
Q 42.28125 31 38.0625 35.34375 
Q 33.84375 39.703125 27 39.703125 
Q 22.75 39.703125 19.328125 37.765625 
Q 15.921875 35.84375 13.96875 32.765625 
L 5.71875 33.84375 
L 12.640625 70.609375 
L 48.25 70.609375 
L 48.25 62.203125 
L 19.671875 62.203125 
L 15.828125 42.96875 
Q 22.265625 47.46875 29.34375 47.46875 
Q 38.71875 47.46875 45.15625 40.96875 
Q 51.609375 34.46875 51.609375 24.265625 
Q 51.609375 14.546875 45.953125 7.46875 
Q 39.0625 -1.21875 27.15625 -1.21875 
Q 17.390625 -1.21875 11.203125 4.25 
Q 5.03125 9.71875 4.15625 18.75 
z
" id="ArialMT-53"/>
      </defs>
      <g style="fill:#262626;" transform="translate(29.344 275.726778)scale(0.1056 -0.1056)">
       <use xlink:href="#ArialMT-49"/>
       <use x="55.615234" xlink:href="#ArialMT-50"/>
       <use x="111.230469" xlink:href="#ArialMT-46"/>
       <use x="139.013672" xlink:href="#ArialMT-53"/>
      </g>
     </g>
    </g>
    <g id="ytick_2">
     <g id="line2d_5">
      <g>
       <use style="fill:#262626;stroke:#262626;" x="58.19475" xlink:href="#maa733346ba" y="239.257159"/>
      </g>
     </g>
     <g id="text_6">
      <!-- 15.0 -->
      <g style="fill:#262626;" transform="translate(29.344 243.036484)scale(0.1056 -0.1056)">
       <use xlink:href="#ArialMT-49"/>
       <use x="55.615234" xlink:href="#ArialMT-53"/>
       <use x="111.230469" xlink:href="#ArialMT-46"/>
       <use x="139.013672" xlink:href="#ArialMT-48"/>
      </g>
     </g>
    </g>
    <g id="ytick_3">
     <g id="line2d_6">
      <g>
       <use style="fill:#262626;stroke:#262626;" x="58.19475" xlink:href="#maa733346ba" y="206.566865"/>
      </g>
     </g>
     <g id="text_7">
      <!-- 17.5 -->
      <defs>
       <path d="M 4.734375 62.203125 
L 4.734375 70.65625 
L 51.078125 70.65625 
L 51.078125 63.8125 
Q 44.234375 56.546875 37.515625 44.484375 
Q 30.8125 32.421875 27.15625 19.671875 
Q 24.515625 10.6875 23.78125 0 
L 14.75 0 
Q 14.890625 8.453125 18.0625 20.40625 
Q 21.234375 32.375 27.171875 43.484375 
Q 33.109375 54.59375 39.796875 62.203125 
z
" id="ArialMT-55"/>
      </defs>
      <g style="fill:#262626;" transform="translate(29.344 210.34619)scale(0.1056 -0.1056)">
       <use xlink:href="#ArialMT-49"/>
       <use x="55.615234" xlink:href="#ArialMT-55"/>
       <use x="111.230469" xlink:href="#ArialMT-46"/>
       <use x="139.013672" xlink:href="#ArialMT-53"/>
      </g>
     </g>
    </g>
    <g id="ytick_4">
     <g id="line2d_7">
      <g>
       <use style="fill:#262626;stroke:#262626;" x="58.19475" xlink:href="#maa733346ba" y="173.876572"/>
      </g>
     </g>
     <g id="text_8">
      <!-- 20.0 -->
      <g style="fill:#262626;" transform="translate(29.344 177.655897)scale(0.1056 -0.1056)">
       <use xlink:href="#ArialMT-50"/>
       <use x="55.615234" xlink:href="#ArialMT-48"/>
       <use x="111.230469" xlink:href="#ArialMT-46"/>
       <use x="139.013672" xlink:href="#ArialMT-48"/>
      </g>
     </g>
    </g>
    <g id="ytick_5">
     <g id="line2d_8">
      <g>
       <use style="fill:#262626;stroke:#262626;" x="58.19475" xlink:href="#maa733346ba" y="141.186278"/>
      </g>
     </g>
     <g id="text_9">
      <!-- 22.5 -->
      <g style="fill:#262626;" transform="translate(29.344 144.965603)scale(0.1056 -0.1056)">
       <use xlink:href="#ArialMT-50"/>
       <use x="55.615234" xlink:href="#ArialMT-50"/>
       <use x="111.230469" xlink:href="#ArialMT-46"/>
       <use x="139.013672" xlink:href="#ArialMT-53"/>
      </g>
     </g>
    </g>
    <g id="ytick_6">
     <g id="line2d_9">
      <g>
       <use style="fill:#262626;stroke:#262626;" x="58.19475" xlink:href="#maa733346ba" y="108.495984"/>
      </g>
     </g>
     <g id="text_10">
      <!-- 25.0 -->
      <g style="fill:#262626;" transform="translate(29.344 112.275309)scale(0.1056 -0.1056)">
       <use xlink:href="#ArialMT-50"/>
       <use x="55.615234" xlink:href="#ArialMT-53"/>
       <use x="111.230469" xlink:href="#ArialMT-46"/>
       <use x="139.013672" xlink:href="#ArialMT-48"/>
      </g>
     </g>
    </g>
    <g id="ytick_7">
     <g id="line2d_10">
      <g>
       <use style="fill:#262626;stroke:#262626;" x="58.19475" xlink:href="#maa733346ba" y="75.805691"/>
      </g>
     </g>
     <g id="text_11">
      <!-- 27.5 -->
      <g style="fill:#262626;" transform="translate(29.344 79.585016)scale(0.1056 -0.1056)">
       <use xlink:href="#ArialMT-50"/>
       <use x="55.615234" xlink:href="#ArialMT-55"/>
       <use x="111.230469" xlink:href="#ArialMT-46"/>
       <use x="139.013672" xlink:href="#ArialMT-53"/>
      </g>
     </g>
    </g>
    <g id="ytick_8">
     <g id="line2d_11">
      <g>
       <use style="fill:#262626;stroke:#262626;" x="58.19475" xlink:href="#maa733346ba" y="43.115397"/>
      </g>
     </g>
     <g id="text_12">
      <!-- 30.0 -->
      <defs>
       <path d="M 4.203125 18.890625 
L 12.984375 20.0625 
Q 14.5 12.59375 18.140625 9.296875 
Q 21.78125 6 27 6 
Q 33.203125 6 37.46875 10.296875 
Q 41.75 14.59375 41.75 20.953125 
Q 41.75 27 37.796875 30.921875 
Q 33.84375 34.859375 27.734375 34.859375 
Q 25.25 34.859375 21.53125 33.890625 
L 22.515625 41.609375 
Q 23.390625 41.5 23.921875 41.5 
Q 29.546875 41.5 34.03125 44.421875 
Q 38.53125 47.359375 38.53125 53.46875 
Q 38.53125 58.296875 35.25 61.46875 
Q 31.984375 64.65625 26.8125 64.65625 
Q 21.6875 64.65625 18.265625 61.421875 
Q 14.84375 58.203125 13.875 51.765625 
L 5.078125 53.328125 
Q 6.6875 62.15625 12.390625 67.015625 
Q 18.109375 71.875 26.609375 71.875 
Q 32.46875 71.875 37.390625 69.359375 
Q 42.328125 66.84375 44.9375 62.5 
Q 47.5625 58.15625 47.5625 53.265625 
Q 47.5625 48.640625 45.0625 44.828125 
Q 42.578125 41.015625 37.703125 38.765625 
Q 44.046875 37.3125 47.5625 32.6875 
Q 51.078125 28.078125 51.078125 21.140625 
Q 51.078125 11.765625 44.234375 5.25 
Q 37.40625 -1.265625 26.953125 -1.265625 
Q 17.53125 -1.265625 11.296875 4.34375 
Q 5.078125 9.96875 4.203125 18.890625 
z
" id="ArialMT-51"/>
      </defs>
      <g style="fill:#262626;" transform="translate(29.344 46.894722)scale(0.1056 -0.1056)">
       <use xlink:href="#ArialMT-51"/>
       <use x="55.615234" xlink:href="#ArialMT-48"/>
       <use x="111.230469" xlink:href="#ArialMT-46"/>
       <use x="139.013672" xlink:href="#ArialMT-48"/>
      </g>
     </g>
    </g>
    <g id="text_13">
     <!-- $BMI \, [kg/m^2]$ -->
     <defs>
      <path d="M 16.890625 72.90625 
L 42.09375 72.90625 
Q 52.34375 72.90625 57.421875 69.09375 
Q 62.5 65.28125 62.5 57.625 
Q 62.5 50.59375 58.125 45.484375 
Q 53.765625 40.375 46.6875 39.3125 
Q 52.734375 37.9375 55.765625 34.078125 
Q 58.796875 30.21875 58.796875 23.78125 
Q 58.796875 12.796875 50.65625 6.390625 
Q 42.53125 0 28.421875 0 
L 2.6875 0 
z
M 19.28125 34.8125 
L 14.109375 8.109375 
L 29.984375 8.109375 
Q 38.921875 8.109375 43.75 12.203125 
Q 48.578125 16.3125 48.578125 23.78125 
Q 48.578125 29.546875 45.375 32.171875 
Q 42.1875 34.8125 35.109375 34.8125 
z
M 25.09375 64.796875 
L 20.796875 42.828125 
L 35.5 42.828125 
Q 43.359375 42.828125 47.78125 46.234375 
Q 52.203125 49.65625 52.203125 55.71875 
Q 52.203125 60.453125 49.21875 62.625 
Q 46.234375 64.796875 39.703125 64.796875 
z
" id="DejaVuSans-Oblique-66"/>
      <path d="M 16.890625 72.90625 
L 31.6875 72.90625 
L 40.1875 23.78125 
L 68.40625 72.90625 
L 83.59375 72.90625 
L 69.390625 0 
L 59.8125 0 
L 72.21875 63.921875 
L 43.609375 14.015625 
L 33.984375 14.015625 
L 24.703125 64.109375 
L 12.3125 0 
L 2.6875 0 
z
" id="DejaVuSans-Oblique-77"/>
      <path d="M 16.890625 72.90625 
L 26.8125 72.90625 
L 12.59375 0 
L 2.6875 0 
z
" id="DejaVuSans-Oblique-73"/>
      <path d="M 8.59375 75.984375 
L 29.296875 75.984375 
L 29.296875 69 
L 17.578125 69 
L 17.578125 -6.203125 
L 29.296875 -6.203125 
L 29.296875 -13.1875 
L 8.59375 -13.1875 
z
" id="DejaVuSans-91"/>
      <path d="M 18.3125 75.984375 
L 27.296875 75.984375 
L 18.703125 31.6875 
L 49.515625 54.6875 
L 61.1875 54.6875 
L 26.8125 28.515625 
L 51.90625 0 
L 41.015625 0 
L 17.671875 26.703125 
L 12.5 0 
L 3.515625 0 
z
" id="DejaVuSans-Oblique-107"/>
      <path d="M 59.625 54.6875 
L 50.296875 6.78125 
Q 47.609375 -7.125 40.015625 -13.953125 
Q 32.421875 -20.796875 19.578125 -20.796875 
Q 14.84375 -20.796875 10.78125 -20.09375 
Q 6.734375 -19.390625 3.21875 -17.921875 
L 4.890625 -9.1875 
Q 8.203125 -11.328125 11.90625 -12.34375 
Q 15.625 -13.375 19.828125 -13.375 
Q 28.375 -13.375 33.859375 -8.703125 
Q 39.359375 -4.046875 41.109375 4.6875 
L 41.890625 8.796875 
Q 38.140625 4.5 33.15625 2.25 
Q 28.171875 0 22.40625 0 
Q 14.109375 0 9.34375 5.484375 
Q 4.59375 10.984375 4.59375 20.609375 
Q 4.59375 28.171875 7.46875 35.421875 
Q 10.359375 42.671875 15.578125 48.296875 
Q 19.046875 52 23.65625 54 
Q 28.265625 56 33.296875 56 
Q 38.8125 56 42.90625 53.4375 
Q 47.015625 50.875 49.03125 46.1875 
L 50.59375 54.6875 
z
M 46.09375 34.625 
Q 46.09375 41.265625 42.96875 44.875 
Q 39.84375 48.484375 34.078125 48.484375 
Q 30.515625 48.484375 27.296875 47.0625 
Q 24.078125 45.65625 21.78125 43.109375 
Q 18.0625 38.921875 15.984375 33.234375 
Q 13.921875 27.546875 13.921875 21.484375 
Q 13.921875 14.75 17.0625 11.125 
Q 20.21875 7.515625 26.125 7.515625 
Q 34.671875 7.515625 40.375 15.25 
Q 46.09375 23 46.09375 34.625 
z
" id="DejaVuSans-Oblique-103"/>
      <path d="M 25.390625 72.90625 
L 33.6875 72.90625 
L 8.296875 -9.28125 
L 0 -9.28125 
z
" id="DejaVuSans-47"/>
      <path d="M 89.796875 33.015625 
L 83.40625 0 
L 74.421875 0 
L 80.71875 32.71875 
Q 81.109375 34.8125 81.296875 36.328125 
Q 81.5 37.84375 81.5 38.921875 
Q 81.5 43.3125 79.046875 45.75 
Q 76.609375 48.1875 72.21875 48.1875 
Q 65.671875 48.1875 60.546875 43.28125 
Q 55.421875 38.375 53.90625 30.515625 
L 47.90625 0 
L 38.921875 0 
L 45.3125 32.71875 
Q 45.703125 34.515625 45.890625 36.046875 
Q 46.09375 37.59375 46.09375 38.8125 
Q 46.09375 43.265625 43.65625 45.71875 
Q 41.21875 48.1875 36.921875 48.1875 
Q 30.28125 48.1875 25.140625 43.28125 
Q 20.015625 38.375 18.5 30.515625 
L 12.5 0 
L 3.515625 0 
L 14.203125 54.6875 
L 23.1875 54.6875 
L 21.484375 46.1875 
Q 25.140625 50.984375 30.046875 53.484375 
Q 34.96875 56 40.578125 56 
Q 46.53125 56 50.359375 52.875 
Q 54.203125 49.75 54.984375 44.1875 
Q 59.078125 49.953125 64.46875 52.96875 
Q 69.875 56 75.875 56 
Q 82.90625 56 86.734375 51.953125 
Q 90.578125 47.90625 90.578125 40.484375 
Q 90.578125 38.875 90.375 36.9375 
Q 90.1875 35.015625 89.796875 33.015625 
z
" id="DejaVuSans-Oblique-109"/>
      <path d="M 19.1875 8.296875 
L 53.609375 8.296875 
L 53.609375 0 
L 7.328125 0 
L 7.328125 8.296875 
Q 12.9375 14.109375 22.625 23.890625 
Q 32.328125 33.6875 34.8125 36.53125 
Q 39.546875 41.84375 41.421875 45.53125 
Q 43.3125 49.21875 43.3125 52.78125 
Q 43.3125 58.59375 39.234375 62.25 
Q 35.15625 65.921875 28.609375 65.921875 
Q 23.96875 65.921875 18.8125 64.3125 
Q 13.671875 62.703125 7.8125 59.421875 
L 7.8125 69.390625 
Q 13.765625 71.78125 18.9375 73 
Q 24.125 74.21875 28.421875 74.21875 
Q 39.75 74.21875 46.484375 68.546875 
Q 53.21875 62.890625 53.21875 53.421875 
Q 53.21875 48.921875 51.53125 44.890625 
Q 49.859375 40.875 45.40625 35.40625 
Q 44.1875 33.984375 37.640625 27.21875 
Q 31.109375 20.453125 19.1875 8.296875 
z
" id="DejaVuSans-50"/>
      <path d="M 30.421875 75.984375 
L 30.421875 -13.1875 
L 9.71875 -13.1875 
L 9.71875 -6.203125 
L 21.390625 -6.203125 
L 21.390625 69 
L 9.71875 69 
L 9.71875 75.984375 
z
" id="DejaVuSans-93"/>
     </defs>
     <g style="fill:#262626;" transform="translate(22.9248 197.247375)rotate(-90)scale(0.1152 -0.1152)">
      <use transform="translate(0 0.765625)" xlink:href="#DejaVuSans-Oblique-66"/>
      <use transform="translate(68.603516 0.765625)" xlink:href="#DejaVuSans-Oblique-77"/>
      <use transform="translate(154.882812 0.765625)" xlink:href="#DejaVuSans-Oblique-73"/>
      <use transform="translate(200.610676 0.765625)" xlink:href="#DejaVuSans-91"/>
      <use transform="translate(239.624348 0.765625)" xlink:href="#DejaVuSans-Oblique-107"/>
      <use transform="translate(297.534504 0.765625)" xlink:href="#DejaVuSans-Oblique-103"/>
      <use transform="translate(361.011067 0.765625)" xlink:href="#DejaVuSans-47"/>
      <use transform="translate(394.702473 0.765625)" xlink:href="#DejaVuSans-Oblique-109"/>
      <use transform="translate(496.764478 39.046875)scale(0.7)" xlink:href="#DejaVuSans-50"/>
      <use transform="translate(544.034986 0.765625)" xlink:href="#DejaVuSans-93"/>
     </g>
    </g>
   </g>
   <g id="line2d_12">
    <defs>
     <path d="M 0 1.2 
C 0.318244 1.2 0.623496 1.07356 0.848528 0.848528 
C 1.07356 0.623496 1.2 0.318244 1.2 0 
C 1.2 -0.318244 1.07356 -0.623496 0.848528 -0.848528 
C 0.623496 -1.07356 0.318244 -1.2 0 -1.2 
C -0.318244 -1.2 -0.623496 -1.07356 -0.848528 -0.848528 
C -1.07356 -0.623496 -1.2 -0.318244 -1.2 0 
C -1.2 0.318244 -1.07356 0.623496 -0.848528 0.848528 
C -0.623496 1.07356 -0.318244 1.2 0 1.2 
z
" id="mece60e9c4a" style="stroke:#4c72b0;"/>
    </defs>
    <g clip-path="url(#p90c6ca9c91)">
     <use style="fill:#4c72b0;stroke:#4c72b0;" x="66.317632" xlink:href="#mece60e9c4a" y="105.681142"/>
     <use style="fill:#4c72b0;stroke:#4c72b0;" x="69.633093" xlink:href="#mece60e9c4a" y="104.116774"/>
     <use style="fill:#4c72b0;stroke:#4c72b0;" x="72.948555" xlink:href="#mece60e9c4a" y="192.804978"/>
     <use style="fill:#4c72b0;stroke:#4c72b0;" x="76.264017" xlink:href="#mece60e9c4a" y="217.125498"/>
     <use style="fill:#4c72b0;stroke:#4c72b0;" x="79.579479" xlink:href="#mece60e9c4a" y="172.289396"/>
     <use style="fill:#4c72b0;stroke:#4c72b0;" x="82.894941" xlink:href="#mece60e9c4a" y="110.172746"/>
     <use style="fill:#4c72b0;stroke:#4c72b0;" x="86.210403" xlink:href="#mece60e9c4a" y="89.987725"/>
     <use style="fill:#4c72b0;stroke:#4c72b0;" x="89.525864" xlink:href="#mece60e9c4a" y="146.71353"/>
     <use style="fill:#4c72b0;stroke:#4c72b0;" x="92.841326" xlink:href="#mece60e9c4a" y="46.920156"/>
     <use style="fill:#4c72b0;stroke:#4c72b0;" x="96.156788" xlink:href="#mece60e9c4a" y="126.445622"/>
     <use style="fill:#4c72b0;stroke:#4c72b0;" x="99.47225" xlink:href="#mece60e9c4a" y="117.894261"/>
     <use style="fill:#4c72b0;stroke:#4c72b0;" x="102.787712" xlink:href="#mece60e9c4a" y="129.102056"/>
     <use style="fill:#4c72b0;stroke:#4c72b0;" x="106.103174" xlink:href="#mece60e9c4a" y="111.946678"/>
     <use style="fill:#4c72b0;stroke:#4c72b0;" x="109.418635" xlink:href="#mece60e9c4a" y="82.109735"/>
     <use style="fill:#4c72b0;stroke:#4c72b0;" x="112.734097" xlink:href="#mece60e9c4a" y="84.140228"/>
     <use style="fill:#4c72b0;stroke:#4c72b0;" x="116.049559" xlink:href="#mece60e9c4a" y="165.948414"/>
     <use style="fill:#4c72b0;stroke:#4c72b0;" x="119.365021" xlink:href="#mece60e9c4a" y="39.262452"/>
     <use style="fill:#4c72b0;stroke:#4c72b0;" x="122.680483" xlink:href="#mece60e9c4a" y="176.231657"/>
     <use style="fill:#4c72b0;stroke:#4c72b0;" x="125.995945" xlink:href="#mece60e9c4a" y="114.812951"/>
     <use style="fill:#4c72b0;stroke:#4c72b0;" x="129.311406" xlink:href="#mece60e9c4a" y="133.309046"/>
     <use style="fill:#4c72b0;stroke:#4c72b0;" x="132.626868" xlink:href="#mece60e9c4a" y="173.823832"/>
     <use style="fill:#4c72b0;stroke:#4c72b0;" x="135.94233" xlink:href="#mece60e9c4a" y="122.886021"/>
     <use style="fill:#4c72b0;stroke:#4c72b0;" x="139.257792" xlink:href="#mece60e9c4a" y="157.70475"/>
     <use style="fill:#4c72b0;stroke:#4c72b0;" x="142.573254" xlink:href="#mece60e9c4a" y="115.143504"/>
     <use style="fill:#4c72b0;stroke:#4c72b0;" x="145.888716" xlink:href="#mece60e9c4a" y="97.873681"/>
     <use style="fill:#4c72b0;stroke:#4c72b0;" x="149.204178" xlink:href="#mece60e9c4a" y="41.968393"/>
     <use style="fill:#4c72b0;stroke:#4c72b0;" x="152.519639" xlink:href="#mece60e9c4a" y="102.87931"/>
     <use style="fill:#4c72b0;stroke:#4c72b0;" x="155.835101" xlink:href="#mece60e9c4a" y="150.926696"/>
     <use style="fill:#4c72b0;stroke:#4c72b0;" x="159.150563" xlink:href="#mece60e9c4a" y="139.440345"/>
     <use style="fill:#4c72b0;stroke:#4c72b0;" x="162.466025" xlink:href="#mece60e9c4a" y="111.635398"/>
     <use style="fill:#4c72b0;stroke:#4c72b0;" x="165.781487" xlink:href="#mece60e9c4a" y="114.068459"/>
     <use style="fill:#4c72b0;stroke:#4c72b0;" x="169.096949" xlink:href="#mece60e9c4a" y="42.613835"/>
     <use style="fill:#4c72b0;stroke:#4c72b0;" x="172.41241" xlink:href="#mece60e9c4a" y="45.973683"/>
     <use style="fill:#4c72b0;stroke:#4c72b0;" x="175.727872" xlink:href="#mece60e9c4a" y="137.730832"/>
     <use style="fill:#4c72b0;stroke:#4c72b0;" x="179.043334" xlink:href="#mece60e9c4a" y="147.653314"/>
     <use style="fill:#4c72b0;stroke:#4c72b0;" x="182.358796" xlink:href="#mece60e9c4a" y="252.702264"/>
     <use style="fill:#4c72b0;stroke:#4c72b0;" x="185.674258" xlink:href="#mece60e9c4a" y="147.66787"/>
     <use style="fill:#4c72b0;stroke:#4c72b0;" x="188.98972" xlink:href="#mece60e9c4a" y="170.113668"/>
     <use style="fill:#4c72b0;stroke:#4c72b0;" x="192.305181" xlink:href="#mece60e9c4a" y="137.515784"/>
     <use style="fill:#4c72b0;stroke:#4c72b0;" x="195.620643" xlink:href="#mece60e9c4a" y="98.475272"/>
     <use style="fill:#4c72b0;stroke:#4c72b0;" x="198.936105" xlink:href="#mece60e9c4a" y="109.688928"/>
     <use style="fill:#4c72b0;stroke:#4c72b0;" x="202.251567" xlink:href="#mece60e9c4a" y="120.524339"/>
     <use style="fill:#4c72b0;stroke:#4c72b0;" x="205.567029" xlink:href="#mece60e9c4a" y="108.517842"/>
     <use style="fill:#4c72b0;stroke:#4c72b0;" x="208.882491" xlink:href="#mece60e9c4a" y="125.553402"/>
     <use style="fill:#4c72b0;stroke:#4c72b0;" x="212.197952" xlink:href="#mece60e9c4a" y="108.651908"/>
     <use style="fill:#4c72b0;stroke:#4c72b0;" x="215.513414" xlink:href="#mece60e9c4a" y="287.955498"/>
     <use style="fill:#4c72b0;stroke:#4c72b0;" x="218.828876" xlink:href="#mece60e9c4a" y="133.042132"/>
     <use style="fill:#4c72b0;stroke:#4c72b0;" x="222.144338" xlink:href="#mece60e9c4a" y="124.754867"/>
     <use style="fill:#4c72b0;stroke:#4c72b0;" x="225.4598" xlink:href="#mece60e9c4a" y="136.806392"/>
     <use style="fill:#4c72b0;stroke:#4c72b0;" x="228.775262" xlink:href="#mece60e9c4a" y="130.356442"/>
    </g>
   </g>
   <g id="patch_3">
    <path d="M 58.19475 300.39015 
L 58.19475 26.8278 
" style="fill:none;stroke:#262626;stroke-linecap:square;stroke-linejoin:miter;"/>
   </g>
   <g id="patch_4">
    <path d="M 236.898143 300.39015 
L 236.898143 26.8278 
" style="fill:none;stroke:#262626;stroke-linecap:square;stroke-linejoin:miter;"/>
   </g>
   <g id="patch_5">
    <path d="M 58.19475 300.39015 
L 236.898143 300.39015 
" style="fill:none;stroke:#262626;stroke-linecap:square;stroke-linejoin:miter;"/>
   </g>
   <g id="patch_6">
    <path d="M 58.19475 26.8278 
L 236.898143 26.8278 
" style="fill:none;stroke:#262626;stroke-linecap:square;stroke-linejoin:miter;"/>
   </g>
   <g id="text_14">
    <!-- Sample data from adult males - China -->
    <defs>
     <path d="M 40.4375 6.390625 
Q 35.546875 2.25 31.03125 0.53125 
Q 26.515625 -1.171875 21.34375 -1.171875 
Q 12.796875 -1.171875 8.203125 3 
Q 3.609375 7.171875 3.609375 13.671875 
Q 3.609375 17.484375 5.34375 20.625 
Q 7.078125 23.78125 9.890625 25.6875 
Q 12.703125 27.59375 16.21875 28.5625 
Q 18.796875 29.25 24.03125 29.890625 
Q 34.671875 31.15625 39.703125 32.90625 
Q 39.75 34.71875 39.75 35.203125 
Q 39.75 40.578125 37.25 42.78125 
Q 33.890625 45.75 27.25 45.75 
Q 21.046875 45.75 18.09375 43.578125 
Q 15.140625 41.40625 13.71875 35.890625 
L 5.125 37.0625 
Q 6.296875 42.578125 8.984375 45.96875 
Q 11.671875 49.359375 16.75 51.1875 
Q 21.828125 53.03125 28.515625 53.03125 
Q 35.15625 53.03125 39.296875 51.46875 
Q 43.453125 49.90625 45.40625 47.53125 
Q 47.359375 45.171875 48.140625 41.546875 
Q 48.578125 39.3125 48.578125 33.453125 
L 48.578125 21.734375 
Q 48.578125 9.46875 49.140625 6.21875 
Q 49.703125 2.984375 51.375 0 
L 42.1875 0 
Q 40.828125 2.734375 40.4375 6.390625 
z
M 39.703125 26.03125 
Q 34.90625 24.078125 25.34375 22.703125 
Q 19.921875 21.921875 17.671875 20.9375 
Q 15.4375 19.96875 14.203125 18.09375 
Q 12.984375 16.21875 12.984375 13.921875 
Q 12.984375 10.40625 15.640625 8.0625 
Q 18.3125 5.71875 23.4375 5.71875 
Q 28.515625 5.71875 32.46875 7.9375 
Q 36.421875 10.15625 38.28125 14.015625 
Q 39.703125 17 39.703125 22.796875 
z
" id="ArialMT-97"/>
     <path d="M 6.59375 0 
L 6.59375 51.859375 
L 14.453125 51.859375 
L 14.453125 44.578125 
Q 16.890625 48.390625 20.9375 50.703125 
Q 25 53.03125 30.171875 53.03125 
Q 35.9375 53.03125 39.625 50.640625 
Q 43.3125 48.25 44.828125 43.953125 
Q 50.984375 53.03125 60.84375 53.03125 
Q 68.5625 53.03125 72.703125 48.75 
Q 76.859375 44.484375 76.859375 35.59375 
L 76.859375 0 
L 68.109375 0 
L 68.109375 32.671875 
Q 68.109375 37.9375 67.25 40.25 
Q 66.40625 42.578125 64.15625 43.984375 
Q 61.921875 45.40625 58.890625 45.40625 
Q 53.421875 45.40625 49.796875 41.765625 
Q 46.1875 38.140625 46.1875 30.125 
L 46.1875 0 
L 37.40625 0 
L 37.40625 33.6875 
Q 37.40625 39.546875 35.25 42.46875 
Q 33.109375 45.40625 28.21875 45.40625 
Q 24.515625 45.40625 21.359375 43.453125 
Q 18.21875 41.5 16.796875 37.734375 
Q 15.375 33.984375 15.375 26.90625 
L 15.375 0 
z
" id="ArialMT-109"/>
     <path d="M 6.59375 -19.875 
L 6.59375 51.859375 
L 14.59375 51.859375 
L 14.59375 45.125 
Q 17.4375 49.078125 21 51.046875 
Q 24.5625 53.03125 29.640625 53.03125 
Q 36.28125 53.03125 41.359375 49.609375 
Q 46.4375 46.1875 49.015625 39.953125 
Q 51.609375 33.734375 51.609375 26.3125 
Q 51.609375 18.359375 48.75 11.984375 
Q 45.90625 5.609375 40.453125 2.21875 
Q 35.015625 -1.171875 29 -1.171875 
Q 24.609375 -1.171875 21.109375 0.6875 
Q 17.625 2.546875 15.375 5.375 
L 15.375 -19.875 
z
M 14.546875 25.640625 
Q 14.546875 15.625 18.59375 10.84375 
Q 22.65625 6.0625 28.421875 6.0625 
Q 34.28125 6.0625 38.453125 11.015625 
Q 42.625 15.96875 42.625 26.375 
Q 42.625 36.28125 38.546875 41.203125 
Q 34.46875 46.140625 28.8125 46.140625 
Q 23.1875 46.140625 18.859375 40.890625 
Q 14.546875 35.640625 14.546875 25.640625 
z
" id="ArialMT-112"/>
     <path d="M 6.390625 0 
L 6.390625 71.578125 
L 15.1875 71.578125 
L 15.1875 0 
z
" id="ArialMT-108"/>
     <path id="ArialMT-32"/>
     <path d="M 40.234375 0 
L 40.234375 6.546875 
Q 35.296875 -1.171875 25.734375 -1.171875 
Q 19.53125 -1.171875 14.328125 2.25 
Q 9.125 5.671875 6.265625 11.796875 
Q 3.421875 17.921875 3.421875 25.875 
Q 3.421875 33.640625 6 39.96875 
Q 8.59375 46.296875 13.765625 49.65625 
Q 18.953125 53.03125 25.34375 53.03125 
Q 30.03125 53.03125 33.6875 51.046875 
Q 37.359375 49.078125 39.65625 45.90625 
L 39.65625 71.578125 
L 48.390625 71.578125 
L 48.390625 0 
z
M 12.453125 25.875 
Q 12.453125 15.921875 16.640625 10.984375 
Q 20.84375 6.0625 26.5625 6.0625 
Q 32.328125 6.0625 36.34375 10.765625 
Q 40.375 15.484375 40.375 25.140625 
Q 40.375 35.796875 36.265625 40.765625 
Q 32.171875 45.75 26.171875 45.75 
Q 20.3125 45.75 16.375 40.96875 
Q 12.453125 36.1875 12.453125 25.875 
z
" id="ArialMT-100"/>
     <path d="M 8.6875 0 
L 8.6875 45.015625 
L 0.921875 45.015625 
L 0.921875 51.859375 
L 8.6875 51.859375 
L 8.6875 57.375 
Q 8.6875 62.59375 9.625 65.140625 
Q 10.890625 68.5625 14.078125 70.671875 
Q 17.28125 72.796875 23.046875 72.796875 
Q 26.765625 72.796875 31.25 71.921875 
L 29.9375 64.265625 
Q 27.203125 64.75 24.75 64.75 
Q 20.75 64.75 19.09375 63.03125 
Q 17.4375 61.328125 17.4375 56.640625 
L 17.4375 51.859375 
L 27.546875 51.859375 
L 27.546875 45.015625 
L 17.4375 45.015625 
L 17.4375 0 
z
" id="ArialMT-102"/>
     <path d="M 3.328125 25.921875 
Q 3.328125 40.328125 11.328125 47.265625 
Q 18.015625 53.03125 27.640625 53.03125 
Q 38.328125 53.03125 45.109375 46.015625 
Q 51.90625 39.015625 51.90625 26.65625 
Q 51.90625 16.65625 48.90625 10.90625 
Q 45.90625 5.171875 40.15625 2 
Q 34.421875 -1.171875 27.640625 -1.171875 
Q 16.75 -1.171875 10.03125 5.8125 
Q 3.328125 12.796875 3.328125 25.921875 
z
M 12.359375 25.921875 
Q 12.359375 15.96875 16.703125 11.015625 
Q 21.046875 6.0625 27.640625 6.0625 
Q 34.1875 6.0625 38.53125 11.03125 
Q 42.875 16.015625 42.875 26.21875 
Q 42.875 35.84375 38.5 40.796875 
Q 34.125 45.75 27.640625 45.75 
Q 21.046875 45.75 16.703125 40.8125 
Q 12.359375 35.890625 12.359375 25.921875 
z
" id="ArialMT-111"/>
     <path d="M 3.078125 15.484375 
L 11.765625 16.84375 
Q 12.5 11.625 15.84375 8.84375 
Q 19.1875 6.0625 25.203125 6.0625 
Q 31.25 6.0625 34.171875 8.515625 
Q 37.109375 10.984375 37.109375 14.3125 
Q 37.109375 17.28125 34.515625 19 
Q 32.71875 20.171875 25.53125 21.96875 
Q 15.875 24.421875 12.140625 26.203125 
Q 8.40625 27.984375 6.46875 31.125 
Q 4.546875 34.28125 4.546875 38.09375 
Q 4.546875 41.546875 6.125 44.5 
Q 7.71875 47.46875 10.453125 49.421875 
Q 12.5 50.921875 16.03125 51.96875 
Q 19.578125 53.03125 23.640625 53.03125 
Q 29.734375 53.03125 34.34375 51.265625 
Q 38.96875 49.515625 41.15625 46.5 
Q 43.359375 43.5 44.1875 38.484375 
L 35.59375 37.3125 
Q 35.015625 41.3125 32.203125 43.546875 
Q 29.390625 45.796875 24.265625 45.796875 
Q 18.21875 45.796875 15.625 43.796875 
Q 13.03125 41.796875 13.03125 39.109375 
Q 13.03125 37.40625 14.109375 36.03125 
Q 15.1875 34.625 17.484375 33.6875 
Q 18.796875 33.203125 25.25 31.453125 
Q 34.578125 28.953125 38.25 27.359375 
Q 41.9375 25.78125 44.03125 22.75 
Q 46.140625 19.734375 46.140625 15.234375 
Q 46.140625 10.84375 43.578125 6.953125 
Q 41.015625 3.078125 36.171875 0.953125 
Q 31.34375 -1.171875 25.25 -1.171875 
Q 15.140625 -1.171875 9.84375 3.03125 
Q 4.546875 7.234375 3.078125 15.484375 
z
" id="ArialMT-115"/>
     <path d="M 58.796875 25.09375 
L 68.265625 22.703125 
Q 65.28125 11.03125 57.546875 4.90625 
Q 49.8125 -1.21875 38.625 -1.21875 
Q 27.046875 -1.21875 19.796875 3.484375 
Q 12.546875 8.203125 8.765625 17.140625 
Q 4.984375 26.078125 4.984375 36.328125 
Q 4.984375 47.515625 9.25 55.828125 
Q 13.53125 64.15625 21.40625 68.46875 
Q 29.296875 72.796875 38.765625 72.796875 
Q 49.515625 72.796875 56.828125 67.328125 
Q 64.15625 61.859375 67.046875 51.953125 
L 57.71875 49.75 
Q 55.21875 57.5625 50.484375 61.125 
Q 45.75 64.703125 38.578125 64.703125 
Q 30.328125 64.703125 24.78125 60.734375 
Q 19.234375 56.78125 16.984375 50.109375 
Q 14.75 43.453125 14.75 36.375 
Q 14.75 27.25 17.40625 20.4375 
Q 20.0625 13.625 25.671875 10.25 
Q 31.296875 6.890625 37.84375 6.890625 
Q 45.796875 6.890625 51.3125 11.46875 
Q 56.84375 16.0625 58.796875 25.09375 
z
" id="ArialMT-67"/>
     <path d="M 6.59375 0 
L 6.59375 71.578125 
L 15.375 71.578125 
L 15.375 45.90625 
Q 21.53125 53.03125 30.90625 53.03125 
Q 36.671875 53.03125 40.921875 50.75 
Q 45.171875 48.484375 47 44.484375 
Q 48.828125 40.484375 48.828125 32.859375 
L 48.828125 0 
L 40.046875 0 
L 40.046875 32.859375 
Q 40.046875 39.453125 37.1875 42.453125 
Q 34.328125 45.453125 29.109375 45.453125 
Q 25.203125 45.453125 21.75 43.421875 
Q 18.3125 41.40625 16.84375 37.9375 
Q 15.375 34.46875 15.375 28.375 
L 15.375 0 
z
" id="ArialMT-104"/>
     <path d="M 6.640625 61.46875 
L 6.640625 71.578125 
L 15.4375 71.578125 
L 15.4375 61.46875 
z
M 6.640625 0 
L 6.640625 51.859375 
L 15.4375 51.859375 
L 15.4375 0 
z
" id="ArialMT-105"/>
     <path d="M 6.59375 0 
L 6.59375 51.859375 
L 14.5 51.859375 
L 14.5 44.484375 
Q 20.21875 53.03125 31 53.03125 
Q 35.6875 53.03125 39.625 51.34375 
Q 43.5625 49.65625 45.515625 46.921875 
Q 47.46875 44.1875 48.25 40.4375 
Q 48.734375 37.984375 48.734375 31.890625 
L 48.734375 0 
L 39.9375 0 
L 39.9375 31.546875 
Q 39.9375 36.921875 38.90625 39.578125 
Q 37.890625 42.234375 35.28125 43.8125 
Q 32.671875 45.40625 29.15625 45.40625 
Q 23.53125 45.40625 19.453125 41.84375 
Q 15.375 38.28125 15.375 28.328125 
L 15.375 0 
z
" id="ArialMT-110"/>
    </defs>
    <g style="fill:#262626;" transform="translate(50.867547 20.8278)scale(0.1152 -0.1152)">
     <use xlink:href="#ArialMT-83"/>
     <use x="66.699219" xlink:href="#ArialMT-97"/>
     <use x="122.314453" xlink:href="#ArialMT-109"/>
     <use x="205.615234" xlink:href="#ArialMT-112"/>
     <use x="261.230469" xlink:href="#ArialMT-108"/>
     <use x="283.447266" xlink:href="#ArialMT-101"/>
     <use x="339.0625" xlink:href="#ArialMT-32"/>
     <use x="366.845703" xlink:href="#ArialMT-100"/>
     <use x="422.460938" xlink:href="#ArialMT-97"/>
     <use x="478.076172" xlink:href="#ArialMT-116"/>
     <use x="505.859375" xlink:href="#ArialMT-97"/>
     <use x="561.474609" xlink:href="#ArialMT-32"/>
     <use x="589.257812" xlink:href="#ArialMT-102"/>
     <use x="617.041016" xlink:href="#ArialMT-114"/>
     <use x="650.341797" xlink:href="#ArialMT-111"/>
     <use x="705.957031" xlink:href="#ArialMT-109"/>
     <use x="789.257812" xlink:href="#ArialMT-32"/>
     <use x="817.041016" xlink:href="#ArialMT-97"/>
     <use x="872.65625" xlink:href="#ArialMT-100"/>
     <use x="928.271484" xlink:href="#ArialMT-117"/>
     <use x="983.886719" xlink:href="#ArialMT-108"/>
     <use x="1006.103516" xlink:href="#ArialMT-116"/>
     <use x="1033.886719" xlink:href="#ArialMT-32"/>
     <use x="1061.669922" xlink:href="#ArialMT-109"/>
     <use x="1144.970703" xlink:href="#ArialMT-97"/>
     <use x="1200.585938" xlink:href="#ArialMT-108"/>
     <use x="1222.802734" xlink:href="#ArialMT-101"/>
     <use x="1278.417969" xlink:href="#ArialMT-115"/>
     <use x="1328.417969" xlink:href="#ArialMT-32"/>
     <use x="1356.201172" xlink:href="#ArialMT-45"/>
     <use x="1389.501953" xlink:href="#ArialMT-32"/>
     <use x="1417.285156" xlink:href="#ArialMT-67"/>
     <use x="1489.501953" xlink:href="#ArialMT-104"/>
     <use x="1545.117188" xlink:href="#ArialMT-105"/>
     <use x="1567.333984" xlink:href="#ArialMT-110"/>
     <use x="1622.949219" xlink:href="#ArialMT-97"/>
    </g>
   </g>
  </g>
  <g id="axes_2">
   <g id="patch_7">
    <path d="M 269.655007 300.39015 
L 448.3584 300.39015 
L 448.3584 26.8278 
L 269.655007 26.8278 
z
" style="fill:#ffffff;"/>
   </g>
   <g id="matplotlib.axis_3">
    <g id="xtick_4">
     <g id="line2d_13">
      <g>
       <use style="fill:#262626;stroke:#262626;" x="359.006703" xlink:href="#mea14188de1" y="300.39015"/>
      </g>
     </g>
     <g id="text_15">
      <!-- 1 -->
      <g style="fill:#262626;" transform="translate(356.070528 316.2488)scale(0.1056 -0.1056)">
       <use xlink:href="#ArialMT-49"/>
      </g>
     </g>
    </g>
   </g>
   <g id="matplotlib.axis_4">
    <g id="ytick_9">
     <g id="line2d_14">
      <g>
       <use style="fill:#262626;stroke:#262626;" x="269.655007" xlink:href="#maa733346ba" y="271.947453"/>
      </g>
     </g>
    </g>
    <g id="ytick_10">
     <g id="line2d_15">
      <g>
       <use style="fill:#262626;stroke:#262626;" x="269.655007" xlink:href="#maa733346ba" y="239.257159"/>
      </g>
     </g>
    </g>
    <g id="ytick_11">
     <g id="line2d_16">
      <g>
       <use style="fill:#262626;stroke:#262626;" x="269.655007" xlink:href="#maa733346ba" y="206.566865"/>
      </g>
     </g>
    </g>
    <g id="ytick_12">
     <g id="line2d_17">
      <g>
       <use style="fill:#262626;stroke:#262626;" x="269.655007" xlink:href="#maa733346ba" y="173.876572"/>
      </g>
     </g>
    </g>
    <g id="ytick_13">
     <g id="line2d_18">
      <g>
       <use style="fill:#262626;stroke:#262626;" x="269.655007" xlink:href="#maa733346ba" y="141.186278"/>
      </g>
     </g>
    </g>
    <g id="ytick_14">
     <g id="line2d_19">
      <g>
       <use style="fill:#262626;stroke:#262626;" x="269.655007" xlink:href="#maa733346ba" y="108.495984"/>
      </g>
     </g>
    </g>
    <g id="ytick_15">
     <g id="line2d_20">
      <g>
       <use style="fill:#262626;stroke:#262626;" x="269.655007" xlink:href="#maa733346ba" y="75.805691"/>
      </g>
     </g>
    </g>
    <g id="ytick_16">
     <g id="line2d_21">
      <g>
       <use style="fill:#262626;stroke:#262626;" x="269.655007" xlink:href="#maa733346ba" y="43.115397"/>
      </g>
     </g>
    </g>
   </g>
   <g id="line2d_22">
    <path clip-path="url(#p1333a060c8)" d="M 345.603949 147.418368 
L 372.409458 147.418368 
L 372.409458 106.390317 
L 345.603949 106.390317 
L 345.603949 147.418368 
" style="fill:none;stroke:#000000;stroke-linecap:round;"/>
   </g>
   <g id="line2d_23">
    <path clip-path="url(#p1333a060c8)" d="M 359.006703 147.418368 
L 359.006703 192.804978 
" style="fill:none;stroke:#000000;stroke-linecap:round;"/>
   </g>
   <g id="line2d_24">
    <path clip-path="url(#p1333a060c8)" d="M 359.006703 106.390317 
L 359.006703 45.973683 
" style="fill:none;stroke:#000000;stroke-linecap:round;"/>
   </g>
   <g id="line2d_25">
    <path clip-path="url(#p1333a060c8)" d="M 352.305326 192.804978 
L 365.708081 192.804978 
" style="fill:none;stroke:#000000;stroke-linecap:round;"/>
   </g>
   <g id="line2d_26">
    <path clip-path="url(#p1333a060c8)" d="M 352.305326 45.973683 
L 365.708081 45.973683 
" style="fill:none;stroke:#000000;stroke-linecap:round;"/>
   </g>
   <g id="line2d_27">
    <defs>
     <path d="M 0 -3 
L -0.673542 -0.927051 
L -2.85317 -0.927051 
L -1.089814 0.354102 
L -1.763356 2.427051 
L -0 1.145898 
L 1.763356 2.427051 
L 1.089814 0.354102 
L 2.85317 -0.927051 
L 0.673542 -0.927051 
z
" id="mae06d04bd8" style="stroke:#000000;stroke-linejoin:bevel;"/>
    </defs>
    <g clip-path="url(#p1333a060c8)">
     <use style="fill-opacity:0;stroke:#000000;stroke-linejoin:bevel;" x="359.006703" xlink:href="#mae06d04bd8" y="217.125498"/>
     <use style="fill-opacity:0;stroke:#000000;stroke-linejoin:bevel;" x="359.006703" xlink:href="#mae06d04bd8" y="252.702264"/>
     <use style="fill-opacity:0;stroke:#000000;stroke-linejoin:bevel;" x="359.006703" xlink:href="#mae06d04bd8" y="287.955498"/>
     <use style="fill-opacity:0;stroke:#000000;stroke-linejoin:bevel;" x="359.006703" xlink:href="#mae06d04bd8" y="39.262452"/>
     <use style="fill-opacity:0;stroke:#000000;stroke-linejoin:bevel;" x="359.006703" xlink:href="#mae06d04bd8" y="41.968393"/>
     <use style="fill-opacity:0;stroke:#000000;stroke-linejoin:bevel;" x="359.006703" xlink:href="#mae06d04bd8" y="42.613835"/>
    </g>
   </g>
   <g id="line2d_28">
    <path clip-path="url(#p1333a060c8)" d="M 345.603949 123.820444 
L 372.409458 123.820444 
" style="fill:none;stroke:#dd8452;stroke-linecap:round;"/>
   </g>
   <g id="patch_8">
    <path d="M 269.655007 300.39015 
L 269.655007 26.8278 
" style="fill:none;stroke:#262626;stroke-linecap:square;stroke-linejoin:miter;"/>
   </g>
   <g id="patch_9">
    <path d="M 448.3584 300.39015 
L 448.3584 26.8278 
" style="fill:none;stroke:#262626;stroke-linecap:square;stroke-linejoin:miter;"/>
   </g>
   <g id="patch_10">
    <path d="M 269.655007 300.39015 
L 448.3584 300.39015 
" style="fill:none;stroke:#262626;stroke-linecap:square;stroke-linejoin:miter;"/>
   </g>
   <g id="patch_11">
    <path d="M 269.655007 26.8278 
L 448.3584 26.8278 
" style="fill:none;stroke:#262626;stroke-linecap:square;stroke-linejoin:miter;"/>
   </g>
  </g>
 </g>
 <defs>
  <clipPath id="p90c6ca9c91">
   <rect height="273.56235" width="178.703393" x="58.19475" y="26.8278"/>
  </clipPath>
  <clipPath id="p1333a060c8">
   <rect height="273.56235" width="178.703393" x="269.655007" y="26.8278"/>
  </clipPath>
 </defs>
</svg>
