<?xml version="1.0" encoding="utf-8" standalone="no"?>
<!DOCTYPE svg PUBLIC "-//W3C//DTD SVG 1.1//EN"
  "http://www.w3.org/Graphics/SVG/1.1/DTD/svg11.dtd">
<!-- Created with matplotlib (https://matplotlib.org/) -->
<svg height="345.6pt" version="1.1" viewBox="0 0 460.8 345.6" width="460.8pt" xmlns="http://www.w3.org/2000/svg" xmlns:xlink="http://www.w3.org/1999/xlink">
 <defs>
  <style type="text/css">
*{stroke-linecap:butt;stroke-linejoin:round;}
  </style>
 </defs>
 <g id="figure_1">
  <g id="patch_1">
   <path d="M 0 345.6 
L 460.8 345.6 
L 460.8 0 
L 0 0 
z
" style="fill:#ffffff;"/>
  </g>
  <g id="axes_1">
   <g id="patch_2">
    <path d="M 42.310625 309.36625 
L 212.671787 309.36625 
L 212.671787 18.132727 
L 42.310625 18.132727 
z
" style="fill:#ffffff;"/>
   </g>
   <g id="matplotlib.axis_1">
    <g id="xtick_1">
     <g id="line2d_1">
      <defs>
       <path d="M 0 0 
L 0 6 
" id="m540c9f4df2" style="stroke:#000000;stroke-width:0.8;"/>
      </defs>
      <g>
       <use style="stroke:#000000;stroke-width:0.8;" x="50.054314" xlink:href="#m540c9f4df2" y="309.36625"/>
      </g>
     </g>
     <g id="text_1">
      <!-- 0 -->
      <defs>
       <path d="M 31.78125 66.40625 
Q 24.171875 66.40625 20.328125 58.90625 
Q 16.5 51.421875 16.5 36.375 
Q 16.5 21.390625 20.328125 13.890625 
Q 24.171875 6.390625 31.78125 6.390625 
Q 39.453125 6.390625 43.28125 13.890625 
Q 47.125 21.390625 47.125 36.375 
Q 47.125 51.421875 43.28125 58.90625 
Q 39.453125 66.40625 31.78125 66.40625 
z
M 31.78125 74.21875 
Q 44.046875 74.21875 50.515625 64.515625 
Q 56.984375 54.828125 56.984375 36.375 
Q 56.984375 17.96875 50.515625 8.265625 
Q 44.046875 -1.421875 31.78125 -1.421875 
Q 19.53125 -1.421875 13.0625 8.265625 
Q 6.59375 17.96875 6.59375 36.375 
Q 6.59375 54.828125 13.0625 64.515625 
Q 19.53125 74.21875 31.78125 74.21875 
z
" id="DejaVuSans-48"/>
      </defs>
      <g transform="translate(46.236814 327.984375)scale(0.12 -0.12)">
       <use xlink:href="#DejaVuSans-48"/>
      </g>
     </g>
    </g>
    <g id="xtick_2">
     <g id="line2d_2">
      <g>
       <use style="stroke:#000000;stroke-width:0.8;" x="127.685283" xlink:href="#m540c9f4df2" y="309.36625"/>
      </g>
     </g>
     <g id="text_2">
      <!-- 10 -->
      <defs>
       <path d="M 12.40625 8.296875 
L 28.515625 8.296875 
L 28.515625 63.921875 
L 10.984375 60.40625 
L 10.984375 69.390625 
L 28.421875 72.90625 
L 38.28125 72.90625 
L 38.28125 8.296875 
L 54.390625 8.296875 
L 54.390625 0 
L 12.40625 0 
z
" id="DejaVuSans-49"/>
      </defs>
      <g transform="translate(120.050283 327.984375)scale(0.12 -0.12)">
       <use xlink:href="#DejaVuSans-49"/>
       <use x="63.623047" xlink:href="#DejaVuSans-48"/>
      </g>
     </g>
    </g>
    <g id="xtick_3">
     <g id="line2d_3">
      <g>
       <use style="stroke:#000000;stroke-width:0.8;" x="205.316253" xlink:href="#m540c9f4df2" y="309.36625"/>
      </g>
     </g>
     <g id="text_3">
      <!-- 20 -->
      <defs>
       <path d="M 19.1875 8.296875 
L 53.609375 8.296875 
L 53.609375 0 
L 7.328125 0 
L 7.328125 8.296875 
Q 12.9375 14.109375 22.625 23.890625 
Q 32.328125 33.6875 34.8125 36.53125 
Q 39.546875 41.84375 41.421875 45.53125 
Q 43.3125 49.21875 43.3125 52.78125 
Q 43.3125 58.59375 39.234375 62.25 
Q 35.15625 65.921875 28.609375 65.921875 
Q 23.96875 65.921875 18.8125 64.3125 
Q 13.671875 62.703125 7.8125 59.421875 
L 7.8125 69.390625 
Q 13.765625 71.78125 18.9375 73 
Q 24.125 74.21875 28.421875 74.21875 
Q 39.75 74.21875 46.484375 68.546875 
Q 53.21875 62.890625 53.21875 53.421875 
Q 53.21875 48.921875 51.53125 44.890625 
Q 49.859375 40.875 45.40625 35.40625 
Q 44.1875 33.984375 37.640625 27.21875 
Q 31.109375 20.453125 19.1875 8.296875 
z
" id="DejaVuSans-50"/>
      </defs>
      <g transform="translate(197.681253 327.984375)scale(0.12 -0.12)">
       <use xlink:href="#DejaVuSans-50"/>
       <use x="63.623047" xlink:href="#DejaVuSans-48"/>
      </g>
     </g>
    </g>
   </g>
   <g id="matplotlib.axis_2">
    <g id="ytick_1">
     <g id="line2d_4">
      <defs>
       <path d="M 0 0 
L -6 0 
" id="m0a4b854645" style="stroke:#000000;stroke-width:0.8;"/>
      </defs>
      <g>
       <use style="stroke:#000000;stroke-width:0.8;" x="42.310625" xlink:href="#m0a4b854645" y="260.11077"/>
      </g>
     </g>
     <g id="text_4">
      <!-- −1 -->
      <defs>
       <path d="M 10.59375 35.5 
L 73.1875 35.5 
L 73.1875 27.203125 
L 10.59375 27.203125 
z
" id="DejaVuSans-8722"/>
      </defs>
      <g transform="translate(15.12 264.669833)scale(0.12 -0.12)">
       <use xlink:href="#DejaVuSans-8722"/>
       <use x="83.789062" xlink:href="#DejaVuSans-49"/>
      </g>
     </g>
    </g>
    <g id="ytick_2">
     <g id="line2d_5">
      <g>
       <use style="stroke:#000000;stroke-width:0.8;" x="42.310625" xlink:href="#m0a4b854645" y="200.039338"/>
      </g>
     </g>
     <g id="text_5">
      <!-- 0 -->
      <g transform="translate(25.175625 204.5984)scale(0.12 -0.12)">
       <use xlink:href="#DejaVuSans-48"/>
      </g>
     </g>
    </g>
    <g id="ytick_3">
     <g id="line2d_6">
      <g>
       <use style="stroke:#000000;stroke-width:0.8;" x="42.310625" xlink:href="#m0a4b854645" y="139.967905"/>
      </g>
     </g>
     <g id="text_6">
      <!-- 1 -->
      <g transform="translate(25.175625 144.526968)scale(0.12 -0.12)">
       <use xlink:href="#DejaVuSans-49"/>
      </g>
     </g>
    </g>
    <g id="ytick_4">
     <g id="line2d_7">
      <g>
       <use style="stroke:#000000;stroke-width:0.8;" x="42.310625" xlink:href="#m0a4b854645" y="79.896472"/>
      </g>
     </g>
     <g id="text_7">
      <!-- 2 -->
      <g transform="translate(25.175625 84.455535)scale(0.12 -0.12)">
       <use xlink:href="#DejaVuSans-50"/>
      </g>
     </g>
    </g>
    <g id="ytick_5">
     <g id="line2d_8">
      <g>
       <use style="stroke:#000000;stroke-width:0.8;" x="42.310625" xlink:href="#m0a4b854645" y="19.82504"/>
      </g>
     </g>
     <g id="text_8">
      <!-- 3 -->
      <defs>
       <path d="M 40.578125 39.3125 
Q 47.65625 37.796875 51.625 33 
Q 55.609375 28.21875 55.609375 21.1875 
Q 55.609375 10.40625 48.1875 4.484375 
Q 40.765625 -1.421875 27.09375 -1.421875 
Q 22.515625 -1.421875 17.65625 -0.515625 
Q 12.796875 0.390625 7.625 2.203125 
L 7.625 11.71875 
Q 11.71875 9.328125 16.59375 8.109375 
Q 21.484375 6.890625 26.8125 6.890625 
Q 36.078125 6.890625 40.9375 10.546875 
Q 45.796875 14.203125 45.796875 21.1875 
Q 45.796875 27.640625 41.28125 31.265625 
Q 36.765625 34.90625 28.71875 34.90625 
L 20.21875 34.90625 
L 20.21875 43.015625 
L 29.109375 43.015625 
Q 36.375 43.015625 40.234375 45.921875 
Q 44.09375 48.828125 44.09375 54.296875 
Q 44.09375 59.90625 40.109375 62.90625 
Q 36.140625 65.921875 28.71875 65.921875 
Q 24.65625 65.921875 20.015625 65.03125 
Q 15.375 64.15625 9.8125 62.3125 
L 9.8125 71.09375 
Q 15.4375 72.65625 20.34375 73.4375 
Q 25.25 74.21875 29.59375 74.21875 
Q 40.828125 74.21875 47.359375 69.109375 
Q 53.90625 64.015625 53.90625 55.328125 
Q 53.90625 49.265625 50.4375 45.09375 
Q 46.96875 40.921875 40.578125 39.3125 
z
" id="DejaVuSans-51"/>
      </defs>
      <g transform="translate(25.175625 24.384102)scale(0.12 -0.12)">
       <use xlink:href="#DejaVuSans-51"/>
      </g>
     </g>
    </g>
   </g>
   <g id="line2d_9">
    <path clip-path="url(#p1cf29648c4)" d="M 50.054314 206.231155 
L 50.442469 184.465183 
L 50.830624 183.392071 
L 51.218779 167.201007 
L 51.606934 172.4034 
L 51.995088 187.594799 
L 52.383243 149.013763 
L 52.771398 196.841131 
L 53.159553 195.89688 
L 53.547708 181.415178 
L 53.935863 161.446419 
L 54.324018 158.174511 
L 54.712172 164.002393 
L 55.100327 162.799551 
L 55.488482 171.211637 
L 55.876637 145.574795 
L 56.264792 140.877883 
L 56.652947 157.276074 
L 57.041101 158.228307 
L 57.429256 111.033814 
L 57.817411 128.914154 
L 58.205566 154.729569 
L 58.593721 114.42574 
L 58.981876 135.598865 
L 59.370031 140.433484 
L 59.758185 156.734615 
L 60.14634 159.086384 
L 60.534495 140.141062 
L 60.92265 146.117924 
L 61.310805 179.93334 
L 61.69896 134.949032 
L 62.087114 128.918908 
L 62.475269 127.276336 
L 62.863424 137.9638 
L 63.251579 139.990696 
L 63.639734 129.65711 
L 64.027889 154.916083 
L 64.416044 167.862556 
L 64.804198 160.332352 
L 65.192353 150.043606 
L 65.580508 129.958696 
L 65.968663 154.490003 
L 66.356818 141.374025 
L 66.744973 171.879342 
L 67.133127 141.110488 
L 67.521282 157.527661 
L 67.909437 133.187745 
L 68.297592 122.572814 
L 68.685747 174.052216 
L 69.073902 170.458886 
L 69.462057 156.29096 
L 69.850211 168.223967 
L 70.238366 161.633929 
L 70.626521 174.50977 
L 71.014676 171.26616 
L 71.402831 163.981987 
L 71.790986 191.722256 
L 72.17914 152.681819 
L 72.567295 173.283668 
L 72.95545 207.289774 
L 73.343605 178.180215 
L 73.73176 160.918117 
L 74.119915 192.260192 
L 74.50807 154.788466 
L 74.896224 197.483689 
L 75.284379 201.295741 
L 75.672534 188.784265 
L 76.060689 202.9134 
L 76.448844 162.466854 
L 76.836999 190.987974 
L 77.225153 195.332227 
L 77.613308 222.767238 
L 78.001463 239.469757 
L 78.389618 246.195958 
L 78.777773 199.339703 
L 79.165928 199.81033 
L 79.554083 218.499169 
L 79.942237 210.3763 
L 80.718547 240.036153 
L 81.106702 222.288644 
L 81.494857 222.099625 
L 81.883012 255.329872 
L 82.271166 219.500984 
L 82.659321 262.939052 
L 83.047476 250.354128 
L 83.435631 225.914901 
L 83.823786 227.452304 
L 84.211941 237.418994 
L 84.600096 233.798423 
L 85.376405 272.863326 
L 85.76456 246.593838 
L 86.152715 296.128363 
L 86.929025 227.823309 
L 87.317179 245.983794 
L 87.705334 215.375135 
L 88.093489 226.191077 
L 88.481644 223.494551 
L 88.869799 250.90895 
L 89.257954 249.083908 
L 89.646109 231.24036 
L 90.034263 227.956262 
L 90.422418 228.65391 
L 90.810573 226.990955 
L 91.198728 222.264087 
L 91.586883 227.727631 
L 91.975038 220.954862 
L 92.363192 248.495966 
L 92.751347 205.274104 
L 93.139502 198.200104 
L 93.527657 223.366302 
L 93.915812 206.494778 
L 94.303967 208.883387 
L 94.692122 199.119676 
L 95.080276 223.655866 
L 95.468431 202.40147 
L 95.856586 220.527048 
L 96.244741 174.173468 
L 96.632896 177.272385 
L 97.021051 218.049463 
L 97.409205 182.054116 
L 97.79736 197.278622 
L 98.185515 203.757145 
L 98.57367 221.718334 
L 98.961825 200.860327 
L 99.34998 190.502393 
L 99.738135 170.555886 
L 100.126289 160.802808 
L 100.902599 171.515512 
L 101.290754 172.733478 
L 101.678909 150.531829 
L 102.067064 164.167349 
L 102.455218 117.506539 
L 102.843373 128.841303 
L 103.231528 146.088602 
L 103.619683 138.231731 
L 104.007838 123.225061 
L 104.395993 144.617741 
L 104.784148 102.83754 
L 105.172302 149.555067 
L 105.948612 102.611523 
L 106.336767 164.40446 
L 106.724922 109.65217 
L 107.113077 100.790512 
L 107.501231 107.593286 
L 107.889386 133.366215 
L 108.665696 91.580464 
L 109.053851 143.433547 
L 109.442006 91.631036 
L 109.830161 114.34848 
L 110.218315 92.96892 
L 110.60647 139.140132 
L 110.994625 126.265805 
L 111.38278 101.986453 
L 111.770935 99.910115 
L 112.15909 132.276469 
L 112.547244 115.301785 
L 112.935399 149.382984 
L 113.323554 112.074903 
L 113.711709 119.461666 
L 114.099864 116.511164 
L 114.488019 135.619875 
L 114.876174 132.280676 
L 115.264328 110.867401 
L 115.652483 128.246193 
L 116.040638 122.107695 
L 116.428793 91.56726 
L 116.816948 101.00711 
L 117.205103 142.144626 
L 117.593257 168.72926 
L 117.981412 120.235622 
L 118.369567 93.705268 
L 118.757722 136.976596 
L 119.145877 137.347906 
L 119.534032 152.211551 
L 119.922187 139.722322 
L 120.310341 108.387936 
L 120.698496 122.2151 
L 121.086651 170.652651 
L 121.474806 152.395994 
L 121.862961 179.149883 
L 122.251116 154.250139 
L 122.63927 194.035739 
L 123.027425 183.501271 
L 123.41558 151.173878 
L 124.580045 183.601333 
L 124.9682 177.38257 
L 125.356354 167.466726 
L 126.132664 223.37168 
L 126.908974 200.013584 
L 127.297129 217.354804 
L 127.685283 185.192262 
L 128.073438 202.806351 
L 128.461593 185.651438 
L 128.849748 213.957838 
L 129.237903 212.364852 
L 129.626058 205.029824 
L 130.014213 189.869563 
L 130.402367 218.520917 
L 131.178677 220.863455 
L 131.566832 238.150989 
L 131.954987 185.67126 
L 132.343142 210.829111 
L 132.731297 226.891901 
L 133.119451 210.49229 
L 133.507606 227.167672 
L 133.895761 226.828044 
L 134.283916 212.998171 
L 134.672071 218.163031 
L 135.060226 219.509368 
L 135.44838 210.20773 
L 135.836535 246.381355 
L 136.612845 200.32731 
L 137.001 193.183994 
L 137.389155 213.312826 
L 137.77731 201.232763 
L 138.165464 216.353506 
L 138.553619 205.005269 
L 138.941774 210.504687 
L 139.329929 201.637641 
L 139.718084 203.867744 
L 140.106239 191.776477 
L 140.494393 170.580107 
L 140.882548 192.797602 
L 141.270703 189.716675 
L 141.658858 172.707885 
L 142.047013 222.937482 
L 142.435168 221.06097 
L 142.823323 172.549538 
L 143.211477 180.251056 
L 143.599632 180.344373 
L 143.987787 178.583625 
L 144.375942 139.637873 
L 144.764097 184.042069 
L 145.152252 147.490651 
L 145.540406 184.99372 
L 146.316716 162.277562 
L 146.704871 180.026559 
L 147.093026 127.146321 
L 147.481181 160.905429 
L 147.869336 168.400492 
L 148.25749 146.58696 
L 148.645645 156.254021 
L 149.0338 149.2398 
L 149.421955 106.656007 
L 149.81011 150.432456 
L 150.198265 138.625631 
L 150.586419 110.671291 
L 150.974574 137.247531 
L 151.362729 125.95836 
L 151.750884 90.204394 
L 152.139039 126.648661 
L 152.527194 101.449766 
L 152.915349 107.892378 
L 153.303503 120.784073 
L 154.079813 130.239419 
L 154.467968 93.998851 
L 154.856123 137.599684 
L 155.244278 85.249231 
L 155.632432 86.549385 
L 156.020587 133.674477 
L 156.796897 73.955652 
L 157.185052 86.671396 
L 157.573207 78.669829 
L 157.961362 113.258164 
L 158.349516 92.192057 
L 158.737671 98.396251 
L 159.125826 31.370615 
L 159.513981 124.042846 
L 159.902136 114.830625 
L 160.290291 76.786937 
L 160.678445 132.885236 
L 161.0666 87.28762 
L 161.454755 82.231668 
L 161.84291 104.807453 
L 162.231065 78.030241 
L 163.007375 50.718692 
L 163.395529 97.58269 
L 163.783684 96.558756 
L 164.171839 116.599687 
L 164.559994 85.842463 
L 164.948149 93.921136 
L 165.336304 91.202217 
L 165.724458 80.47425 
L 166.112613 93.860831 
L 166.500768 92.656825 
L 166.888923 114.354434 
L 167.277078 111.835953 
L 167.665233 135.405053 
L 168.053388 116.428712 
L 168.441542 128.838977 
L 168.829697 123.602068 
L 169.217852 152.294734 
L 169.994162 115.414256 
L 170.382317 97.443878 
L 171.158626 135.037668 
L 171.546781 107.631669 
L 171.934936 190.284713 
L 172.323091 152.798229 
L 172.711246 182.920686 
L 173.099401 166.474819 
L 173.487555 192.456166 
L 173.87571 119.15196 
L 174.65202 157.932993 
L 175.040175 163.986839 
L 175.42833 160.884008 
L 175.816484 184.755046 
L 176.204639 138.978147 
L 176.592794 160.457132 
L 176.980949 196.795576 
L 177.757259 158.53681 
L 178.145414 187.425532 
L 178.533568 192.340705 
L 178.921723 190.196847 
L 179.309878 194.573826 
L 179.698033 185.733286 
L 180.086188 188.359709 
L 180.474343 185.319804 
L 180.862497 211.012435 
L 181.250652 225.669346 
L 181.638807 233.470502 
L 182.026962 208.206059 
L 182.415117 223.832576 
L 183.191427 191.356887 
L 183.579581 194.825168 
L 183.967736 191.452805 
L 184.355891 158.304114 
L 184.744046 210.508131 
L 185.132201 211.410014 
L 185.520356 181.78989 
L 185.90851 171.192855 
L 186.296665 211.978703 
L 186.68482 182.870817 
L 187.072975 180.049246 
L 187.46113 195.370378 
L 187.849285 188.295864 
L 188.23744 229.262498 
L 188.625594 174.997437 
L 189.013749 184.383976 
L 189.401904 180.681756 
L 189.790059 170.339712 
L 190.178214 185.984482 
L 190.566369 173.810994 
L 190.954523 151.897392 
L 191.342678 194.200266 
L 191.730833 175.667456 
L 192.118988 186.979592 
L 192.507143 188.897168 
L 192.895298 116.765269 
L 193.283453 167.850027 
L 193.671607 118.810419 
L 194.059762 145.100373 
L 194.447917 146.4955 
L 194.836072 138.644795 
L 195.224227 153.241013 
L 195.612382 139.662026 
L 196.000536 155.723112 
L 196.388691 126.728497 
L 196.776846 128.478212 
L 197.553156 114.354244 
L 197.941311 127.683662 
L 198.329466 113.073284 
L 198.71762 75.267568 
L 199.105775 106.701638 
L 199.49393 122.138599 
L 199.882085 86.780981 
L 200.27024 97.127231 
L 200.658395 116.782952 
L 201.046549 109.833691 
L 201.434704 78.314374 
L 201.822859 87.165957 
L 202.211014 62.315834 
L 202.599169 77.216344 
L 202.987324 80.343295 
L 203.375479 107.797419 
L 203.763633 53.118507 
L 204.151788 113.630154 
L 204.539943 73.201803 
L 204.928098 56.704642 
L 204.928098 56.704642 
" style="fill:none;stroke:#1f77b4;stroke-linecap:square;stroke-width:1.5;"/>
   </g>
   <g id="patch_3">
    <path d="M 42.310625 309.36625 
L 42.310625 18.132727 
" style="fill:none;stroke:#000000;stroke-linecap:square;stroke-linejoin:miter;stroke-width:0.8;"/>
   </g>
   <g id="patch_4">
    <path d="M 212.671787 309.36625 
L 212.671787 18.132727 
" style="fill:none;stroke:#000000;stroke-linecap:square;stroke-linejoin:miter;stroke-width:0.8;"/>
   </g>
   <g id="patch_5">
    <path d="M 42.310625 309.36625 
L 212.671787 309.36625 
" style="fill:none;stroke:#000000;stroke-linecap:square;stroke-linejoin:miter;stroke-width:0.8;"/>
   </g>
   <g id="patch_6">
    <path d="M 42.310625 18.132727 
L 212.671787 18.132727 
" style="fill:none;stroke:#000000;stroke-linecap:square;stroke-linejoin:miter;stroke-width:0.8;"/>
   </g>
  </g>
  <g id="axes_2">
   <g id="patch_7">
    <path d="M 274.6925 309.36625 
L 445.053662 309.36625 
L 445.053662 18.132727 
L 274.6925 18.132727 
z
" style="fill:#ffffff;"/>
   </g>
   <g id="matplotlib.axis_3">
    <g id="xtick_4">
     <g id="line2d_10">
      <g>
       <use style="stroke:#000000;stroke-width:0.8;" x="282.436189" xlink:href="#m540c9f4df2" y="309.36625"/>
      </g>
     </g>
     <g id="text_9">
      <!-- 0 -->
      <g transform="translate(278.618689 327.984375)scale(0.12 -0.12)">
       <use xlink:href="#DejaVuSans-48"/>
      </g>
     </g>
    </g>
    <g id="xtick_5">
     <g id="line2d_11">
      <g>
       <use style="stroke:#000000;stroke-width:0.8;" x="360.067158" xlink:href="#m540c9f4df2" y="309.36625"/>
      </g>
     </g>
     <g id="text_10">
      <!-- 10 -->
      <g transform="translate(352.432158 327.984375)scale(0.12 -0.12)">
       <use xlink:href="#DejaVuSans-49"/>
       <use x="63.623047" xlink:href="#DejaVuSans-48"/>
      </g>
     </g>
    </g>
    <g id="xtick_6">
     <g id="line2d_12">
      <g>
       <use style="stroke:#000000;stroke-width:0.8;" x="437.698128" xlink:href="#m540c9f4df2" y="309.36625"/>
      </g>
     </g>
     <g id="text_11">
      <!-- 20 -->
      <g transform="translate(430.063128 327.984375)scale(0.12 -0.12)">
       <use xlink:href="#DejaVuSans-50"/>
       <use x="63.623047" xlink:href="#DejaVuSans-48"/>
      </g>
     </g>
    </g>
   </g>
   <g id="matplotlib.axis_4">
    <g id="ytick_6">
     <g id="line2d_13">
      <g>
       <use style="stroke:#000000;stroke-width:0.8;" x="274.6925" xlink:href="#m0a4b854645" y="296.129659"/>
      </g>
     </g>
     <g id="text_12">
      <!-- −1.00 -->
      <defs>
       <path d="M 10.6875 12.40625 
L 21 12.40625 
L 21 0 
L 10.6875 0 
z
" id="DejaVuSans-46"/>
      </defs>
      <g transform="translate(228.418125 300.688722)scale(0.12 -0.12)">
       <use xlink:href="#DejaVuSans-8722"/>
       <use x="83.789062" xlink:href="#DejaVuSans-49"/>
       <use x="147.412109" xlink:href="#DejaVuSans-46"/>
       <use x="179.199219" xlink:href="#DejaVuSans-48"/>
       <use x="242.822266" xlink:href="#DejaVuSans-48"/>
      </g>
     </g>
    </g>
    <g id="ytick_7">
     <g id="line2d_14">
      <g>
       <use style="stroke:#000000;stroke-width:0.8;" x="274.6925" xlink:href="#m0a4b854645" y="263.034647"/>
      </g>
     </g>
     <g id="text_13">
      <!-- −0.75 -->
      <defs>
       <path d="M 8.203125 72.90625 
L 55.078125 72.90625 
L 55.078125 68.703125 
L 28.609375 0 
L 18.3125 0 
L 43.21875 64.59375 
L 8.203125 64.59375 
z
" id="DejaVuSans-55"/>
       <path d="M 10.796875 72.90625 
L 49.515625 72.90625 
L 49.515625 64.59375 
L 19.828125 64.59375 
L 19.828125 46.734375 
Q 21.96875 47.46875 24.109375 47.828125 
Q 26.265625 48.1875 28.421875 48.1875 
Q 40.625 48.1875 47.75 41.5 
Q 54.890625 34.8125 54.890625 23.390625 
Q 54.890625 11.625 47.5625 5.09375 
Q 40.234375 -1.421875 26.90625 -1.421875 
Q 22.3125 -1.421875 17.546875 -0.640625 
Q 12.796875 0.140625 7.71875 1.703125 
L 7.71875 11.625 
Q 12.109375 9.234375 16.796875 8.0625 
Q 21.484375 6.890625 26.703125 6.890625 
Q 35.15625 6.890625 40.078125 11.328125 
Q 45.015625 15.765625 45.015625 23.390625 
Q 45.015625 31 40.078125 35.4375 
Q 35.15625 39.890625 26.703125 39.890625 
Q 22.75 39.890625 18.8125 39.015625 
Q 14.890625 38.140625 10.796875 36.28125 
z
" id="DejaVuSans-53"/>
      </defs>
      <g transform="translate(228.418125 267.59371)scale(0.12 -0.12)">
       <use xlink:href="#DejaVuSans-8722"/>
       <use x="83.789062" xlink:href="#DejaVuSans-48"/>
       <use x="147.412109" xlink:href="#DejaVuSans-46"/>
       <use x="179.199219" xlink:href="#DejaVuSans-55"/>
       <use x="242.822266" xlink:href="#DejaVuSans-53"/>
      </g>
     </g>
    </g>
    <g id="ytick_8">
     <g id="line2d_15">
      <g>
       <use style="stroke:#000000;stroke-width:0.8;" x="274.6925" xlink:href="#m0a4b854645" y="229.939636"/>
      </g>
     </g>
     <g id="text_14">
      <!-- −0.50 -->
      <g transform="translate(228.418125 234.498698)scale(0.12 -0.12)">
       <use xlink:href="#DejaVuSans-8722"/>
       <use x="83.789062" xlink:href="#DejaVuSans-48"/>
       <use x="147.412109" xlink:href="#DejaVuSans-46"/>
       <use x="179.199219" xlink:href="#DejaVuSans-53"/>
       <use x="242.822266" xlink:href="#DejaVuSans-48"/>
      </g>
     </g>
    </g>
    <g id="ytick_9">
     <g id="line2d_16">
      <g>
       <use style="stroke:#000000;stroke-width:0.8;" x="274.6925" xlink:href="#m0a4b854645" y="196.844624"/>
      </g>
     </g>
     <g id="text_15">
      <!-- −0.25 -->
      <g transform="translate(228.418125 201.403686)scale(0.12 -0.12)">
       <use xlink:href="#DejaVuSans-8722"/>
       <use x="83.789062" xlink:href="#DejaVuSans-48"/>
       <use x="147.412109" xlink:href="#DejaVuSans-46"/>
       <use x="179.199219" xlink:href="#DejaVuSans-50"/>
       <use x="242.822266" xlink:href="#DejaVuSans-53"/>
      </g>
     </g>
    </g>
    <g id="ytick_10">
     <g id="line2d_17">
      <g>
       <use style="stroke:#000000;stroke-width:0.8;" x="274.6925" xlink:href="#m0a4b854645" y="163.749612"/>
      </g>
     </g>
     <g id="text_16">
      <!-- 0.00 -->
      <g transform="translate(238.47375 168.308675)scale(0.12 -0.12)">
       <use xlink:href="#DejaVuSans-48"/>
       <use x="63.623047" xlink:href="#DejaVuSans-46"/>
       <use x="95.410156" xlink:href="#DejaVuSans-48"/>
       <use x="159.033203" xlink:href="#DejaVuSans-48"/>
      </g>
     </g>
    </g>
    <g id="ytick_11">
     <g id="line2d_18">
      <g>
       <use style="stroke:#000000;stroke-width:0.8;" x="274.6925" xlink:href="#m0a4b854645" y="130.6546"/>
      </g>
     </g>
     <g id="text_17">
      <!-- 0.25 -->
      <g transform="translate(238.47375 135.213663)scale(0.12 -0.12)">
       <use xlink:href="#DejaVuSans-48"/>
       <use x="63.623047" xlink:href="#DejaVuSans-46"/>
       <use x="95.410156" xlink:href="#DejaVuSans-50"/>
       <use x="159.033203" xlink:href="#DejaVuSans-53"/>
      </g>
     </g>
    </g>
    <g id="ytick_12">
     <g id="line2d_19">
      <g>
       <use style="stroke:#000000;stroke-width:0.8;" x="274.6925" xlink:href="#m0a4b854645" y="97.559589"/>
      </g>
     </g>
     <g id="text_18">
      <!-- 0.50 -->
      <g transform="translate(238.47375 102.118651)scale(0.12 -0.12)">
       <use xlink:href="#DejaVuSans-48"/>
       <use x="63.623047" xlink:href="#DejaVuSans-46"/>
       <use x="95.410156" xlink:href="#DejaVuSans-53"/>
       <use x="159.033203" xlink:href="#DejaVuSans-48"/>
      </g>
     </g>
    </g>
    <g id="ytick_13">
     <g id="line2d_20">
      <g>
       <use style="stroke:#000000;stroke-width:0.8;" x="274.6925" xlink:href="#m0a4b854645" y="64.464577"/>
      </g>
     </g>
     <g id="text_19">
      <!-- 0.75 -->
      <g transform="translate(238.47375 69.02364)scale(0.12 -0.12)">
       <use xlink:href="#DejaVuSans-48"/>
       <use x="63.623047" xlink:href="#DejaVuSans-46"/>
       <use x="95.410156" xlink:href="#DejaVuSans-55"/>
       <use x="159.033203" xlink:href="#DejaVuSans-53"/>
      </g>
     </g>
    </g>
    <g id="ytick_14">
     <g id="line2d_21">
      <g>
       <use style="stroke:#000000;stroke-width:0.8;" x="274.6925" xlink:href="#m0a4b854645" y="31.369565"/>
      </g>
     </g>
     <g id="text_20">
      <!-- 1.00 -->
      <g transform="translate(238.47375 35.928628)scale(0.12 -0.12)">
       <use xlink:href="#DejaVuSans-49"/>
       <use x="63.623047" xlink:href="#DejaVuSans-46"/>
       <use x="95.410156" xlink:href="#DejaVuSans-48"/>
       <use x="159.033203" xlink:href="#DejaVuSans-48"/>
      </g>
     </g>
    </g>
   </g>
   <g id="line2d_22">
    <path clip-path="url(#pfa02b2ec1c)" d="M 282.436189 163.749612 
L 285.541428 112.198394 
L 287.482202 83.635007 
L 289.034822 64.295077 
L 290.199286 52.355644 
L 291.363751 42.917879 
L 292.14006 38.122984 
L 292.91637 34.583308 
L 293.69268 32.33422 
L 294.080835 31.701179 
L 294.468989 31.398191 
L 294.857144 31.426012 
L 295.245299 31.784573 
L 295.633454 32.472978 
L 296.021609 33.489506 
L 296.797919 36.495956 
L 297.574228 40.773882 
L 298.350538 46.28054 
L 299.515002 56.72082 
L 300.679467 69.564736 
L 302.232086 89.923416 
L 304.172861 119.403865 
L 307.278099 171.477184 
L 309.995183 216.324105 
L 311.935958 244.747388 
L 313.488577 263.935162 
L 314.653041 275.740974 
L 315.817506 285.031702 
L 316.593816 289.722739 
L 317.370125 293.155095 
L 318.146435 295.294474 
L 318.53459 295.872106 
L 318.922745 296.1195 
L 319.3109 296.036038 
L 319.699054 295.62193 
L 320.087209 294.878209 
L 320.863519 292.410186 
L 321.639829 288.656629 
L 322.416138 283.655043 
L 323.192448 277.455401 
L 324.356913 266.048211 
L 325.521377 252.343616 
L 327.073997 231.03562 
L 329.014771 200.738649 
L 336.001558 87.175729 
L 337.554177 67.248656 
L 338.718642 54.790127 
L 339.883106 44.778592 
L 340.659416 39.577131 
L 341.435726 35.616361 
L 342.212036 32.935855 
L 342.60019 32.084579 
L 342.988345 31.562397 
L 343.3765 31.370615 
L 343.764655 31.509711 
L 344.15281 31.979337 
L 344.540965 32.778321 
L 345.317274 35.355554 
L 346.093584 39.215657 
L 346.869894 44.320063 
L 348.034358 54.194895 
L 349.198823 66.53009 
L 350.363287 81.048626 
L 351.915907 103.233268 
L 353.856681 134.243435 
L 359.679004 230.125647 
L 361.231623 251.557512 
L 362.396088 265.375896 
L 363.560552 276.911972 
L 364.725017 285.906666 
L 365.501326 290.389 
L 366.277636 293.605996 
L 367.053946 295.52551 
L 367.442101 295.992205 
L 367.830255 296.128363 
L 368.21841 295.933642 
L 368.606565 295.40853 
L 368.99472 294.55434 
L 369.77103 291.86808 
L 370.547339 287.901703 
L 371.323649 282.694839 
L 372.488114 272.6757 
L 373.652578 260.210316 
L 375.205198 240.275534 
L 376.757817 217.289904 
L 379.086746 179.120013 
L 383.356449 108.12788 
L 385.297224 80.13692 
L 386.849843 61.413711 
L 388.014307 50.013731 
L 389.178772 41.168013 
L 389.955082 36.790509 
L 390.731391 33.681538 
L 391.119546 32.612964 
L 391.507701 31.872164 
L 391.895856 31.460988 
L 392.284011 31.380466 
L 392.672166 31.630797 
L 393.06032 32.211357 
L 393.448475 33.120693 
L 394.224785 35.91579 
L 395.001095 39.988161 
L 395.777404 45.297115 
L 396.941869 55.459853 
L 398.106333 68.054545 
L 399.658953 88.134544 
L 401.211572 111.229077 
L 403.540501 149.485179 
L 407.810205 220.379323 
L 409.362824 243.022472 
L 410.915443 262.505262 
L 412.079908 274.57048 
L 413.244372 284.1469 
L 414.020682 289.039855 
L 414.796992 292.680951 
L 415.573302 295.033808 
L 415.961456 295.71929 
L 416.349611 296.074916 
L 416.737766 296.099798 
L 417.125921 295.793874 
L 417.514076 295.157908 
L 417.902231 294.193489 
L 418.67854 291.289752 
L 419.45485 287.111676 
L 420.23116 281.701007 
L 421.395624 271.395389 
L 422.560089 258.672278 
L 424.112708 238.448483 
L 426.053482 209.087213 
L 428.770566 163.690825 
L 431.875805 112.144252 
L 433.816579 83.588216 
L 435.369199 64.256288 
L 436.533663 52.323892 
L 437.309973 45.744886 
L 437.309973 45.744886 
" style="fill:none;stroke:#1f77b4;stroke-linecap:square;stroke-width:1.5;"/>
   </g>
   <g id="patch_8">
    <path d="M 274.6925 309.36625 
L 274.6925 18.132727 
" style="fill:none;stroke:#000000;stroke-linecap:square;stroke-linejoin:miter;stroke-width:0.8;"/>
   </g>
   <g id="patch_9">
    <path d="M 445.053662 309.36625 
L 445.053662 18.132727 
" style="fill:none;stroke:#000000;stroke-linecap:square;stroke-linejoin:miter;stroke-width:0.8;"/>
   </g>
   <g id="patch_10">
    <path d="M 274.6925 309.36625 
L 445.053662 309.36625 
" style="fill:none;stroke:#000000;stroke-linecap:square;stroke-linejoin:miter;stroke-width:0.8;"/>
   </g>
   <g id="patch_11">
    <path d="M 274.6925 18.132727 
L 445.053662 18.132727 
" style="fill:none;stroke:#000000;stroke-linecap:square;stroke-linejoin:miter;stroke-width:0.8;"/>
   </g>
  </g>
 </g>
 <defs>
  <clipPath id="p1cf29648c4">
   <rect height="291.233523" width="170.361162" x="42.310625" y="18.132727"/>
  </clipPath>
  <clipPath id="pfa02b2ec1c">
   <rect height="291.233523" width="170.361162" x="274.6925" y="18.132727"/>
  </clipPath>
 </defs>
</svg>
